<svg width="75" height="121" viewBox="0 0 75 121" fill="none" xmlns="http://www.w3.org/2000/svg">
<path fill-rule="evenodd" clip-rule="evenodd" d="M3.00462 1.08355C3.05072 0.81128 2.86738 0.553194 2.59511 0.507096C2.32284 0.460998 2.06475 0.644344 2.01866 0.916611C-0.659654 16.7354 -0.535732 41.4814 8.54696 64.3472C17.6389 87.2362 35.7117 108.241 68.8911 116.485C69.1591 116.552 69.4303 116.389 69.4969 116.121C69.5635 115.853 69.4002 115.581 69.1322 115.515C36.3116 107.359 18.4677 86.614 9.47632 63.978C0.475679 41.3188 0.3496 16.7648 3.00462 1.08355ZM73.838 117.573L74.2882 117.355L74.0708 116.905L71.6106 111.811C71.4905 111.563 71.1915 111.458 70.9429 111.578C70.6942 111.699 70.59 111.997 70.7101 112.246L72.9528 116.89L68.3092 119.133C68.0606 119.253 67.9564 119.552 68.0765 119.8C68.1966 120.049 68.4955 120.153 68.7441 120.033L73.838 117.573Z" fill="#B1CFCC"/>
</svg>
