<svg width="293" height="252" viewBox="0 0 293 252" fill="none" xmlns="http://www.w3.org/2000/svg">
<g clip-path="url(#clip0_3_27713)">
<path opacity="0.1" d="M170.238 44.4422C151.454 43.663 133.55 36.425 116.479 28.5076C99.4085 20.5903 82.4888 11.8165 64.1448 7.62114C52.3507 4.91977 38.8624 4.53984 29.3613 12.0869C20.2162 19.3475 17.2623 31.8819 15.6734 43.5117C14.4783 52.2629 13.785 61.4714 17.0519 69.6657C19.326 75.3518 23.3617 80.1331 26.1538 85.5809C35.8653 104.536 28.9998 127.911 18.4736 146.434C13.5369 155.127 7.80974 163.399 4.00066 172.643C0.191574 181.887 -1.57269 192.477 1.76161 201.904C5.06623 211.241 12.938 218.267 21.468 223.203C38.7923 233.219 59.2054 236.085 79.1114 237.727C123.175 241.323 167.476 239.765 211.655 238.207C228.006 237.627 244.429 237.044 260.512 234.021C269.444 232.343 278.667 229.684 285.153 223.264C293.383 215.111 295.425 201.312 289.909 191.089C280.656 173.947 255.074 169.687 248.605 151.289C245.047 141.163 248.702 129.881 253.876 120.489C264.971 100.343 283.574 82.667 284.554 59.6362C285.228 43.8175 276.285 27.9796 262.457 20.4937C247.965 12.6407 227.868 13.6324 217.177 26.6112C206.168 39.9828 186.82 45.128 170.238 44.4422Z" fill="#36F5D3"/>
<path d="M65.3505 233.445C65.3505 233.445 50.5134 220.057 47.7106 203.028C46.5739 195.875 43.5251 189.356 39.0214 184.446C36.8669 182.137 34.54 180.068 32.0696 178.265" stroke="#535461" stroke-width="2" stroke-miterlimit="10"/>
<path d="M30.2542 167.536C31.5545 169.636 32.1426 178.532 32.1426 178.532C32.1426 178.532 25.1907 175.264 23.8878 173.168C23.2621 172.16 22.9974 170.897 23.152 169.657C23.3065 168.416 23.8677 167.3 24.7119 166.553C25.5562 165.806 26.6144 165.49 27.6538 165.675C28.6931 165.859 29.6286 166.529 30.2542 167.536Z" fill="#36F5D3"/>
<path d="M42.7226 174.517C42.8575 177.122 39.3047 184.971 39.3047 184.971C39.3047 184.971 34.9534 177.714 34.8158 175.109C34.7635 173.867 35.1232 172.651 35.8171 171.724C36.5109 170.796 37.483 170.232 38.5227 170.155C39.5624 170.077 40.586 170.491 41.3716 171.307C42.1572 172.124 42.6417 173.277 42.7199 174.517H42.7226Z" fill="#36F5D3"/>
<path d="M54.8081 194.582C53.8262 196.913 47.4355 201.55 47.4355 201.55C47.4355 201.55 46.753 192.663 47.7349 190.332C48.2183 189.236 49.0429 188.41 50.0314 188.032C51.0198 187.654 52.093 187.755 53.0201 188.312C53.9472 188.869 54.6539 189.838 54.9883 191.011C55.3227 192.183 55.258 193.466 54.8081 194.582Z" fill="#36F5D3"/>
<path d="M61.0911 212.214C60.4517 214.709 54.8109 220.566 54.8109 220.566C54.8109 220.566 52.8767 211.946 53.5161 209.448C53.8234 208.249 54.5171 207.245 55.4447 206.656C56.3723 206.068 57.4577 205.943 58.4622 206.31C59.4667 206.677 60.308 207.505 60.801 208.612C61.294 209.719 61.3984 211.015 61.0911 212.214Z" fill="#36F5D3"/>
<path d="M32.8737 191.282C35.0318 191.63 41.8541 187.953 41.8541 187.953C41.8541 187.953 36.0973 182.26 33.9284 181.913C32.8874 181.746 31.8335 182.079 30.9985 182.84C30.1635 183.6 29.6158 184.725 29.476 185.968C29.3361 187.21 29.6155 188.468 30.2527 189.465C30.8899 190.461 31.8327 191.115 32.8737 191.282Z" fill="#36F5D3"/>
<path d="M40.4406 211.795C42.5987 211.354 48.1747 205.414 48.1747 205.414C48.1747 205.414 41.2526 202.039 39.0971 202.48C38.5811 202.581 38.0869 202.803 37.6431 203.133C37.1993 203.463 36.8147 203.895 36.5114 204.404C36.2082 204.912 35.9923 205.487 35.8763 206.096C35.7603 206.705 35.7464 207.335 35.8354 207.95C35.9245 208.565 36.1147 209.153 36.3952 209.679C36.6756 210.206 37.0407 210.661 37.4693 211.019C37.898 211.377 38.3817 211.629 38.8926 211.762C39.4035 211.896 39.9314 211.907 40.446 211.795H40.4406Z" fill="#36F5D3"/>
<path d="M50.0847 230.531C52.2725 230.531 58.6119 225.801 58.6119 225.801C58.6119 225.801 52.2698 221.078 50.082 221.078C49.0317 221.078 48.0244 221.576 47.2817 222.462C46.5391 223.348 46.1218 224.551 46.1218 225.804C46.1218 227.058 46.5391 228.26 47.2817 229.146C48.0244 230.033 49.0317 230.531 50.082 230.531H50.0847Z" fill="#36F5D3"/>
<path d="M209.486 117.653C209.486 117.653 218.631 98.3182 232.416 92.7481C238.205 90.4536 243.214 85.981 246.692 80.0011C248.323 77.1422 249.731 74.1104 250.898 70.9439" stroke="#535461" stroke-width="2" stroke-miterlimit="10"/>
<path d="M259.552 67.4022C257.982 69.2181 250.674 71.0985 250.674 71.0985C250.674 71.0985 252.468 62.4373 254.038 60.6182C254.796 59.7714 255.802 59.3136 256.84 59.3433C257.877 59.3731 258.864 59.8881 259.587 60.7775C260.31 61.6668 260.711 62.8594 260.704 64.0984C260.698 65.3374 260.284 66.5238 259.552 67.4022Z" fill="#36F5D3"/>
<path d="M255.419 83.0598C253.261 83.5686 246.282 80.4068 246.282 80.4068C246.282 80.4068 251.731 74.2892 253.876 73.7902C254.391 73.6538 254.923 73.6415 255.442 73.7542C255.961 73.8668 256.456 74.1021 256.898 74.4461C257.34 74.7901 257.719 75.236 258.015 75.7576C258.31 76.2792 258.515 76.8659 258.618 77.4834C258.721 78.1009 258.719 78.7367 258.613 79.3534C258.507 79.9702 258.299 80.5555 258.001 81.0749C257.703 81.5944 257.321 82.0375 256.878 82.3784C256.434 82.7192 255.938 82.9509 255.419 83.0598Z" fill="#36F5D3"/>
<path d="M240.377 100.021C238.311 99.1682 233.614 92.2265 233.614 92.2265C233.614 92.2265 240.898 90.2367 242.969 91.0899C243.467 91.287 243.927 91.6001 244.323 92.0111C244.718 92.4221 245.042 92.9228 245.274 93.4841C245.506 94.0454 245.642 94.6561 245.675 95.2808C245.708 95.9056 245.636 96.5318 245.465 97.1233C245.293 97.7148 245.024 98.2596 244.675 98.7263C244.325 99.1929 243.902 99.5721 243.428 99.8417C242.955 100.111 242.442 100.266 241.918 100.297C241.394 100.328 240.87 100.234 240.377 100.021Z" fill="#36F5D3"/>
<path d="M226.554 109.797C224.396 109.372 218.796 103.463 218.796 103.463C218.796 103.463 225.699 100.031 227.854 100.456C228.892 100.66 229.819 101.347 230.432 102.367C231.045 103.386 231.293 104.654 231.123 105.893C230.952 107.131 230.376 108.237 229.522 108.969C228.668 109.701 227.605 109.997 226.568 109.793L226.554 109.797Z" fill="#36F5D3"/>
<path d="M240.188 73.6356C240.185 76.2468 244.154 83.8229 244.154 83.8229C244.154 83.8229 248.116 76.2565 248.116 73.6485C248.13 73.0176 248.038 72.3899 247.845 71.8022C247.653 71.2145 247.363 70.6789 246.994 70.2269C246.625 69.7748 246.184 69.4156 245.697 69.1703C245.21 68.9249 244.686 68.7986 244.158 68.7986C243.629 68.7986 243.105 68.9249 242.618 69.1703C242.131 69.4156 241.69 69.7748 241.321 70.2269C240.952 70.6789 240.663 71.2145 240.47 71.8022C240.277 72.3899 240.185 73.0176 240.199 73.6485L240.188 73.6356Z" fill="#36F5D3"/>
<path d="M224.156 85.3104C224.809 87.8025 230.485 93.6142 230.485 93.6142C230.485 93.6142 232.373 84.9788 231.715 82.4867C231.373 81.3321 230.67 80.3806 229.753 79.8327C228.835 79.2847 227.775 79.183 226.796 79.5489C225.818 79.9149 224.996 80.72 224.504 81.7946C224.013 82.8693 223.89 84.1297 224.161 85.3104H224.156Z" fill="#36F5D3"/>
<path d="M209.894 99.2101C210.185 101.786 214.954 108.666 214.954 108.666C214.954 108.666 218.032 100.537 217.741 97.9512C217.683 97.3247 217.521 96.7184 217.264 96.1679C217.007 95.6174 216.66 95.1338 216.244 94.7455C215.828 94.3572 215.352 94.0722 214.842 93.9071C214.333 93.7419 213.8 93.7001 213.277 93.7841C212.754 93.868 212.25 94.0761 211.795 94.3959C211.34 94.7158 210.943 95.141 210.628 95.6465C210.313 96.1521 210.085 96.7278 209.959 97.3398C209.833 97.9518 209.811 98.5877 209.894 99.2101Z" fill="#36F5D3"/>
<path opacity="0.25" d="M259.552 67.4022C257.982 69.2181 250.674 71.0985 250.674 71.0985C250.674 71.0985 252.468 62.4373 254.038 60.6182C254.796 59.7714 255.802 59.3136 256.84 59.3433C257.877 59.3731 258.864 59.8881 259.587 60.7775C260.31 61.6668 260.711 62.8594 260.704 64.0984C260.698 65.3374 260.284 66.5238 259.552 67.4022Z" fill="black"/>
<path opacity="0.25" d="M255.419 83.0598C253.261 83.5686 246.282 80.4068 246.282 80.4068C246.282 80.4068 251.731 74.2892 253.876 73.7902C254.391 73.6538 254.923 73.6415 255.442 73.7542C255.961 73.8668 256.456 74.1021 256.898 74.4461C257.34 74.7901 257.719 75.236 258.015 75.7576C258.31 76.2792 258.515 76.8659 258.618 77.4834C258.721 78.1009 258.719 78.7367 258.613 79.3534C258.507 79.9702 258.299 80.5555 258.001 81.0749C257.703 81.5944 257.321 82.0375 256.878 82.3784C256.434 82.7192 255.938 82.9509 255.419 83.0598Z" fill="black"/>
<path opacity="0.25" d="M240.377 100.021C238.311 99.1682 233.614 92.2265 233.614 92.2265C233.614 92.2265 240.898 90.2367 242.969 91.0899C243.467 91.287 243.927 91.6001 244.323 92.0111C244.718 92.4221 245.042 92.9228 245.274 93.4841C245.506 94.0454 245.642 94.6561 245.675 95.2808C245.708 95.9056 245.636 96.5318 245.465 97.1233C245.293 97.7148 245.024 98.2596 244.675 98.7263C244.325 99.1929 243.902 99.5721 243.428 99.8417C242.955 100.111 242.442 100.266 241.918 100.297C241.394 100.328 240.87 100.234 240.377 100.021Z" fill="black"/>
<path opacity="0.25" d="M226.554 109.797C224.396 109.372 218.796 103.463 218.796 103.463C218.796 103.463 225.699 100.031 227.854 100.456C228.892 100.66 229.819 101.347 230.432 102.367C231.045 103.386 231.293 104.654 231.123 105.893C230.952 107.131 230.376 108.237 229.522 108.969C228.668 109.701 227.605 109.997 226.568 109.793L226.554 109.797Z" fill="black"/>
<path opacity="0.25" d="M240.188 73.6356C240.185 76.2468 244.154 83.8229 244.154 83.8229C244.154 83.8229 248.116 76.2565 248.116 73.6485C248.13 73.0176 248.038 72.3899 247.845 71.8022C247.653 71.2145 247.363 70.6789 246.994 70.2269C246.625 69.7748 246.184 69.4156 245.697 69.1703C245.21 68.9249 244.686 68.7986 244.158 68.7986C243.629 68.7986 243.105 68.9249 242.618 69.1703C242.131 69.4156 241.69 69.7748 241.321 70.2269C240.952 70.6789 240.663 71.2145 240.47 71.8022C240.277 72.3899 240.185 73.0176 240.199 73.6485L240.188 73.6356Z" fill="black"/>
<path opacity="0.25" d="M224.156 85.3104C224.809 87.8025 230.485 93.6142 230.485 93.6142C230.485 93.6142 232.373 84.9788 231.715 82.4867C231.373 81.3321 230.67 80.3806 229.753 79.8327C228.835 79.2847 227.775 79.183 226.796 79.5489C225.818 79.9149 224.996 80.72 224.504 81.7946C224.013 82.8693 223.89 84.1297 224.161 85.3104H224.156Z" fill="black"/>
<path opacity="0.25" d="M209.894 99.2101C210.185 101.786 214.954 108.666 214.954 108.666C214.954 108.666 218.032 100.537 217.741 97.9512C217.683 97.3247 217.521 96.7184 217.264 96.1679C217.007 95.6174 216.66 95.1338 216.244 94.7455C215.828 94.3572 215.352 94.0722 214.842 93.9071C214.333 93.7419 213.8 93.7001 213.277 93.7841C212.754 93.868 212.25 94.0761 211.795 94.3959C211.34 94.7158 210.943 95.141 210.628 95.6465C210.313 96.1521 210.085 96.7278 209.959 97.3398C209.833 97.9518 209.811 98.5877 209.894 99.2101Z" fill="black"/>
<path d="M210.012 117.27C210.012 117.27 211.809 95.1693 222.508 83.4172C227.02 78.5194 230.081 72.0078 231.232 64.8586C231.756 61.4599 232.017 58.0111 232.012 54.5554" stroke="#535461" stroke-width="2" stroke-miterlimit="10"/>
<path d="M238.718 47.0985C237.909 49.5197 231.855 54.7743 231.855 54.7743C231.855 54.7743 230.555 45.9877 231.372 43.5664C231.766 42.4038 232.53 41.4753 233.497 40.9853C234.464 40.4953 235.555 40.4839 236.529 40.9536C237.503 41.4232 238.281 42.3355 238.691 43.4897C239.102 44.6439 239.111 45.9455 238.718 47.1081V47.0985Z" fill="#36F5D3"/>
<path d="M240.258 63.429C238.47 64.9294 231.005 65.4221 231.005 65.4221C231.005 65.4221 233.913 57.1988 235.702 55.6984C236.126 55.3195 236.61 55.0461 237.124 54.8942C237.638 54.7424 238.173 54.7153 238.696 54.8145C239.219 54.9137 239.721 55.1372 240.17 55.4718C240.62 55.8063 241.009 56.2452 241.313 56.7623C241.618 57.2794 241.833 57.8643 241.945 58.4823C242.057 59.1004 242.065 59.7389 241.966 60.3603C241.868 60.9816 241.666 61.5731 241.373 62.0997C241.079 62.6262 240.7 63.0772 240.258 63.4258V63.429Z" fill="#36F5D3"/>
<path d="M232.257 86.2184C230.077 86.4373 223.425 82.3547 223.425 82.3547C223.425 82.3547 229.414 77.0099 231.593 76.791C232.64 76.686 233.679 77.0815 234.481 77.8906C235.284 78.6997 235.784 79.8561 235.872 81.1054C235.96 82.3547 235.628 83.5946 234.95 84.5523C234.273 85.5099 233.304 86.1069 232.257 86.212V86.2184Z" fill="#36F5D3"/>
<path d="M222.948 101.831C220.83 102.475 213.697 99.8122 213.697 99.8122C213.697 99.8122 218.842 93.3373 220.959 92.6805C221.976 92.3658 223.056 92.546 223.961 93.1815C224.866 93.8171 225.523 94.8558 225.787 96.0692C226.05 97.2827 225.899 98.5714 225.367 99.6519C224.834 100.732 223.964 101.516 222.948 101.831Z" fill="#36F5D3"/>
<path d="M223.136 62.1798C224.021 64.5656 230.209 69.5852 230.209 69.5852C230.209 69.5852 231.261 60.7502 230.377 58.3644C229.936 57.2481 229.147 56.382 228.178 55.951C227.209 55.52 226.137 55.5583 225.192 56.0578C224.246 56.5573 223.502 57.4783 223.118 58.624C222.734 59.7698 222.74 61.0494 223.136 62.1894V62.1798Z" fill="#36F5D3"/>
<path d="M212.443 80.6032C213.886 82.564 221.045 85.1334 221.045 85.1334C221.045 85.1334 219.837 76.3273 218.394 74.3665C218.053 73.8902 217.636 73.4994 217.168 73.2168C216.7 72.9343 216.189 72.7657 215.666 72.7207C215.142 72.6757 214.617 72.7554 214.119 72.955C213.622 73.1546 213.163 73.4701 212.769 73.8834C212.374 74.2966 212.053 74.7992 211.823 75.362C211.592 75.9249 211.458 76.5367 211.428 77.1619C211.398 77.7871 211.472 78.4133 211.646 79.0041C211.82 79.5948 212.091 80.1384 212.443 80.6032Z" fill="#36F5D3"/>
<path d="M204.11 100.218C205.253 102.44 211.946 106.416 211.946 106.416C211.946 106.416 212.003 97.494 210.867 95.2691C210.302 94.2418 209.424 93.5178 208.418 93.2506C207.413 92.9833 206.36 93.1939 205.483 93.8376C204.606 94.4813 203.973 95.5075 203.719 96.6986C203.466 97.8897 203.61 99.1521 204.123 100.218H204.11Z" fill="#36F5D3"/>
<path d="M196.254 30.7196C196.702 28.7588 197.241 26.7883 197.619 24.8017C197.166 26.7883 196.624 28.7652 196.254 30.7196Z" fill="url(#paint0_linear_3_27713)"/>
<path d="M194.247 49.6067C194.209 49.5294 194.182 49.4521 194.153 49.3813C194.153 49.3491 194.126 49.3233 194.115 49.2911C194.056 49.3242 193.996 49.3533 193.934 49.3781C193.815 49.4328 193.694 49.4843 193.57 49.5262C193.446 49.568 193.395 49.5906 193.3 49.6163C193.222 49.6485 193.142 49.6733 193.06 49.6904L193.082 49.7483C193.182 49.7226 193.279 49.7 193.378 49.6678L193.405 50.0671C193.519 50.0671 193.624 50.0478 193.726 50.0478C193.775 50.0446 193.824 50.0446 193.872 50.0478C194.083 50.0478 194.266 50.0478 194.412 50.0478C194.355 49.9029 194.296 49.7515 194.247 49.6067ZM249.009 153.646C247.742 151.608 245.211 129.733 245.211 129.733C245.211 129.733 240.234 114.179 241.591 107.971C242.948 101.763 237.884 85.8803 237.884 85.8803C237.884 85.8803 234.539 84.1449 234.358 81.5691C234.358 81.5691 220.7 76.4175 220.061 72.5538C219.543 69.3856 211.072 67.1124 208.029 66.3944C207.101 61.9254 206.168 57.7558 205.48 55.4795C205.294 54.7711 205.119 54.1594 204.957 53.6764C203.794 50.1347 200.201 49.8127 197.595 50.0961C197.482 49.4924 197.272 48.9206 196.977 48.4121C196.934 48.2373 196.849 48.0816 196.732 47.9646C196.676 47.9077 196.616 47.856 196.554 47.81C196.506 47.7057 196.444 47.612 196.37 47.5331C196.296 47.4536 196.215 47.3844 196.127 47.3271C196.065 47.2866 196 47.2511 195.933 47.2208C195.777 47.1498 195.615 47.0969 195.45 47.0631C195.258 47.0159 195.063 46.9858 194.868 46.9729C195.344 46.7243 195.768 46.3539 196.111 45.8879C196.344 45.5607 196.518 45.1791 196.621 44.7674C196.706 44.425 196.745 44.0683 196.734 43.7113C196.664 43.8584 196.583 43.9975 196.492 44.1267C196.605 42.7003 195.974 41.2514 195.612 39.8315C195.174 37.983 195.093 36.04 195.375 34.1487C195.736 31.296 196.632 28.4111 197.239 25.5068C197.24 25.4908 197.24 25.4746 197.239 25.4585C197.557 24.0163 197.754 22.5397 197.827 21.0507C197.932 18.0467 197.287 15.0491 196.251 12.3123C195.332 9.88785 193.975 7.50202 191.897 6.51677C190.354 5.77301 188.625 5.89214 186.963 5.76979C183.235 5.49289 179.68 3.9281 176.135 2.50497C172.59 1.08184 168.943 -0.212499 165.212 0.0354211C161.481 0.283342 157.643 2.43091 155.94 6.37188C155.401 7.60183 155.091 8.97022 154.446 10.1261C153.237 12.3059 151.074 13.3974 149.269 14.901C147.464 16.4046 145.876 18.5393 145.223 21.0861C144.866 22.4583 144.816 23.9177 145.077 25.3201C145.136 25.6368 145.211 25.9487 145.304 26.2538C145.56 27.1046 145.959 27.8837 146.477 28.5431C146.868 29.0304 147.317 29.446 147.81 29.7762C148.429 30.1857 149.091 30.4933 149.779 30.6906C149.755 30.7872 149.73 30.8903 149.703 30.9901C149.66 31.1543 149.623 31.3121 149.582 31.4891C149.493 31.8852 149.409 32.2876 149.339 32.6933C149.336 32.7222 149.336 32.7514 149.339 32.7803C149.008 34.6116 148.842 36.48 148.843 38.3536C148.842 39.2397 148.88 40.1253 148.956 41.0067C150.035 54.0725 159.072 64.3789 170.238 65.0486C170.621 65.0711 171.007 65.084 171.398 65.084C171.576 65.084 171.751 65.084 171.938 65.084C172.113 65.3609 172.286 65.6442 172.45 65.9211C172.615 66.198 172.766 66.4814 172.909 66.7583L172.518 66.2753L172.126 65.8471C172.02 66.0208 171.902 66.1834 171.773 66.3333C171.518 66.2262 171.258 66.138 170.993 66.0692C169.874 65.773 168.169 65.6635 165.924 66.4717C163.861 67.209 161.338 68.7255 158.387 71.6072L144.006 81.9104L136.226 87.5578L133.423 95.736C133.423 95.736 131.316 105.453 128.972 116.587C128.88 116.619 128.791 116.651 128.702 116.69C128.512 116.664 128.321 116.651 128.13 116.651C126.77 116.648 125.462 117.273 124.48 118.396C123.498 119.52 122.919 121.054 122.865 122.676C118.203 129.437 117.939 136.199 119.034 139.302C119.133 139.593 119.258 139.871 119.406 140.13C120.124 141.366 121.464 144.554 122.824 147.951C122.789 148.231 122.767 148.466 122.757 148.643C122.754 148.701 122.754 148.759 122.757 148.817C122.757 148.817 123.566 163.405 120.868 167.588C120.277 168.499 120.367 169.697 120.868 171.023C122.676 175.795 129.822 182.167 129.822 182.167C129.822 182.167 138.392 182.112 143.167 181.491C143.154 182.064 143.143 182.634 143.132 183.191C143.024 188.819 143.024 193.536 143.024 193.536L142.846 199.438C142.846 199.438 141.227 211.876 140.418 215.305C139.908 217.455 140.496 237.369 141.009 252.01H225.451C226.444 243.349 225.043 217.034 225.043 217.034C225.043 217.034 223.714 210.23 223.665 204.299C223.662 204.293 223.661 204.286 223.661 204.279C223.661 204.271 223.662 204.264 223.665 204.258C223.665 203.739 223.665 203.234 223.681 202.738L224.294 202.712L225.394 202.667H225.494C225.494 202.667 225.521 202.545 225.583 202.345C225.729 201.848 225.927 201.375 226.174 200.938C226.643 200.111 227.377 199.299 228.48 199.244C229.09 199.215 230.034 198.626 231.1 197.757C231.107 197.759 231.114 197.759 231.121 197.757C233.989 195.442 237.779 191.169 238.699 190.467C239.964 189.501 246.023 183.062 246.023 183.062C246.023 183.062 246.927 181.697 247.89 180.052L247.925 179.994C249.123 177.933 250.396 175.47 250.083 174.694C249.544 173.303 250.445 169.977 250.445 169.977C253.258 163.83 250.277 155.684 249.009 153.646ZM196.845 54.6134C196.871 54.7095 196.887 54.8089 196.893 54.9096C196.826 54.8033 196.759 54.6906 196.691 54.5876L196.626 54.4846L196.581 54.4073L196.683 54.2399C196.683 54.2399 196.683 54.2399 196.683 54.2624C196.754 54.3668 196.809 54.4857 196.845 54.6134ZM195.939 51.7607C195.644 51.8315 195.412 51.8959 195.261 51.9442C195.07 51.5385 194.886 51.1328 194.722 50.7207C195.154 51.0202 195.562 51.3684 195.939 51.7607ZM195.431 52.2694C195.431 52.263 195.431 52.2565 195.431 52.2501L195.453 52.2694C195.564 52.3563 195.671 52.44 195.771 52.527C195.86 52.6042 195.941 52.6783 196.022 52.7556C195.968 52.8683 195.909 52.9842 195.85 53.0775C195.755 52.9005 195.666 52.7298 195.58 52.5527C195.526 52.4819 195.477 52.3853 195.431 52.2694ZM193.813 48.2962C194.334 48.2349 194.859 48.2349 195.38 48.2962C195.453 48.2962 195.518 48.3123 195.582 48.3252C195.729 48.3522 195.872 48.3964 196.011 48.4572C196.33 48.9895 196.526 49.6124 196.581 50.2635L196.435 50.2892L196.292 50.3214C196.022 50.3762 195.752 50.4309 195.542 50.4824L195.272 50.55C194.913 50.6434 194.706 50.7143 194.698 50.7175C194.663 50.6305 194.627 50.55 194.59 50.4663C194.53 50.3279 194.468 50.1862 194.414 50.0478C194.36 49.9093 194.29 49.7515 194.234 49.6067C194.196 49.5294 194.169 49.4521 194.139 49.3813C194.139 49.3491 194.112 49.3233 194.101 49.2911C194.086 49.257 194.072 49.2215 194.061 49.1849C193.896 48.7856 193.745 48.3864 193.6 47.9936C193.583 47.9549 193.57 47.9131 193.557 47.8744L193.762 47.8583V47.9421L193.813 48.2962ZM129.45 248.03C129.428 243.236 129.137 238.049 128.327 233.181C127.982 231.11 127.626 229.04 127.264 227.005C127.173 226.496 127.084 225.994 126.995 225.492L126.164 225.624H126.088C123.822 212.87 121.454 201.634 121.454 201.634C121.454 201.634 116.749 180.193 117.294 178.484C117.364 178.261 117.275 177.662 117.075 176.783C115.937 171.909 111.184 158.476 109.522 153.885C109.522 153.865 109.508 153.843 109.503 153.827C109.233 153.057 109.039 152.539 108.98 152.387L109.371 145.536L109.392 145.124L109.444 144.248L109.422 144.225L109.444 143.82C109.444 143.82 105.338 139.801 98.3834 136.9C98.1136 136.785 97.8276 136.672 97.5444 136.562C97.8924 133.79 98.3537 130.661 98.9553 127.611C99.0119 127.306 99.074 127.009 99.1387 126.71C99.1954 126.411 99.2601 126.121 99.3248 125.828C99.4274 125.351 99.538 124.881 99.6513 124.417C100.026 124.276 100.396 124.118 100.76 123.951L100.9 123.886C105.387 121.803 109.089 117.849 111.321 112.758C113.552 107.667 114.163 101.784 113.04 96.1964C112.399 93.0277 111.216 90.0514 109.565 87.4548C109.441 87.2552 109.309 87.0555 109.177 86.8591C109.044 86.6627 108.885 86.4438 108.737 86.2442C109.517 84.1288 110.436 82.1165 110.512 80.059C110.525 79.7985 110.525 79.5372 110.512 79.2766V79.2444C110.412 77.9211 109.921 76.5817 108.777 75.1747C107.108 73.1108 104.731 72.0644 102.354 71.5621C99.9777 71.0598 97.5552 71.047 95.1651 70.7089C91.2022 70.1422 87.3419 68.6837 83.379 68.2361C78.4978 67.6966 73.5835 68.6959 69.1273 71.1339C66.1788 72.7438 63.1925 75.5578 63.0145 79.4183C62.8688 82.6091 64.7302 85.6678 64.2608 88.82C63.7941 91.9174 61.1504 94.3547 61.3824 97.4875C61.4714 98.711 61.9974 99.8058 62.6557 100.781C62.8823 101.103 63.1224 101.425 63.3706 101.747C64.3309 102.961 65.3884 104.127 65.9252 105.656C65.9468 105.72 65.9684 105.785 65.9873 105.849C66.4432 107.359 66.2381 109.269 65.1105 110.135C65.1168 110.14 65.1215 110.148 65.124 110.157C65.1402 110.183 65.1564 110.202 65.1699 110.228C65.1715 110.223 65.1715 110.217 65.1699 110.212C65.5697 110.778 66.1086 111.179 66.7102 111.358L66.9395 111.442C66.7534 111.683 66.5781 111.935 66.4 112.199L66.284 112.382C65.9867 112.859 65.7164 113.359 65.4747 113.879C65.3371 114.169 65.2049 114.459 65.0943 114.749C64.7246 115.632 64.4569 116.571 64.2985 117.54C64.0099 119.672 64.4172 121.893 63.9802 123.98C63.4407 126.555 61.7331 128.532 60.77 130.925C58.9464 135.432 59.9796 140.722 60.3465 145.7C60.8456 152.462 60.0363 159.252 59.2297 165.968C58.8016 169.54 58.3736 173.115 57.9456 176.693C56.8665 185.674 55.7874 194.655 54.7084 203.636C54.3145 206.927 53.8478 210.398 52.0107 212.938H52.0296C52.0296 212.938 52.0296 212.957 52.0107 212.964C52.5622 213.251 53.1487 213.432 53.748 213.498C56.1462 213.785 58.6874 212.4 60.8455 210.887C62.5546 209.708 64.1732 208.352 65.6824 206.833C65.4612 207.799 65.2238 208.852 64.9703 209.986C64.9711 209.996 64.9711 210.007 64.9703 210.018C61.9246 223.863 57.0257 249.244 57.0257 249.244C57.0257 249.244 56.5806 250.348 56.0033 251.994H132.077C131.187 250.706 130.359 249.473 129.711 248.478L129.45 248.03ZM73.1226 120.013C73.1414 119.974 73.1549 119.939 73.1738 119.903C73.1738 120.006 73.1738 120.106 73.1738 120.203C73.1738 120.299 73.1738 120.386 73.1738 120.477C73.1738 120.567 73.1738 120.557 73.1738 120.602C73.1738 120.602 73.1738 120.647 73.1738 120.602C73.1738 120.734 73.1495 120.866 73.1307 120.998C73.1307 120.998 73.1307 121.014 73.1307 121.027L73.4004 121.146L73.7133 121.301C75.5621 122.172 77.4343 122.961 79.3299 123.667C79.5241 123.741 79.721 123.812 79.9179 123.88L79.9584 124.279C80.007 124.688 80.0528 125.103 80.096 125.519C80.096 125.519 80.096 125.538 80.096 125.551C80.2174 126.7 80.3361 127.847 80.4413 128.967C80.4413 128.967 75.4884 126.713 75.5504 130.136C75.5476 130.197 75.5476 130.258 75.5504 130.319C75.545 130.401 75.545 130.483 75.5504 130.564C75.5963 133.23 76.295 134.811 76.4353 135.622C76.4269 135.656 76.4121 135.687 76.3921 135.712C76.2724 136.023 76.2312 136.369 76.2734 136.707C76.2687 137.283 76.3066 137.859 76.3867 138.427C76.241 138.533 76.0981 138.639 75.9551 138.749C75.8472 138.829 75.7447 138.919 75.6395 139.009C74.9777 136.27 74.1119 133.606 73.0524 131.05C72.3106 129.228 71.477 127.328 71.4851 125.329C71.4851 125.2 71.4851 125.068 71.4986 124.936C71.5286 124.356 71.6211 123.784 71.7737 123.233C71.8358 123.023 71.9032 122.817 71.9788 122.614C72.1551 122.132 72.3522 121.662 72.5695 121.204C72.7098 120.902 72.8582 120.602 73.0012 120.299C73.047 120.209 73.0902 120.116 73.1334 120.026L73.1226 120.013ZM194.247 49.6067C194.209 49.5294 194.182 49.4521 194.153 49.3813C194.153 49.3491 194.126 49.3233 194.115 49.2911C194.056 49.3242 193.996 49.3533 193.934 49.3781C193.815 49.4328 193.694 49.4843 193.57 49.5262C193.446 49.568 193.395 49.5906 193.3 49.6163L193.06 49.6904L193.082 49.7483C193.182 49.7226 193.279 49.7 193.378 49.6678L193.405 50.0671C193.519 50.0671 193.624 50.0478 193.726 50.0478H193.872C194.083 50.0478 194.266 50.0478 194.412 50.0478C194.355 49.9029 194.296 49.7515 194.247 49.6067Z" fill="url(#paint1_linear_3_27713)"/>
<path d="M135.303 96.8983L133.685 97.7515C133.685 97.7515 123.134 146.672 123.134 150.626C123.134 154.58 145.506 176.581 145.506 176.581L148.997 148.459C148.997 148.459 143.984 83.971 135.303 96.8983Z" fill="#E8F5FF"/>
<path d="M184.376 81.3373L175.029 75.516C174.505 72.8521 173.576 70.3256 172.288 68.0622C170.92 65.7054 169.102 63.3904 166.836 62.183C161.109 59.1178 191.061 43.0287 191.061 43.0287C191.533 44.9615 192.089 46.8637 192.726 48.7277C194.269 53.2739 196.829 59.1532 200.128 60.8275C205.736 63.677 184.376 81.3373 184.376 81.3373Z" fill="#FFC1C7"/>
<path opacity="0.1" d="M192.726 48.7277C191.446 54.0998 188.784 58.8563 185.117 62.3256C181.45 65.7949 176.962 67.8015 172.288 68.0622C170.92 65.7054 169.102 63.3904 166.836 62.183C161.109 59.1178 191.061 43.0287 191.061 43.0287C191.533 44.9615 192.089 46.8637 192.726 48.7277Z" fill="black"/>
<path d="M193.567 40.6042C193.568 45.8729 192.26 51.0237 189.808 55.405C187.357 59.7864 183.871 63.2015 179.793 65.2185C175.715 67.2355 171.228 67.7637 166.898 66.7364C162.568 65.7091 158.591 63.1723 155.47 59.447C152.348 55.7217 150.222 50.9751 149.361 45.8077C148.5 40.6402 148.942 35.284 150.631 30.4164C152.32 25.5488 155.181 21.3885 158.852 18.4617C162.523 15.5349 166.838 13.9731 171.252 13.9737C174.186 13.9575 177.094 14.6352 179.807 15.9678C182.521 17.3003 184.986 19.2612 187.061 21.7373C189.135 24.2134 190.779 27.1555 191.895 30.3938C193.012 33.6321 193.58 37.1024 193.567 40.6042Z" fill="#FFC1C7"/>
<path d="M196.788 77.9179L190.702 94.8667L185.334 106.116H168.15L163.138 90.7357L165.169 74.7851H178.293L186.766 74.2152L189.629 73.0754L191.474 74.3247L196.788 77.9179Z" fill="#575A89"/>
<path opacity="0.1" d="M194.692 55.3249C194.692 55.3249 198.488 56.2909 195.089 59.6169C191.69 62.9429 179.963 73.5197 179.963 73.5197C179.963 73.5197 184.082 77.8986 183.23 83.0276L196.877 73.9479L199.305 59.4204C199.305 59.4204 199.578 55.0545 194.692 55.3249Z" fill="black"/>
<path opacity="0.1" d="M182.647 73.5197L173.966 75.2294C173.966 75.2294 175.757 83.1339 174.862 85.378C174.835 85.4478 174.812 85.5199 174.794 85.5938L171.252 97.0207L173.907 105.994L183.095 91.0384L179.963 85.378C179.963 85.378 183.273 80.1427 185.242 78.3268C187.211 76.5109 182.647 73.5197 182.647 73.5197Z" fill="black"/>
<path d="M182.647 73.0786L173.966 74.7851C173.966 74.7851 175.757 82.6896 174.862 84.9337C174.835 85.0035 174.812 85.0756 174.794 85.1495L171.252 96.5763L173.907 105.55L183.095 90.5844L179.963 84.9241C179.963 84.9241 183.273 79.6888 185.242 77.8728C187.211 76.0569 182.647 73.0786 182.647 73.0786Z" fill="#DCE6F2"/>
<path d="M195.056 54.4717C195.056 54.4717 198.852 55.4376 195.45 58.7636C192.048 62.0896 179.963 73.5197 179.963 73.5197C179.963 73.5197 184.438 77.0453 183.589 82.1712L197.236 73.0947L199.664 58.5672C199.664 58.5672 199.934 54.2012 195.056 54.4717Z" fill="#575A89"/>
<path opacity="0.1" d="M172.884 69.07C172.884 69.07 173.712 70.9182 177.368 74.2506C177.368 74.2506 171.282 78.1143 173.61 83.546L164.3 80.6483L162.868 75.3067L172.884 69.07Z" fill="black"/>
<path d="M172.526 68.645C172.526 68.645 173.354 70.4932 177.009 73.8256C177.009 73.8256 170.923 77.67 173.251 83.1178L163.944 80.22L162.512 74.8817L172.526 68.645Z" fill="#575A89"/>
<path opacity="0.1" d="M196.788 77.9179L190.702 94.8666L185.345 106.116H168.15L163.138 90.7357L165.166 74.7851H168.816C168.757 78.5071 169.895 82.8795 169.822 84.5055C169.698 87.1779 173.162 101.596 173.162 101.596C173.162 101.596 180.411 87.6029 183.273 86.3569C185.072 85.5745 188.884 79.0641 191.471 74.3247L196.788 77.9179Z" fill="black"/>
<path d="M220.762 167.108L220.144 168.035C220.144 168.035 224.62 194.846 223.382 200.935C223.171 202.032 223.051 203.152 223.023 204.277V204.325C222.804 210.52 224.372 218.56 224.372 218.56C224.372 218.56 225.623 242.257 224.911 252.003H141.117C140.626 237.592 140.097 218.92 140.577 216.85C141.387 213.434 143.005 201.041 143.005 201.041L143.183 195.168C143.183 195.168 143.183 189.492 143.329 183.168C143.391 180.325 143.483 177.34 143.615 174.694C143.785 171.365 144.022 168.56 144.349 167.182C144.55 166.138 144.665 165.072 144.694 164.001C144.694 163.901 144.694 163.798 144.71 163.695C144.71 163.373 144.737 163.025 144.748 162.668C144.748 162.568 144.748 162.468 144.748 162.346C144.799 160.273 144.78 157.813 144.724 155.263C144.724 155.124 144.724 154.983 144.724 154.841C144.678 152.928 144.61 150.977 144.535 149.123C144.3 143.327 143.995 138.427 143.995 138.427L133.704 97.729L136.477 89.5766L144.173 83.9485L158.403 73.6936C165.344 66.8838 169.914 67.7016 171.657 68.4486C171.826 68.5175 171.992 68.5982 172.153 68.6901C172.207 68.7223 172.25 68.7481 172.291 68.777C172.346 68.8084 172.399 68.845 172.45 68.8865C171.973 69.1605 171.558 69.5681 171.241 70.0746C170.885 70.651 170.63 71.3084 170.494 72.0064C170.403 72.4391 170.339 72.8793 170.303 73.3233C170.268 73.7902 170.254 74.2731 170.254 74.7593C170.273 75.8255 170.35 76.8892 170.483 77.9437C170.483 77.963 170.483 77.9887 170.483 78.0145C170.572 78.7679 170.683 79.5052 170.791 80.1975C170.79 80.2092 170.79 80.2211 170.791 80.2329C170.915 81.0411 171.039 81.788 171.123 82.432C171.139 82.5479 171.152 82.6541 171.166 82.754C171.225 83.1795 171.253 83.6105 171.25 84.0419C171.28 85.0835 171.397 86.119 171.6 87.1328C171.67 87.5578 171.751 88.0118 171.84 88.4851C171.962 89.1291 172.094 89.831 172.237 90.5457C172.315 90.9386 172.399 91.3442 172.485 91.7467C172.517 91.9077 172.552 92.0687 172.585 92.2329L172.639 92.4873C173.213 95.2144 173.837 97.9286 174.22 99.5707C174.446 100.537 174.589 101.132 174.589 101.132C174.589 101.132 178.652 93.2922 181.894 88.8296C181.943 88.7652 181.986 88.7041 182.032 88.6461C182.353 88.205 182.669 87.8025 182.971 87.4484C183.632 86.6627 184.225 86.1025 184.703 85.8964C184.804 85.8519 184.903 85.7969 184.997 85.7322C186.324 84.8339 188.466 81.5723 190.47 78.1562C190.667 77.8342 190.859 77.4832 191.053 77.1516C191.498 76.3853 191.93 75.6158 192.337 74.8785C192.65 74.315 192.949 73.7676 193.233 73.246C194.582 70.7411 195.531 68.8736 195.531 68.8736L197.403 68.7738L197.73 68.7545H197.948L206.448 68.2844C206.448 68.2844 206.815 68.3585 207.42 68.5034C207.452 68.5034 207.484 68.5034 207.519 68.5291C210.535 69.2439 218.914 71.5074 219.427 74.6466C220.053 78.491 233.568 83.6201 233.568 83.6201C233.746 86.1959 237.056 87.8927 237.056 87.8927C237.056 87.8927 242.068 103.702 240.728 109.896C239.403 116.014 244.175 131.147 244.302 131.572L243.387 132.95L220.762 167.108Z" fill="#E8F5FF"/>
<path opacity="0.1" d="M194.689 54.2012C194.689 54.2012 202.963 51.4001 204.843 57.1666C206.724 62.9332 210.929 86.2216 210.929 86.2216C210.929 86.2216 200.009 88.6783 197.147 86.2216C195.468 84.7636 193.39 84.1151 191.328 84.4057L185.153 89.4253L183.33 88.7813C183.33 88.7813 193.208 71.253 195.356 65.2965C197.503 59.3399 198.229 56.6772 194.689 54.2012Z" fill="black"/>
<path d="M194.331 52.9133C194.331 52.9133 202.61 50.1122 204.498 55.8787C206.387 61.6453 210.584 84.9337 210.584 84.9337C210.584 84.9337 199.667 87.3904 196.802 84.9337C195.124 83.4756 193.047 82.8271 190.986 83.1178L184.805 88.1374L182.982 87.4934C182.982 87.4934 192.86 69.9651 195.008 64.0086C197.155 58.052 197.87 55.3958 194.331 52.9133Z" fill="#E8F5FF"/>
<path opacity="0.1" d="M138.794 145.819C138.794 145.819 144.969 147.635 146.135 151.801C147.3 155.968 141.57 156.074 141.57 156.074C141.57 156.074 138.079 148.704 138.794 145.819Z" fill="black"/>
<path opacity="0.1" d="M161.794 176.581C161.794 176.581 146.671 213.54 150.162 217.066C153.653 220.591 161.794 176.581 161.794 176.581Z" fill="black"/>
<path opacity="0.1" d="M182.647 149.345C182.647 149.345 194.73 185.245 192.313 190.789C189.896 196.334 197.503 190.789 197.503 190.789L182.647 149.345Z" fill="black"/>
<path d="M199.473 184.807C199.473 184.807 158.662 187.158 170.567 202.326C182.472 217.494 206.902 202.97 206.902 202.97L199.473 184.807Z" fill="#FFC1C7"/>
<path opacity="0.1" d="M193.567 40.6042C193.571 44.0977 192.996 47.5576 191.876 50.7851C191.501 50.8366 191.126 50.8688 190.764 50.8881C190.225 49.4747 190.514 47.8422 190.524 46.2871C190.535 44.732 190.055 42.9031 188.801 42.4846C186.3 41.6442 184.573 47.224 182.108 46.2163C180.219 45.45 180.713 42.0306 179.626 40.0569C178.765 38.4953 177.041 38.0542 175.701 37.0754C172.849 34.9858 172.936 31.6437 171.611 28.4819C170.225 25.1688 167.295 26.1476 164.751 28.102C162.819 29.5895 161.152 31.5825 159.086 32.7674C157.297 33.7977 155.288 34.1712 153.305 34.2259C152.084 34.2824 150.863 34.1284 149.679 33.7687C151.072 27.5204 154.321 22.09 158.82 18.49C163.32 14.89 168.763 13.3662 174.135 14.2029C179.507 15.0395 184.44 18.1795 188.015 23.0372C191.59 27.8949 193.562 34.1387 193.565 40.6042H193.567Z" fill="black"/>
<path d="M164.759 27.2487C162.825 28.7362 161.16 30.726 159.094 31.9174C157.305 32.9445 155.296 33.3179 153.313 33.3727C150.885 33.4371 148.271 32.9284 146.612 30.8355C145.088 28.9037 144.723 25.9318 145.368 23.3979C146.013 20.864 147.559 18.7615 149.374 17.2385C151.19 15.7156 153.297 14.6627 154.5 12.483C155.136 11.3303 155.444 9.97156 155.973 8.74483C157.664 4.81996 161.468 2.69493 165.145 2.43091C168.822 2.16689 172.466 3.47411 175.968 4.8908C179.469 6.30748 182.998 7.86584 186.694 8.15884C188.339 8.28119 190.049 8.15884 191.576 8.9026C193.629 9.8975 194.975 12.2769 195.893 14.6981C196.92 17.4285 197.56 20.41 197.452 23.3915C197.225 29.7569 193.702 36.0032 195.25 42.1014C195.661 43.7274 196.429 45.3952 196.019 47.0212C195.42 49.3941 192.855 49.9351 190.78 50.0478C190.241 48.6343 190.53 46.9987 190.54 45.4467C190.551 43.8948 190.071 42.0628 188.819 41.6442C186.316 40.8103 184.589 46.3805 182.129 45.3759C180.254 44.6064 180.74 41.1902 179.65 39.2165C178.789 37.6517 177.063 37.2138 175.725 36.235C172.873 34.1454 172.96 30.8033 171.635 27.6415C170.238 24.3123 167.306 25.2911 164.759 27.2487Z" fill="#99607E"/>
<path d="M125.187 149.77L123.129 150.626C123.129 150.626 123.938 165.154 121.24 169.32C118.543 173.486 130.1 183.844 130.1 183.844C130.1 183.844 145.94 183.738 146.388 182.235C146.836 180.731 145.579 155.317 145.579 155.317C145.579 155.317 137.076 151.364 137.791 145.063C137.791 145.063 135.195 159.909 131.349 159.268C127.502 158.627 123.134 154.793 125.187 149.77Z" fill="#E8F5FF"/>
<path opacity="0.1" d="M132.053 163.763C135.052 163.763 137.483 161.109 137.483 157.835C137.483 154.562 135.052 151.908 132.053 151.908C129.054 151.908 126.622 154.562 126.622 157.835C126.622 161.109 129.054 163.763 132.053 163.763Z" fill="black"/>
<path d="M137.99 150.198C137.99 150.198 136.911 110.891 127.518 119.649C118.125 128.407 118.033 138.881 119.822 141.975C121.61 145.069 127.345 160.559 127.345 160.559C128.242 161.18 129.25 161.538 130.285 161.604C131.321 161.67 132.355 161.443 133.302 160.94C134.25 160.437 135.084 159.674 135.737 158.712C136.389 157.751 136.842 156.618 137.057 155.408L137.99 150.198Z" fill="#FFC1C7"/>
<path opacity="0.1" d="M196.586 50.6338C196.542 50.4611 196.458 50.3069 196.343 50.1894C195.879 49.6839 194.881 49.5068 193.376 49.6614L193.438 50.5114C195.445 50.3053 195.841 50.7819 195.893 50.8624V50.9429L195.955 51.0491C196.205 51.4505 196.382 51.9099 196.475 52.3978C196.568 52.8857 196.575 53.3914 196.494 53.8825C196.055 56.5066 193.354 58.5962 193.327 58.6187L193.262 58.6638L193.222 58.7379C192.057 60.8017 185.466 66.6262 183.742 68.1331L183.591 67.927C182.82 68.7255 176.038 75.8122 175.671 78.5264C175.434 80.2297 173.826 80.8897 173.243 81.0732C172.628 80.5162 170.632 78.6198 169.593 76.4948C168.619 74.4953 172.539 70.593 172.884 69.07L172.345 68.41C172.288 68.6547 167.254 74.2699 168.654 77.1387C169.777 79.4408 171.827 81.4113 172.544 82.0617C172.315 84.5474 170.888 99.1425 168.695 102.6C165.97 106.899 163.68 128.561 163.934 136.125C164.157 142.844 162.687 155.536 157.778 160.987C156.928 161.972 155.902 162.716 154.778 163.162C153.653 163.608 152.459 163.745 151.284 163.563H151.225H151.166C151.095 163.563 143.974 164.433 137.99 158.412C133.094 153.495 130.321 145.471 129.744 134.556H129.625L129.576 131.379C130.904 131.131 132.099 130.279 132.912 129.002C133.724 127.725 134.09 126.121 133.933 124.529C133.775 122.936 133.107 121.478 132.068 120.462C131.029 119.445 129.7 118.948 128.361 119.076C127.021 119.205 125.776 119.947 124.886 121.149C123.995 122.35 123.53 123.916 123.587 125.518C123.644 127.121 124.22 128.634 125.192 129.741C126.164 130.847 127.458 131.461 128.802 131.453H128.861L128.91 134.611L128.673 134.631C129.266 145.9 132.18 154.236 137.305 159.384C141.201 163.237 146.177 165.181 151.228 164.822C151.586 164.869 151.946 164.893 152.307 164.893C154.622 164.907 156.849 163.838 158.511 161.915C163.683 156.167 165.255 143.008 165.01 136.06C164.74 128.046 167.144 107.163 169.555 103.36C171.919 99.6287 173.351 85.0883 173.602 82.271C174.457 81.9844 176.391 81.0797 176.72 78.7293C176.958 77.0292 181.487 71.7907 184.274 68.8897L184.19 68.7738C185.69 67.4666 190.354 63.3453 192.666 60.6987C193.384 59.8776 194.096 59.0566 194.841 58.2742C195.736 57.3276 196.875 55.824 197.174 54.0467C197.276 53.46 197.277 52.8546 197.175 52.2677C197.074 51.6808 196.874 51.1247 196.586 50.6338Z" fill="black"/>
<path d="M172.453 81.8589C172.34 81.7655 169.653 79.4698 168.307 76.7073C166.909 73.8385 171.943 68.2265 171.997 67.9818L172.536 68.6418C172.194 70.1615 168.274 74.0671 169.248 76.0633C170.475 78.5844 173.06 80.7899 173.087 80.8124L172.453 81.8589Z" fill="#353146"/>
<path d="M183.392 68.7577L182.971 68.0655C183.057 67.9914 191.531 60.6761 192.866 58.3096L192.909 58.2388L192.971 58.1905C192.998 58.168 195.698 56.0816 196.138 53.4542C196.219 52.9637 196.213 52.4583 196.12 51.9708C196.027 51.4833 195.85 51.0245 195.599 50.6241L195.537 50.5146V50.4373C195.483 50.3536 195.086 49.8803 193.079 50.0864L193.017 49.2332C194.525 49.0786 195.52 49.2557 195.984 49.7612C196.1 49.8798 196.185 50.035 196.23 50.2087C196.522 50.6983 196.726 51.254 196.831 51.8415C196.936 52.429 196.939 53.036 196.84 53.6249C196.54 55.4054 195.404 56.909 194.506 57.8524C193.764 58.6348 193.049 59.4623 192.334 60.2769C189.623 63.3775 183.689 68.5034 183.392 68.7577Z" fill="#E8F5FF"/>
<path d="M129.228 130.258L128.513 130.273L128.593 135.459L129.308 135.444L129.228 130.258Z" fill="#E8F5FF"/>
<path d="M128.454 131.044C131.337 131.044 133.674 128.254 133.674 124.814C133.674 121.373 131.337 118.583 128.454 118.583C125.571 118.583 123.234 121.373 123.234 124.814C123.234 128.254 125.571 131.044 128.454 131.044Z" fill="#36F5D3"/>
<path d="M128.454 129.988C130.848 129.988 132.789 127.671 132.789 124.814C132.789 121.956 130.848 119.639 128.454 119.639C126.06 119.639 124.119 121.956 124.119 124.814C124.119 127.671 126.06 129.988 128.454 129.988Z" fill="#E8F5FF"/>
<path d="M151.967 164.478C151.606 164.478 151.246 164.456 150.888 164.41C145.838 164.765 140.862 162.822 136.965 158.972C131.84 153.82 128.932 145.494 128.333 134.215L129.412 134.135C129.989 145.05 132.762 153.076 137.661 157.99C143.645 163.995 150.764 163.141 150.834 163.141H150.893H150.953C152.128 163.322 153.322 163.185 154.447 162.739C155.572 162.293 156.598 161.55 157.449 160.566C162.356 155.115 163.826 142.422 163.602 135.703C163.332 128.133 165.622 106.471 168.35 102.175C170.737 98.4116 172.218 81.4467 172.234 81.2761L172.275 80.7931L172.674 80.7094C172.698 80.7094 175.029 80.1814 175.32 78.1014C175.698 75.3904 182.469 68.3037 183.238 67.502L183.942 68.4679C181.145 71.3657 176.615 76.6075 176.389 78.3107C176.06 80.6676 174.125 81.5691 173.273 81.8524C173.003 84.6729 171.582 99.2101 169.226 102.942C166.815 106.744 164.411 127.628 164.681 135.642C164.913 142.59 163.356 155.752 158.185 161.496C156.52 163.424 154.287 164.495 151.967 164.478Z" fill="#353146"/>
<g opacity="0.1">
<path d="M195.866 32.9928C196.308 31.0416 196.842 29.0775 197.215 27.1006C196.769 29.0872 196.233 31.0416 195.866 32.9928Z" fill="black"/>
<path d="M191.353 48.3252C190.813 46.9117 191.102 45.2761 191.112 43.7242C191.123 42.1723 190.643 40.3563 189.391 39.9217C186.888 39.0877 185.161 44.6611 182.701 43.6533C180.813 42.8838 181.312 39.4677 180.222 37.494C179.362 35.9292 177.638 35.4913 176.3 34.5125C173.446 32.4229 173.532 29.0808 172.21 25.919C170.821 22.6026 167.894 23.5814 165.347 25.539C163.413 27.0266 161.749 29.0196 159.682 30.2077C157.894 31.2348 155.884 31.6083 153.901 31.663C151.487 31.7306 148.859 31.2187 147.2 29.1258C145.921 27.516 145.46 25.1559 145.725 22.9439C145.679 23.0953 145.638 23.2466 145.598 23.3979C144.95 25.9319 145.328 28.9101 146.841 30.8355C148.5 32.9284 151.128 33.4371 153.542 33.3727C155.528 33.318 157.535 32.9445 159.326 31.9174C161.398 30.7261 163.062 28.7362 164.991 27.2487C167.538 25.2911 170.467 24.3123 171.854 27.6287C173.176 30.7905 173.092 34.1325 175.944 36.2222C177.292 37.1881 179.005 37.6389 179.869 39.2037C180.948 41.1838 180.47 44.5935 182.348 45.363C184.805 46.3676 186.532 40.7974 189.035 41.6313C190.287 42.0499 190.77 43.8852 190.756 45.4339C190.743 46.9826 190.462 48.6214 190.996 50.0349C193.071 49.9222 195.636 49.3909 196.238 47.0083C196.321 46.6664 196.359 46.3113 196.351 45.9555C195.475 47.7617 193.219 48.2254 191.353 48.3252Z" fill="black"/>
</g>
<path opacity="0.1" d="M240.107 127.66L243.239 131.614C243.239 131.614 245.745 153.402 246.997 155.44C248.249 157.478 251.205 165.585 248.429 171.674C248.429 171.674 247.534 174.987 248.071 176.375C248.607 177.762 244.046 184.707 244.046 184.707C244.046 184.707 238.049 191.115 236.794 192.077C235.54 193.04 228.92 200.729 226.684 200.835C224.447 200.941 223.716 204.254 223.716 204.254L211.096 204.789C211.096 204.789 204.126 204.354 202.61 205.529C202.61 205.529 203.419 192.818 195.631 184.485L205.564 180.213C205.564 180.213 209.324 178.281 210.487 176.262C211.218 175.024 212.256 174.091 213.454 173.593C213.454 173.593 216.227 171.242 216.316 169.961C216.405 168.679 219.707 167.108 219.707 167.108L217.838 148.063L218.823 116.445C218.823 116.445 221.955 89.9533 228.577 91.4505C235.2 92.9477 240.107 127.66 240.107 127.66Z" fill="black"/>
<path d="M241.186 127.66L244.318 131.614C244.318 131.614 246.824 153.402 248.076 155.44C249.328 157.478 252.284 165.585 249.508 171.674C249.508 171.674 248.615 174.987 249.152 176.375C249.689 177.762 245.125 184.707 245.125 184.707C245.125 184.707 239.128 191.115 237.873 192.077C236.619 193.04 229.999 200.729 227.763 200.835C225.526 200.941 224.795 204.254 224.795 204.254L212.176 204.789C212.176 204.789 205.199 204.354 203.689 205.529C203.689 205.529 204.498 192.818 196.71 184.485L206.643 180.213C206.643 180.213 210.403 178.281 211.566 176.262C212.297 175.024 213.335 174.091 214.533 173.593C214.533 173.593 217.307 171.242 217.396 169.961C217.485 168.679 220.786 167.108 220.786 167.108L218.917 148.063L219.902 116.445C219.902 116.445 223.034 89.9533 229.656 91.4505C236.279 92.9477 241.186 127.66 241.186 127.66Z" fill="#E8F5FF"/>
<path opacity="0.1" d="M229.543 159.6C229.543 159.6 238.761 156.702 241.178 160.244C243.595 163.785 229.543 159.6 229.543 159.6Z" fill="black"/>
<path opacity="0.1" d="M227.396 164.458C230.528 167.076 240.193 167.182 240.193 167.182L227.396 164.458Z" fill="black"/>
<path opacity="0.1" d="M232.138 177.543C232.408 177.65 238.782 185.77 241.459 183.313C244.135 180.856 232.138 177.543 232.138 177.543Z" fill="black"/>
<path opacity="0.1" d="M146.288 109.394C146.288 109.394 148.161 124.778 147.238 131.044C146.315 137.309 149.682 145.072 149.682 145.072L146.288 109.394Z" fill="black"/>
<path d="M104.841 115.65C102.683 117.669 101.108 122.447 99.9668 127.698C97.9759 136.859 97.3258 147.481 97.3258 147.481C97.3258 147.481 80.1417 142.78 81.3934 140.645C82.1811 139.302 81.1237 129.186 80.2415 121.851C79.7155 117.518 79.2461 114.153 79.2461 114.153C79.2461 114.153 110.749 110.093 104.841 115.65Z" fill="#FFCCD0"/>
<path opacity="0.1" d="M104.841 115.222C102.683 117.244 101.108 122.019 99.9668 127.27C96.543 128.511 92.9018 128.623 89.4291 127.594C85.9564 126.565 82.7817 124.434 80.2415 121.426C79.7155 117.089 79.2461 113.725 79.2461 113.725C79.2461 113.725 110.749 109.668 104.841 115.222Z" fill="black"/>
<path d="M114.078 103.715C114.08 109.315 112.422 114.735 109.397 119.016C106.372 123.298 102.176 126.164 97.5514 127.107C92.9264 128.051 88.1708 127.011 84.1263 124.173C80.0817 121.334 77.009 116.879 75.452 111.596C73.895 106.313 73.954 100.543 75.6186 95.3072C77.2832 90.0714 80.4461 85.7071 84.5474 82.9869C88.6488 80.2668 93.4242 79.3661 98.0286 80.4442C102.633 81.5223 106.769 84.5098 109.705 88.8779C112.535 93.0856 114.077 98.3192 114.078 103.715Z" fill="#FFCCD0"/>
<path opacity="0.1" d="M129.746 252.003H124.081L123.604 240.061L123.105 227.701C123.105 227.701 124.392 227.472 126.442 227.131L127.27 226.999H127.337C127.785 229.507 128.228 232.083 128.654 234.655C129.363 239.222 129.732 243.855 129.757 248.5C129.757 248.822 129.757 249.144 129.757 249.447C129.773 250.306 129.757 251.166 129.746 252.003Z" fill="black"/>
<path d="M128.659 252.003H57.6138C57.9213 251.169 58.1263 250.664 58.1263 250.664C58.1263 250.664 63.8103 220.984 66.6995 208.427C66.7003 208.416 66.7003 208.406 66.6995 208.395C67.0604 206.689 67.4963 205.007 68.0051 203.356C68.038 203.244 68.0805 203.136 68.1319 203.034C69.5617 200.259 71.3529 197.268 68.8468 192.995C66.3407 188.722 67.2282 169.922 67.2282 169.922C67.2282 169.922 70.2711 153.898 73.4921 145.352C73.981 144.029 74.6747 142.827 75.537 141.811C75.8173 141.483 76.1166 141.18 76.4326 140.903C76.6728 140.687 76.9232 140.488 77.1825 140.307L77.2338 140.268C78.5869 139.353 80.0894 138.796 81.6391 138.636C82.7398 138.499 83.851 138.535 84.9437 138.745C90.1663 139.66 94.3477 141.189 97.6712 142.931C106.679 147.654 109.406 153.984 109.46 154.116L109.482 154.171C109.843 155.179 115.13 169.913 117.035 176.787C117.529 178.577 117.798 179.836 117.69 180.18C117.151 181.887 121.807 203.25 121.807 203.25C121.807 203.25 123.965 213.553 126.123 225.63C126.218 226.133 126.307 226.635 126.393 227.144C126.779 229.336 127.162 231.571 127.531 233.802C128.248 238.4 128.617 243.066 128.635 247.743C128.674 249.201 128.682 250.621 128.659 252.003Z" fill="#FF748E"/>
<path opacity="0.1" d="M81.2154 131.288C81.2154 131.288 76.3137 129.035 76.3731 132.454C76.4324 135.873 77.5682 137.509 77.2094 138.008C76.8506 138.507 77.3874 141.498 77.3874 141.498C77.3874 141.498 84.0102 141.498 87.0531 143.134C90.0961 144.77 101.313 148.047 102.745 149.045C104.178 150.043 109.489 154.519 109.489 154.519L109.967 146.045C109.967 146.045 104.477 140.632 95.4698 137.857C86.4623 135.081 81.2154 131.288 81.2154 131.288Z" fill="black"/>
<path d="M81.2154 130.86C81.2154 130.86 76.3137 128.606 76.3731 132.026C76.4324 135.445 77.5682 137.081 77.2094 137.58C76.8506 138.079 77.3874 141.07 77.3874 141.07C77.3874 141.07 84.0102 141.07 87.0531 142.709C90.0961 144.348 101.313 147.622 102.745 148.617C104.178 149.612 109.489 154.091 109.489 154.091L109.972 145.642C109.972 145.642 104.483 140.23 95.4752 137.454C86.4677 134.679 81.2154 130.86 81.2154 130.86Z" fill="#FF748E"/>
<path opacity="0.1" d="M96.0122 151.254C96.0122 151.254 105.378 163.357 104.901 166.709C104.423 170.061 96.0122 151.254 96.0122 151.254Z" fill="black"/>
<path opacity="0.1" d="M80.7974 194.975C80.7974 194.975 73.9319 202.525 71.9086 202.954C69.8854 203.382 73.4598 204.805 75.7852 203.668C78.1105 202.532 83.0688 199.541 83.0688 199.541L80.7974 194.975Z" fill="black"/>
<path d="M131.448 252.003H115.438C113.199 249.685 111.081 247.537 109.732 246.246C107.574 244.179 106.018 241.137 105.025 238.69C104.801 238.133 104.607 237.611 104.442 237.138C104.148 236.322 103.888 235.489 103.665 234.642L115.521 226.239C116.177 226.904 116.792 227.623 117.364 228.39L117.507 228.586C118.165 229.513 118.745 230.566 118.796 231.429C118.856 232.434 121.197 236.32 123.59 240.052C126.018 243.848 128.505 247.476 128.67 247.721C128.67 247.721 129.08 248.387 129.749 249.411C130.221 250.152 130.804 251.041 131.448 252.003Z" fill="#FFCCD0"/>
<path opacity="0.1" d="M109.705 88.8779C109.136 90.4105 108.626 92.0011 108.551 93.7075C108.338 98.6338 108.683 109.649 104.113 112.121C101.85 113.338 99.4274 110.666 96.9456 110.602C95.1597 110.556 93.5223 111.909 92.4324 113.599C91.3426 115.29 90.6654 117.295 89.875 119.208C89.1555 120.944 88.3268 122.612 87.3959 124.199C87.1176 124.684 86.8112 125.146 86.4787 125.58C83.6922 124.176 81.2108 122.032 79.2237 119.311C77.2366 116.59 75.7962 113.363 75.0122 109.877C74.2282 106.39 74.1214 102.736 74.6998 99.1932C75.2782 95.65 76.5266 92.3112 78.3499 89.4312C80.1732 86.5511 82.5232 84.2058 85.2209 82.5739C87.9187 80.9421 90.8929 80.0668 93.917 80.0146C96.9411 79.9625 99.9353 80.735 102.671 82.2732C105.407 83.8114 107.813 86.0748 109.705 88.8908V88.8779Z" fill="black"/>
<path d="M108.192 92.8382C107.976 97.7644 108.324 108.779 103.752 111.249C101.488 112.466 99.0658 109.797 96.584 109.732C94.7981 109.684 93.1634 111.039 92.0708 112.727C90.9783 114.414 90.3066 116.423 89.5135 118.339C88.7937 120.074 87.965 121.743 87.0343 123.329C86.4786 124.269 85.8635 125.213 85.0084 125.741C83.5193 126.668 81.7145 126.147 80.1175 125.551C78.0457 124.772 76.0045 123.894 73.9939 122.917C74.04 122.555 74.0634 122.189 74.064 121.822C74.0047 121.958 73.9399 122.083 73.8752 122.218L73.7484 122.482C73.5191 122.965 73.2952 123.448 73.0902 123.944C73.0119 124.134 72.9364 124.331 72.8689 124.527C72.5976 125.258 72.4273 126.036 72.3645 126.832C72.2269 128.98 73.1144 131.018 73.9021 132.95C76.9316 140.423 78.8038 149.161 76.5243 157.001C75.5369 160.411 73.8266 163.441 72.5776 166.735C70.3942 172.568 69.7515 179.058 70.7351 185.338C71.3583 189.241 72.6073 193.104 72.2997 197.061C71.7602 203.871 66.8397 208.939 61.9111 212.423C59.2485 214.297 55.9897 215.965 53.1626 214.483C54.9646 211.972 55.4286 208.498 55.8171 205.22C56.88 196.28 57.9455 187.336 59.0138 178.387C59.44 174.826 59.8654 171.265 60.2898 167.704C61.0829 161.013 61.8868 154.248 61.3904 147.516C61.029 142.554 60.0092 137.287 61.8113 132.795C62.7635 130.416 64.4604 128.445 64.9891 125.882C65.4234 123.799 65.0188 121.584 65.3047 119.462C65.4612 118.497 65.7262 117.561 66.0924 116.68C66.5588 115.485 67.1676 114.377 67.8999 113.39C67.1769 113.139 66.5025 112.794 66.0924 112.073C67.2524 111.171 67.4278 109.14 66.9017 107.614C66.3757 106.087 65.3236 104.925 64.3767 103.721C63.4299 102.517 62.5181 101.113 62.3994 99.4709C62.1701 96.3445 64.7868 93.9233 65.2481 90.8388C65.7148 87.6995 63.8696 84.6472 64.0179 81.4693C64.1906 77.6281 67.1472 74.8366 70.0661 73.2171C74.4708 70.7834 79.3364 69.7837 84.1694 70.3193C88.1026 70.7636 91.909 72.2157 95.8313 72.7792C98.1972 73.1012 100.595 73.1334 102.945 73.6292C105.295 74.125 107.65 75.1715 109.303 77.2289C113.663 82.6541 108.44 87.1199 108.192 92.8382Z" fill="#FFE0D0"/>
<path opacity="0.1" d="M104.545 238.693C103.169 237.981 100.666 238.406 96.3682 236.845C92.0708 235.283 91.2426 228.225 91.2426 228.225V228.203C91.1914 228.042 90.7921 226.992 88.0891 223.315C85.1028 219.255 78.6473 198.749 78.6473 198.749C78.6473 198.749 72.9229 191.411 73.1036 188.706C73.2844 186.002 72.0866 178.805 72.2053 170.756C72.324 162.707 85.092 157.368 85.092 157.368C109.676 152.168 103.887 185.995 103.231 188.558C102.575 191.121 105.977 198.043 105.977 198.043C105.497 201.057 107.946 205.723 107.946 205.723C107.946 205.723 108.54 209.85 108.661 211.418C108.668 211.491 108.682 211.562 108.702 211.631C109.096 213.109 112.306 214.448 113.612 215.263C114.985 216.119 119.401 223.595 119.401 223.595C120.353 229.085 105.915 239.414 104.545 238.693Z" fill="black"/>
<path d="M105.26 237.405C103.887 236.69 101.38 237.118 97.0857 235.554C92.7911 233.989 91.9602 226.937 91.9602 226.937V226.915C91.9116 226.751 91.5097 225.704 88.8067 222.027C85.8204 217.967 79.3649 197.457 79.3649 197.457C79.3649 197.457 73.6404 190.123 73.8185 187.418C73.9965 184.714 72.8042 177.518 72.9229 169.475C73.0416 161.432 85.8015 156.097 85.8015 156.097C110.385 150.897 104.596 184.723 103.94 187.286C103.285 189.849 106.687 196.772 106.687 196.772C106.207 199.785 108.656 204.451 108.656 204.451C108.656 204.451 109.249 208.578 109.374 210.146C109.378 210.219 109.391 210.291 109.411 210.359C109.805 211.837 113.015 213.176 114.324 213.991C115.694 214.844 120.113 222.324 120.113 222.324C121.071 227.804 106.633 238.133 105.26 237.405Z" fill="#FF748E"/>
<path opacity="0.1" d="M86.2871 173.757C86.2871 173.757 97.0265 187.28 99.8293 187.28C102.632 187.28 86.2871 173.757 86.2871 173.757Z" fill="black"/>
<path d="M105.26 237.405C103.887 236.69 101.38 237.118 97.0857 235.554C92.7911 233.989 91.9602 226.937 91.9602 226.937V226.915C94.8062 224.661 102.014 218.296 104.855 215.968C106.854 214.335 108.486 211.937 109.441 210.346C109.835 211.824 113.045 213.163 114.353 213.978C115.724 214.831 120.143 222.311 120.143 222.311C121.071 227.804 106.633 238.133 105.26 237.405Z" fill="#FF748E"/>
<g opacity="0.1">
<path d="M66.1086 112.108C66.1221 112.134 66.141 112.157 66.1572 112.182C66.2381 112.06 66.3218 111.938 66.4081 111.822C66.3161 111.929 66.2159 112.024 66.1086 112.108Z" fill="black"/>
<path d="M72.3672 126.868C72.4805 125.081 73.2817 123.506 74.0316 121.935C73.5407 121.71 73.0497 121.481 72.5641 121.243C72.6104 120.882 72.6338 120.517 72.6342 120.151C71.8762 121.761 71.0507 123.345 70.9347 125.158C70.7971 127.309 71.6847 129.344 72.4724 131.276C75.5045 138.745 77.374 147.484 75.0945 155.327C74.1045 158.734 72.3969 161.767 71.1478 165.06C68.9653 170.893 68.3235 177.382 69.308 183.661C69.9258 187.566 71.1775 191.427 70.87 195.384C70.3305 202.194 65.4126 207.262 60.4813 210.742C58.4662 212.165 56.1111 213.469 53.8586 213.376C53.6501 213.777 53.4175 214.159 53.1626 214.519C55.9924 216.01 59.2485 214.332 61.9111 212.452C66.8451 208.975 71.7737 203.92 72.3132 197.097C72.6208 193.14 71.3691 189.279 70.7486 185.374C69.7637 179.095 70.4036 172.607 72.583 166.773C73.8239 163.483 75.5504 160.446 76.5297 157.04C78.8092 149.197 76.937 140.458 73.9075 132.988C73.1225 131.044 72.2296 129.019 72.3672 126.868Z" fill="black"/>
<path d="M109.298 77.2675C109.033 76.9426 108.748 76.6413 108.446 76.366C111.715 81.4274 106.994 85.729 106.76 91.1768C106.549 96.103 106.894 107.121 102.322 109.587C100.061 110.808 97.6361 108.135 95.157 108.071C93.3684 108.026 91.7336 109.381 90.6411 111.068C89.5486 112.756 88.8768 114.765 88.0864 116.677C87.3654 118.413 86.5357 120.081 85.6046 121.668C85.0651 122.611 84.4338 123.551 83.576 124.083C82.0922 125.007 80.2875 124.488 78.6878 123.889C77.1322 123.306 75.5909 122.662 74.064 121.958C74.0609 122.293 74.0374 122.628 73.9939 122.959C76.0063 123.938 78.0485 124.816 80.1203 125.593C81.7173 126.192 83.522 126.71 85.0084 125.786C85.8636 125.255 86.484 124.311 87.037 123.368C87.9688 121.783 88.7976 120.116 89.5162 118.38C90.3093 116.468 90.9783 114.456 92.0736 112.768C93.1688 111.081 94.8009 109.729 96.5867 109.774C99.0686 109.838 101.494 112.511 103.754 111.291C108.327 108.824 107.979 97.8063 108.192 92.8801C108.44 87.1521 113.663 82.6896 109.298 77.2675Z" fill="black"/>
</g>
<path opacity="0.1" d="M73.7511 122.486C73.5218 122.969 73.2979 123.452 73.0929 123.947C73.0147 124.137 72.9392 124.334 72.8717 124.53C71.4581 122.83 68.0159 118.789 66.0952 117.537C66.5622 116.342 67.1709 115.234 67.9026 114.246C67.9026 114.246 72.4805 117.134 73.7511 122.486Z" fill="black"/>
<path d="M73.8779 122.222C72.8178 116.494 67.9026 113.393 67.9026 113.393C67.1703 114.38 66.5616 115.488 66.0952 116.684C68.1212 118.007 71.8547 122.444 73.0929 123.947L73.8779 122.222Z" fill="#FF748E"/>
</g>
<defs>
<linearGradient id="paint0_linear_3_27713" x1="196.937" y1="30.7196" x2="196.937" y2="24.8017" gradientUnits="userSpaceOnUse">
<stop stop-color="#808080" stop-opacity="0.25"/>
<stop offset="0.54" stop-color="#808080" stop-opacity="0.12"/>
<stop offset="1" stop-color="#808080" stop-opacity="0.1"/>
</linearGradient>
<linearGradient id="paint1_linear_3_27713" x1="151.832" y1="252.003" x2="151.832" y2="6.61486e-06" gradientUnits="userSpaceOnUse">
<stop stop-color="#808080" stop-opacity="0.25"/>
<stop offset="0.54" stop-color="#808080" stop-opacity="0.12"/>
<stop offset="1" stop-color="#808080" stop-opacity="0.1"/>
</linearGradient>
<clipPath id="clip0_3_27713">
<rect width="293" height="252" fill="white"/>
</clipPath>
</defs>
</svg>
