<svg width="293" height="252" viewBox="0 0 293 252" fill="none" xmlns="http://www.w3.org/2000/svg">
<g clip-path="url(#clip0_3_27542)">
<path opacity="0.1" d="M97.4103 251.858C111.679 251.858 123.246 249.603 123.246 246.82C123.246 244.037 111.679 241.781 97.4103 241.781C83.1414 241.781 71.5742 244.037 71.5742 246.82C71.5742 249.603 83.1414 251.858 97.4103 251.858Z" fill="#36F5D3"/>
<path opacity="0.1" d="M237.852 252C255.657 252 270.091 249.744 270.091 246.962C270.091 244.179 255.657 241.923 237.852 241.923C220.046 241.923 205.612 244.179 205.612 246.962C205.612 249.744 220.046 252 237.852 252Z" fill="#36F5D3"/>
<path opacity="0.1" d="M3.66967 108.882H30.5796V153.417H5.63973C5.57344 153.874 5.50981 154.334 5.44087 154.795H30.5796V190.711C30.5345 190.695 30.4948 190.676 30.4523 190.656C29.7418 190.315 29.0365 189.955 28.3312 189.568L27.8804 189.32C27.1733 188.915 26.4663 188.485 25.7592 188.033C25.5126 187.875 25.266 187.711 25.0221 187.543C21.0968 184.873 17.5309 181.49 14.448 177.511C14.3578 177.405 14.273 177.292 14.1828 177.189C13.7533 176.623 13.3317 176.05 12.9234 175.464L12.4726 174.82C11.99 174.102 11.5234 173.365 11.07 172.618C11.0037 172.508 10.9401 172.399 10.8711 172.296C9.02713 169.191 7.49604 165.83 6.31056 162.283C6.27343 162.177 6.24162 162.061 6.20715 161.961C5.84301 160.824 5.52041 159.676 5.23935 158.517C5.11739 158.03 5.00072 157.551 4.89996 157.045C4.86284 156.897 4.83102 156.752 4.80186 156.607C3.29581 149.47 3.11816 142.055 3.11816 134.693C3.11816 133.833 3.11816 132.97 3.11816 132.117C3.11816 129.139 3.14733 126.142 3.18975 123.148C3.18975 122.372 3.21627 121.599 3.22953 120.82C3.26665 118.843 3.31968 116.866 3.38862 114.89C3.40452 114.339 3.42574 113.792 3.4496 113.245C3.4496 112.929 3.46286 112.613 3.48937 112.298C3.55301 111.152 3.60604 110.015 3.66967 108.882Z" fill="#36F5D3"/>
<path opacity="0.1" d="M30.5797 59.296H15.8188C18.2183 54.7359 20.84 50.3539 23.6699 46.1735C25.8627 42.9025 28.1774 39.7153 30.5797 36.6439V59.296Z" fill="#36F5D3"/>
<path opacity="0.1" d="M30.5795 60.6739V107.504H3.75439C3.75439 107.369 3.77295 107.231 3.78091 107.095C3.80477 106.725 3.82864 106.355 3.85515 105.988C3.88432 105.556 3.91613 105.122 3.9506 104.7C3.98507 104.278 4.02219 103.763 4.06197 103.296C4.10174 102.83 4.13886 102.356 4.18394 101.889C4.22901 101.423 4.26878 100.956 4.31651 100.492C4.36424 100.029 4.40666 99.5586 4.45704 99.095C4.49681 98.7086 4.53923 98.3255 4.58166 97.9392C4.64264 97.3951 4.70628 96.8478 4.77522 96.3069C4.77522 96.2264 4.79378 96.1427 4.80438 96.0655C5.28833 92.106 5.94774 88.1812 6.77974 84.308C7.65065 80.245 8.76276 76.2639 10.1074 72.396C11.5364 68.3497 13.2096 64.4371 15.1134 60.69L30.5795 60.6739Z" fill="#36F5D3"/>
<path opacity="0.1" d="M37.0042 108.879V153.417H94.4804V108.879H37.0042ZM37.0042 154.792V193.039C37.3329 193.123 37.6591 193.203 37.9825 193.271C38.4227 193.374 38.8602 193.467 39.3083 193.547C39.3931 193.564 39.4806 193.58 39.5734 193.589C39.7484 193.625 39.9287 193.654 40.1037 193.683C40.5465 193.757 40.9867 193.818 41.4295 193.866C41.639 193.892 41.8511 193.915 42.0632 193.934L42.5749 193.982C42.8533 194.008 43.1291 194.027 43.4022 194.037C43.5719 194.037 43.7416 194.056 43.9166 194.063C44.0492 194.063 44.1817 194.063 44.3196 194.063C44.4575 194.063 44.6537 194.063 44.8207 194.063C45.0488 194.063 45.2768 194.063 45.5022 194.063H45.8071C46.0351 194.063 46.2631 194.063 46.4885 194.037H46.5044C46.6609 194.037 46.82 194.037 46.979 194.011C47.0232 194.014 47.0675 194.014 47.1116 194.011C47.2442 194.011 47.3768 194.011 47.504 193.989H47.5968L48.4851 193.905C48.7768 193.873 49.0711 193.831 49.368 193.792L49.9726 193.705C52.432 193.287 54.8642 192.659 57.2509 191.825C62.6122 190.009 67.8569 187.469 73.2155 185.608C80.1439 183.21 87.7987 182.031 94.4937 184.964V154.792H37.0042ZM94.4804 59.296V0.00322038C88.1878 -0.0795596 81.9122 0.814099 75.806 2.66249C61.252 7.10213 48.1934 16.7315 37.0042 29.0299V59.2928H39.889V60.6675H37.0042V107.504H94.4804V60.6707H51.7332V59.296H94.4804ZM168.306 39.2678C164.705 39.1132 161.126 37.7289 157.888 35.5911C151.697 31.5024 146.752 25.1891 141.226 19.8608C129.745 8.76337 115.507 2.06689 100.9 0.405653V59.296H182.95L183.154 59.0352L168.306 39.2678ZM175.78 37.658L183.706 48.2179V34.8893C181.052 35.2885 178.726 36.2382 175.791 37.6451L175.78 37.658ZM183.706 202.536V154.792H166.818C166.773 154.589 166.728 154.383 166.675 154.177C166.726 154.383 166.768 154.589 166.816 154.792H100.91V189.32C101.536 189.884 102.154 190.476 102.766 191.078C103.427 191.722 104.079 192.401 104.734 193.068L105.394 193.731C105.709 194.053 106.028 194.375 106.348 194.678C106.985 195.304 107.627 195.922 108.276 196.532C108.597 196.854 108.926 197.144 109.252 197.446C114.429 202.253 119.891 206.59 125.593 210.424C126.871 211.282 128.161 212.121 129.462 212.938C130.329 213.476 131.201 214.01 132.076 214.529C133.391 215.308 134.717 216.059 136.053 216.782C148.374 223.498 161.402 228.106 174.765 230.475C177.733 231.007 180.712 231.426 183.703 231.73V202.533H183.968L183.706 202.536ZM100.91 60.6707V107.504H183.716V60.6707H100.91ZM100.91 108.879V153.417H183.716V108.879H100.91ZM190.143 34.8313V49.6988L200.259 36.2221C196.907 35.5654 193.536 35.0964 190.143 34.8152V34.8313ZM190.143 108.895V153.417H270.682V108.879L190.143 108.895ZM270.388 206.071L270.672 154.792H190.143V232.242C195.331 232.507 200.527 232.432 205.708 232.017H205.798C208.273 231.828 210.736 231.553 213.188 231.193H213.243C226.323 229.344 239.113 225.201 251.213 218.891L270.388 206.071ZM286.212 116.213C285.91 115.347 285.594 114.487 285.274 113.637C284.674 112.028 284.041 110.463 283.388 108.898H277.104V153.417H292.992C292.984 140.81 290.356 127.932 286.22 116.197L286.212 116.213ZM277.104 154.808V198.914C281.58 193.705 285.361 187.746 288.084 180.934C291.359 172.73 292.857 163.848 292.979 154.801L277.104 154.808ZM277.104 95.9174V107.507H282.8C281.077 103.518 279.178 99.6433 277.112 95.9013L277.104 95.9174ZM222.484 43.569C222.065 43.3758 221.646 43.1794 221.224 42.9895C216.778 40.9957 212.234 39.3378 207.619 38.025L192.14 58.6521L191.843 59.0352L192.042 59.2992H247.135C239.462 52.8862 231.19 47.6005 222.492 43.5529L222.484 43.569ZM248.749 60.6868H191.273L190.143 61.9424V107.504H200.044H200.06H270.693V85.4348C264.304 76.0519 256.929 67.7264 248.757 60.6707L248.749 60.6868Z" fill="#36F5D3"/>
<path opacity="0.1" d="M30.5795 84.2951V107.504H3.75439C3.75439 107.369 3.77295 107.231 3.78091 107.095C3.80477 106.725 3.82864 106.355 3.85515 105.988C3.88432 105.556 3.91613 105.122 3.9506 104.7C3.98507 104.278 4.02219 103.763 4.06197 103.296C4.10174 102.83 4.13886 102.356 4.18394 101.889C4.22901 101.423 4.26878 100.956 4.31651 100.492C4.36424 100.029 4.40666 99.5586 4.45704 99.095C4.49681 98.7086 4.53923 98.3255 4.58166 97.9392C4.64264 97.3951 4.70628 96.8478 4.77522 96.3069C4.77522 96.2264 4.79378 96.1427 4.80438 96.0655C5.28833 92.106 5.94774 88.1812 6.77974 84.308L30.5795 84.2951Z" fill="#36F5D3"/>
<path opacity="0.1" d="M3.66967 108.882H30.5796V153.417H5.63973C5.57344 153.874 5.50981 154.334 5.44087 154.795H30.5796V190.711C30.5345 190.695 30.4948 190.676 30.4523 190.656C29.7418 190.315 29.0365 189.955 28.3312 189.568L27.8804 189.32C27.1733 188.915 26.4663 188.485 25.7592 188.033C25.5126 187.875 25.266 187.711 25.0221 187.543C21.0968 184.873 17.5309 181.49 14.448 177.511C14.3578 177.405 14.273 177.292 14.1828 177.189C13.7533 176.623 13.3317 176.05 12.9234 175.464L12.4726 174.82C11.99 174.102 11.5234 173.365 11.07 172.618C11.0037 172.508 10.9401 172.399 10.8711 172.296C9.02713 169.191 7.49604 165.83 6.31056 162.283C6.27343 162.177 6.24162 162.061 6.20715 161.961C5.84301 160.824 5.52041 159.676 5.23935 158.517C5.11739 158.03 5.00072 157.551 4.89996 157.045C4.86284 156.897 4.83102 156.752 4.80186 156.607C3.29581 149.47 3.11816 142.055 3.11816 134.693C3.11816 133.833 3.11816 132.97 3.11816 132.117C3.11816 129.139 3.14733 126.142 3.18975 123.148C3.18975 122.372 3.21627 121.599 3.22953 120.82C3.26665 118.843 3.31968 116.866 3.38862 114.89C3.40452 114.339 3.42574 113.792 3.4496 113.245C3.4496 112.929 3.46286 112.613 3.48937 112.298C3.55301 111.152 3.60604 110.015 3.66967 108.882Z" fill="#36F5D3"/>
<path opacity="0.1" d="M57.2377 67.3769V107.504H37.0042V67.3769H39.889V53.7907H51.7305V67.3769H57.2377Z" fill="#36F5D3"/>
<path opacity="0.1" d="M57.2377 108.879H37.0068V153.414H57.2377V108.879Z" fill="#36F5D3"/>
<path opacity="0.1" d="M37.0042 154.795H57.2376V191.819C54.8509 192.651 52.4188 193.279 49.9593 193.696L49.3548 193.786C49.0578 193.828 48.7635 193.863 48.4718 193.898C48.1802 193.934 47.8779 193.96 47.5836 193.982H47.4908C47.3635 193.982 47.2256 194.001 47.101 194.005H46.9658C46.8067 194.005 46.6476 194.024 46.4885 194.03C46.2631 194.047 46.0378 194.05 45.8071 194.053C45.709 194.053 45.6162 194.053 45.5181 194.053C45.29 194.053 45.0647 194.053 44.8366 194.053H44.3355C44.2003 194.053 44.0704 194.053 43.9298 194.053L43.4181 194.03C43.153 194.03 42.8666 193.995 42.5908 193.972L42.0817 193.927L41.448 193.857C41.0026 193.808 40.5598 193.747 40.1223 193.673L39.592 193.583L39.3269 193.538C38.8841 193.454 38.4466 193.364 38.0011 193.261C37.675 193.193 37.3515 193.11 37.0227 193.029L37.0042 154.795Z" fill="#36F5D3"/>
<path opacity="0.1" d="M183.716 62.6378H167.033V107.501H183.716V62.6378Z" fill="#36F5D3"/>
<path opacity="0.1" d="M183.719 108.879V153.417H100.91V134.206H145.018V145.539H167.033V108.879H183.719Z" fill="#36F5D3"/>
<path opacity="0.1" d="M183.982 202.546H183.716V231.762C180.729 231.456 177.751 231.038 174.781 230.51C161.411 228.133 148.378 223.516 136.053 216.789C132.495 214.844 129.009 212.722 125.596 210.421C119.894 206.585 114.432 202.248 109.252 197.443C107.951 196.233 106.667 194.994 105.399 193.728C104.522 192.849 103.649 191.947 102.766 191.072C102.154 190.47 101.536 189.877 100.91 189.311V154.795H166.813C166.768 154.589 166.723 154.383 166.675 154.18C166.726 154.383 166.773 154.589 166.818 154.795H183.716V202.527C183.807 202.53 183.894 202.539 183.982 202.546Z" fill="#36F5D3"/>
<path opacity="0.1" d="M227.227 59.296H216.356V55.1944H221.23V42.9766C221.652 43.1633 222.073 43.3554 222.492 43.5529V55.1944H227.227V59.296Z" fill="#36F5D3"/>
<path opacity="0.1" d="M253.419 107.504H200.05C200.05 107.504 200.05 107.504 200.068 107.52L200.044 107.504H190.144V62.641H192.949V95.8015H205.769V76.1628H216.359V60.6739H227.23V76.1756H237.82V95.8143H253.419V107.504Z" fill="#36F5D3"/>
<path opacity="0.1" d="M190.144 108.879V153.417H253.419V108.879H190.144ZM270.595 205.843L270.682 170.59H253.419V154.814H190.144V232.242C195.331 232.507 200.527 232.432 205.708 232.017H205.798C208.273 231.828 210.736 231.553 213.188 231.193H213.243C226.323 229.344 239.113 225.201 251.213 218.891" fill="#36F5D3"/>
<path opacity="0.1" d="M278.229 154.795H292.989C292.86 163.838 291.364 172.721 288.092 180.924C285.369 187.74 281.585 193.699 277.115 198.905V170.573H278.229V154.795Z" fill="#36F5D3"/>
<path opacity="0.1" d="M292.997 153.417H278.229V116.197H286.22C290.356 127.932 292.984 140.81 292.997 153.417Z" fill="#36F5D3"/>
<path opacity="0.1" d="M183.719 75.11H174.781V89.1758H183.719V75.11Z" fill="#36F5D3"/>
<path opacity="0.1" d="M183.719 104.265H174.781V107.504H183.719V104.265Z" fill="#36F5D3"/>
<path opacity="0.1" d="M183.719 108.879H174.781V118.328H183.719V108.879Z" fill="#36F5D3"/>
<path opacity="0.1" d="M183.719 133.421H174.781V147.487H183.719V133.421Z" fill="#36F5D3"/>
<path opacity="0.1" d="M183.719 162.576H174.781V176.642H183.719V162.576Z" fill="#36F5D3"/>
<path opacity="0.1" d="M183.716 202.527C183.806 202.527 183.894 202.527 183.981 202.546H183.716V205.814H174.781V191.732H183.716V202.527Z" fill="#36F5D3"/>
<path opacity="0.1" d="M183.716 220.881V231.746C180.729 231.439 177.75 231.022 174.781 230.494V220.881H183.716Z" fill="#36F5D3"/>
<path opacity="0.1" d="M139.216 152.383H100.91V153.417H139.216V152.383Z" fill="#36F5D3"/>
<path opacity="0.1" d="M139.216 154.792H100.91V158.752H139.216V154.792Z" fill="#36F5D3"/>
<path opacity="0.1" d="M139.216 171.732H100.91V178.101H139.216V171.732Z" fill="#36F5D3"/>
<path opacity="0.1" d="M139.214 191.081V197.449H109.252C107.951 196.243 106.666 195.005 105.397 193.734C104.519 192.855 103.649 191.954 102.764 191.081H139.214Z" fill="#36F5D3"/>
<path opacity="0.1" d="M139.214 210.427V216.789H136.051C132.496 214.842 129.011 212.718 125.596 210.417L139.214 210.427Z" fill="#36F5D3"/>
<path opacity="0.1" d="M213.251 113.196H205.71V122.352H213.251V113.196Z" fill="#36F5D3"/>
<path opacity="0.1" d="M49.9778 70.5351H42.437V79.6913H49.9778V70.5351Z" fill="#36F5D3"/>
<path opacity="0.1" d="M49.9778 91.8029H42.437V100.959H49.9778V91.8029Z" fill="#36F5D3"/>
<path opacity="0.1" d="M49.9778 113.071H42.437V122.227H49.9778V113.071Z" fill="#36F5D3"/>
<path opacity="0.1" d="M49.9778 134.335H42.437V143.491H49.9778V134.335Z" fill="#36F5D3"/>
<path opacity="0.1" d="M49.9778 155.603H42.437V164.759H49.9778V155.603Z" fill="#36F5D3"/>
<path opacity="0.1" d="M49.9778 176.871H42.437V186.027H49.9778V176.871Z" fill="#36F5D3"/>
<path opacity="0.1" d="M242.038 113.196H234.498V122.352H242.038V113.196Z" fill="#36F5D3"/>
<path opacity="0.1" d="M213.251 135.781H205.71V144.937H213.251V135.781Z" fill="#36F5D3"/>
<path opacity="0.1" d="M242.038 135.781H234.498V144.937H242.038V135.781Z" fill="#36F5D3"/>
<path opacity="0.1" d="M213.251 158.362H205.71V167.518H213.251V158.362Z" fill="#36F5D3"/>
<path opacity="0.1" d="M242.038 158.362H234.498V167.518H242.038V158.362Z" fill="#36F5D3"/>
<path opacity="0.1" d="M213.251 180.947H205.71V190.103H213.251V180.947Z" fill="#36F5D3"/>
<path opacity="0.1" d="M242.038 180.947H234.498V190.103H242.038V180.947Z" fill="#36F5D3"/>
<path opacity="0.1" d="M213.251 203.531H205.71V212.687H213.251V203.531Z" fill="#36F5D3"/>
<path opacity="0.1" d="M242.038 203.531H234.498V212.687H242.038V203.531Z" fill="#36F5D3"/>
<path opacity="0.1" d="M205.71 232.017V226.112H213.249V231.177L205.71 232.017Z" fill="#36F5D3"/>
<path opacity="0.1" d="M4.77271 96.059V101.297H30.5796V96.059H4.77271ZM7.34465 100.969H5.23937V96.381H7.36056L7.34465 100.969ZM9.91394 100.969H7.79275V96.381H9.91394V100.969ZM12.4779 100.969H10.3567V96.381H12.4779V100.969ZM15.0472 100.969H12.9287V96.381H15.0499L15.0472 100.969ZM17.6139 100.969H15.4927V96.381H17.6139V100.969ZM20.1832 100.969H18.062V96.381H20.1832V100.969ZM22.7524 100.969H20.6313V96.381H22.7524V100.969ZM25.3191 100.969H23.1979V96.381H25.3191V100.969ZM27.8857 100.969H25.7645V96.381H27.8857V100.969ZM30.4524 100.969H28.3312V96.381H30.4524V100.969Z" fill="#36F5D3"/>
<path opacity="0.1" d="M4.77271 111.3V116.538H30.5796V111.3H4.77271ZM7.34465 116.206H5.23937V111.632H7.36056L7.34465 116.206ZM9.91394 116.206H7.79275V111.632H9.91394V116.206ZM12.4779 116.206H10.3567V111.632H12.4779V116.206ZM15.0472 116.206H12.9287V111.632H15.0499L15.0472 116.206ZM17.6139 116.206H15.4927V111.632H17.6139V116.206ZM20.1832 116.206H18.062V111.632H20.1832V116.206ZM22.7524 116.206H20.6313V111.632H22.7524V116.206ZM25.3191 116.206H23.1979V111.632H25.3191V116.206ZM27.8857 116.206H25.7645V111.632H27.8857V116.206ZM30.4524 116.206H28.3312V111.632H30.4524V116.206Z" fill="#36F5D3"/>
<path opacity="0.1" d="M4.77271 126.547V131.795H30.5796V126.547H4.77271ZM7.34465 131.454H5.23937V126.876H7.36056L7.34465 131.454ZM9.91394 131.454H7.79275V126.876H9.91394V131.454ZM12.4779 131.454H10.3567V126.876H12.4779V131.454ZM15.0472 131.454H12.9287V126.876H15.0499L15.0472 131.454ZM17.6139 131.454H15.4927V126.876H17.6139V131.454ZM20.1832 131.454H18.062V126.876H20.1832V131.454ZM22.7524 131.454H20.6313V126.876H22.7524V131.454ZM25.3191 131.454H23.1979V126.876H25.3191V131.454ZM27.8857 131.454H25.7645V126.876H27.8857V131.454ZM30.4524 131.454H28.3312V126.876H30.4524V131.454Z" fill="#36F5D3"/>
<path opacity="0.1" d="M4.77271 141.795V147.026H30.5796V141.795H4.77271ZM7.34465 146.701H5.23937V142.12H7.36056L7.34465 146.701ZM9.91394 146.701H7.79275V142.12H9.91394V146.701ZM12.4779 146.701H10.3567V142.12H12.4779V146.701ZM15.0472 146.701H12.9287V142.12H15.0499L15.0472 146.701ZM17.6139 146.701H15.4927V142.12H17.6139V146.701ZM20.1832 146.701H18.062V142.12H20.1832V146.701ZM22.7524 146.701H20.6313V142.12H22.7524V146.701ZM25.3191 146.701H23.1979V142.12H25.3191V146.701ZM27.8857 146.701H25.7645V142.12H27.8857V146.701ZM30.4524 146.701H28.3312V142.12H30.4524V146.701Z" fill="#36F5D3"/>
<path opacity="0.1" d="M4.88403 157.039C4.98744 157.531 5.1041 158.024 5.22607 158.51V157.367H7.34726V161.945H6.21243C6.2469 162.052 6.28137 162.167 6.31583 162.267H30.5796V157.039H4.88403ZM9.92186 161.945H7.80067V157.367H9.92186V161.945ZM12.4858 161.945H10.3647V157.367H12.4858V161.945ZM15.0551 161.945H12.9286V157.367H15.0498L15.0551 161.945ZM17.6218 161.945H15.5006V157.367H17.6218V161.945ZM20.1911 161.945H18.0699V157.367H20.1911V161.945ZM22.7604 161.945H20.6392V157.367H22.7604V161.945ZM25.327 161.945H23.2058V157.367H25.327V161.945ZM27.8936 161.945H25.7725V157.367H27.8936V161.945ZM30.4603 161.945H28.3391V157.367H30.4603V161.945Z" fill="#36F5D3"/>
<path opacity="0.1" d="M10.8765 172.286C10.9428 172.389 11.0064 172.505 11.0753 172.608H12.478V174.807C12.6291 175.026 12.7776 175.245 12.9314 175.451V172.595H15.0526V177.189H14.1935C14.2783 177.296 14.3605 177.408 14.4586 177.511H30.5876V172.286H10.8765ZM17.6139 177.189H15.4927V172.615H17.6139V177.189ZM20.1832 177.189H18.062V172.615H20.1832V177.189ZM22.7525 177.189H20.6313V172.615H22.7525V177.189ZM25.3191 177.189H23.1979V172.615H25.3191V177.189ZM27.8858 177.189H25.7646V172.615H27.8858V177.189ZM30.4524 177.189H28.3312V172.615H30.4524V177.189Z" fill="#36F5D3"/>
<path opacity="0.1" d="M25.0327 187.53C25.274 187.698 25.5206 187.852 25.7698 188.02V187.859H27.891V189.307L28.3418 189.562V187.859H30.463V190.644C30.5036 190.668 30.5463 190.687 30.5902 190.701V187.53H25.0327Z" fill="#36F5D3"/>
<path opacity="0.1" d="M200.05 107.504H200.065H200.05ZM183.716 202.523H183.982H183.716ZM166.675 154.177C166.726 154.383 166.768 154.589 166.816 154.792C166.773 154.589 166.728 154.383 166.675 154.177ZM200.05 107.495H200.065H200.05ZM39.8997 59.2864V60.6611H51.7439V59.2864H39.8997ZM183.716 202.523H183.982H183.716ZM166.675 154.177C166.726 154.383 166.768 154.589 166.816 154.792C166.773 154.589 166.728 154.383 166.675 154.177ZM200.05 107.495H200.065H200.05ZM183.716 202.514H183.982H183.716ZM166.675 154.177C166.726 154.383 166.768 154.589 166.816 154.792C166.773 154.589 166.728 154.383 166.675 154.177Z" fill="#36F5D3"/>
<path d="M122.393 122.233C122.393 122.233 121.348 122.056 121.348 120.208C121.348 118.36 120.6 114.909 120.6 114.909C120.6 114.893 119.953 108.898 119.06 107.945C118.166 106.992 117.018 101.397 117.018 101.397C117.018 101.397 116.822 98.3609 116.422 97.7074C116.021 97.0538 115.48 95.4538 114.682 93.1712C113.884 90.8886 110.556 89.3078 110.556 89.3078C110.556 89.3078 104.54 85.071 102.835 83.6899C102.68 83.5764 102.536 83.4437 102.403 83.2939C102.106 82.8206 100.812 82.8109 100.812 82.8109C100.677 81.7743 100.547 80.5831 100.505 79.5046C100.505 79.3887 100.505 79.2728 100.491 79.1569C102.392 77.7924 103.824 75.6411 104.524 73.0978C104.556 72.9755 104.583 72.8467 104.612 72.7244C104.726 72.6788 104.831 72.6049 104.92 72.5073C105.009 72.4097 105.08 72.2907 105.129 72.1578C105.283 71.7424 105.285 71.2563 105.476 70.87C105.699 70.4128 106.123 70.1681 106.457 69.8236C107.3 68.9544 107.518 67.4895 107.478 66.1567C107.452 65.0782 107.308 63.99 107.364 62.9179L107.38 62.6475C107.396 62.4865 107.414 62.3255 107.438 62.171C107.568 61.3726 107.852 60.6192 108.011 59.8272C108.17 59.0352 108.186 58.1434 107.815 57.4609C107.271 56.4597 106.139 56.2601 105.145 56.157C104.018 56.0411 103.01 56.1924 102.289 55.056C101.952 54.462 101.572 53.905 101.154 53.3915C101.006 53.2241 99.5634 52.1552 99.5634 52.0844C98.1556 51.2927 96.5599 51.1441 95.0691 51.6659C94.3214 51.9299 93.6161 52.3613 92.8578 52.577C91.2218 53.047 89.3392 52.5384 87.9499 53.6748C87.1756 54.3187 86.7116 55.3425 86.2768 56.3405C85.9232 57.1626 85.5644 57.9835 85.2003 58.8034C84.6143 60.1524 84.0177 61.5239 83.7711 63.0177C83.7193 63.3428 83.6874 63.6721 83.6757 64.0029V64.019C83.6757 64.1381 83.6757 64.2572 83.6757 64.3763V64.5276C83.6757 64.6403 83.6757 64.7498 83.6916 64.8496C83.7075 64.9494 83.7048 64.9816 83.7128 65.0492C83.7207 65.1168 83.734 65.2681 83.7499 65.3711C83.7658 65.4742 83.7976 65.6544 83.8295 65.7961C83.8427 65.8573 83.8613 65.9152 83.8772 65.9732C83.9037 66.0826 83.9355 66.1889 83.97 66.2951C83.9885 66.3498 84.0071 66.4078 84.0283 66.4625C84.0681 66.5752 84.1158 66.6847 84.1635 66.7845C84.1848 66.8295 84.2007 66.8714 84.2219 66.9133C84.2958 67.063 84.3773 67.207 84.4658 67.3447C85.0332 68.2043 85.8685 68.7516 86.4862 69.5564C86.4862 69.5886 86.4862 69.6208 86.4862 69.6498C86.4862 69.7399 86.4862 69.8269 86.4862 69.917C86.519 71.712 86.9125 73.4701 87.6325 75.0384C88.3524 76.6067 89.3771 77.9376 90.6173 78.9154C90.6173 79.0377 90.6305 79.1633 90.6358 79.2856C90.6875 80.2413 90.6778 81.2004 90.6067 82.1542C90.4987 81.9998 90.3635 81.8768 90.2112 81.7943C90.0588 81.7118 89.8931 81.672 89.7264 81.6777C89.6124 81.6709 89.4983 81.6829 89.387 81.7131L89.3631 81.6906V81.7195C88.7798 81.8934 88.0612 82.6307 87.3745 84.7265C87.3745 84.7265 85.2851 87.5854 83.6942 87.4663C82.1033 87.3472 78.0757 90.4411 78.0757 90.4411C78.0757 90.4411 74.1462 93.5382 73.303 96.6933C72.8318 98.4823 72.2667 100.233 71.6114 101.935L66.7539 114.088L65.8577 123.73C65.8577 123.73 66.3535 128.019 66.2554 128.672C66.1573 129.326 68.2944 135.221 68.2944 135.221C68.2944 135.221 75.3553 150.284 78.2401 151.057L78.4469 150.88C78.5704 150.958 78.7013 151.018 78.8367 151.057L79.4306 150.548C79.4663 151.115 79.4512 151.685 79.3856 152.248C78.9878 153.736 79.534 163.442 80.2287 165.345C80.9234 167.248 80.6768 192.195 80.6768 192.195L80.5787 194.397C80.5787 194.397 80.5787 194.468 80.6026 194.591L80.5787 195.112L80.6503 195.157C80.7247 195.856 80.7005 196.564 80.5787 197.253C80.3295 198.219 80.2287 200.949 80.2287 200.949C80.2287 200.949 78.2428 216.364 79.184 219.461C80.1253 222.558 80.9261 225.951 80.9261 225.951C80.9261 225.951 81.9204 229.815 80.9738 230.475C80.0272 231.135 77.336 232.242 77.8901 233.852C78.3939 235.339 80.3056 239.325 80.5893 239.908L80.5655 240.214L80.1757 245.342C80.2388 246.019 80.3901 246.68 80.6238 247.3C81.0507 248.417 81.8806 249.576 83.4582 249.45C83.7234 249.428 84.031 249.389 84.3279 249.341C87.2154 248.871 90.771 247.306 90.771 247.306C90.5864 247.164 90.4172 246.994 90.2673 246.801C90.1253 246.634 90.0129 246.433 89.9368 246.212C89.8606 245.991 89.8224 245.753 89.8245 245.513C89.8669 244.579 88.4271 240.13 88.0692 239.035C88.0135 238.877 87.9843 238.787 87.9843 238.787C87.9843 238.787 91.2669 234.621 90.7207 230.929C90.7207 230.929 87.0881 228.353 88.284 226.94C89.4798 225.526 91.6169 221.467 91.6169 221.467C91.6169 221.467 91.715 206.287 91.6169 204.02C91.5145 202.447 91.576 200.865 91.7998 199.31C91.8396 199.075 91.8873 198.847 91.9377 198.621C93.5915 198.921 95.261 199.075 96.9331 199.082C97.5429 199.082 98.1634 199.082 98.7892 199.037C98.7892 199.251 98.7971 199.483 98.813 199.732C98.9509 203.492 99.2081 210.086 99.4175 212.536C99.7145 216.048 101.356 225.514 101.356 225.514C101.356 225.514 98.2244 227.954 101.902 233.968C101.902 233.968 101.902 236.147 101.658 236.463C101.398 237.494 101.188 238.544 101.03 239.605C100.876 240.738 100.812 241.884 101.061 242.48C101.658 243.903 105.238 243.787 105.238 243.787L105.325 243.768C106.001 243.683 106.684 243.762 107.334 244C107.985 244.238 108.59 244.631 109.114 245.155C110.474 246.482 115.637 245.899 118.431 245.477C119.526 245.31 120.258 245.155 120.258 245.155C120.294 245.005 120.306 244.848 120.295 244.692C120.266 243.858 119.728 242.029 116.079 240.397C116.079 240.397 112.648 237.596 112.696 235.156H112.625H112.227C112.516 235.136 112.702 235.156 112.702 235.156C112.702 235.156 111.357 229.2 111.906 228.717C112.455 228.234 110.811 221.634 110.811 221.634C110.811 221.634 109.87 210.559 109.819 209.783C109.821 209.117 109.905 208.456 110.066 207.819L109.819 201.747C109.819 201.747 109.772 199.729 109.819 199.072C109.811 198.502 109.773 197.933 109.705 197.369C109.681 197.144 109.658 196.909 109.631 196.677C110.917 196.281 111.752 195.914 111.752 195.914L111.604 174.778C112.696 172.202 112.898 166.552 112.892 162.544C112.892 159.969 112.797 158.063 112.797 158.063L114.29 155.104C114.29 155.104 114.634 151.563 114.088 150.787C113.847 150.436 113.956 150.072 114.155 149.772C114.258 149.673 114.367 149.583 114.481 149.502C114.481 149.502 114.465 149.473 114.446 149.431C114.55 149.325 114.661 149.23 114.778 149.145C114.778 149.145 114.247 148.147 114.722 147.725C115.167 148.092 115.565 148.369 115.867 148.594C115.846 148.829 115.825 148.964 115.825 148.964L115.952 148.642C116.244 148.842 116.422 148.964 116.422 148.964C116.422 148.964 118.76 143.308 118.71 142.474C118.659 141.64 120.301 138.128 120.301 138.128C120.301 138.128 120.5 136.283 121.396 135.51C122.292 134.738 122.09 129.139 122.09 129.139C122.09 129.139 122.34 126.222 122.936 125.031C123.533 123.84 122.393 122.233 122.393 122.233ZM77.6462 119.751L77.6913 121.1C77.4261 120.582 77.2352 120.208 77.2352 120.208L77.6462 119.751Z" fill="url(#paint0_linear_3_27542)"/>
<path d="M116.549 146.521L115.976 149.483C115.976 149.483 111.389 146.64 110.562 143.028C109.734 139.415 111.946 138.044 111.946 138.044L116.22 140.243L116.549 146.521Z" fill="white"/>
<path opacity="0.1" d="M116.549 146.521L115.976 149.483C115.976 149.483 111.389 146.64 110.562 143.028C109.734 139.415 111.946 138.044 111.946 138.044L116.22 140.243L116.549 146.521Z" fill="black"/>
<path d="M90.8054 247.325C90.8054 247.325 86.563 249.218 83.6464 249.457C82.0979 249.582 81.2839 248.43 80.865 247.319C80.6361 246.701 80.4885 246.044 80.4275 245.371L80.8067 240.268L81.0082 237.551L87.2047 235.597L88.0823 238.855L88.1645 239.103C88.5172 240.191 89.9304 244.618 89.888 245.542C89.8863 245.778 89.9239 246.013 89.9986 246.231C90.0733 246.45 90.1836 246.648 90.3228 246.813C90.4651 247.008 90.6273 247.18 90.8054 247.325Z" fill="white"/>
<path d="M119.784 244.73C119.794 244.885 119.782 245.041 119.746 245.191C119.746 245.191 110.673 247.029 108.817 245.191C108.294 244.654 107.684 244.256 107.026 244.022C106.369 243.788 105.678 243.723 104.999 243.832C104.999 243.832 101.488 243.948 100.902 242.544C100.658 241.955 100.722 240.812 100.873 239.686C101.027 238.63 101.233 237.586 101.488 236.559L101.629 236.424L102.464 235.61L112.243 235.259H112.317C112.269 237.686 115.637 240.471 115.637 240.471C119.213 242.081 119.741 243.9 119.784 244.73Z" fill="white"/>
<path opacity="0.1" d="M119.784 244.73C119.793 244.886 119.779 245.041 119.744 245.191C119.744 245.191 110.673 247.029 108.817 245.191C108.294 244.654 107.685 244.256 107.027 244.022C106.37 243.788 105.68 243.724 105.002 243.832C105.002 243.832 101.488 243.948 100.905 242.544C100.661 241.952 100.722 240.812 100.873 239.686C102.225 239.85 104.36 240.259 105.198 241.234C106.465 242.718 108.613 244.199 109.931 244.315C110.962 244.396 117.132 244.634 119.784 244.73Z" fill="black"/>
<path opacity="0.1" d="M90.8054 247.325C90.8054 247.325 86.5631 249.218 83.6464 249.457C82.098 249.582 81.284 248.43 80.8677 247.316C81.9468 247.757 83.4449 248.22 84.2324 247.795C85.1657 247.293 88.4748 246.968 90.3308 246.83C90.4721 247.017 90.6314 247.184 90.8054 247.325Z" fill="black"/>
<path d="M97.1001 94.7712C93.6001 93.1197 89.0979 87.6627 90.2221 85.1129C90.4718 84.4694 90.6202 83.775 90.6596 83.0653C90.732 82.1019 90.7426 81.1332 90.6914 80.1678C90.6126 78.5867 90.4559 77.0128 90.2221 75.4545C90.2221 75.4545 101.149 75.7539 100.513 77.7081C100.327 78.2812 100.298 79.276 100.348 80.3899C100.399 81.5039 100.531 82.7627 100.669 83.8283C100.86 85.2899 101.051 86.4039 101.051 86.4039C101.051 86.4039 100.383 87.5403 99.9902 87.6015C99.5978 87.6627 102.122 97.1247 97.1001 94.7712Z" fill="#CF6F80"/>
<path opacity="0.1" d="M88.1567 239.103L88.0745 239.212C84.8079 234.415 80.8572 240.394 80.8572 240.394L80.7988 240.268L81.0003 237.551L87.1969 235.597L88.0745 238.855L88.1567 239.103Z" fill="black"/>
<path opacity="0.1" d="M112.32 235.597C112.32 235.597 109.933 235.536 108.661 236.901C107.388 238.266 101.236 237.197 101.501 236.901C101.58 236.754 101.627 236.586 101.639 236.411L102.475 235.597L112.253 235.246C112.29 235.462 112.32 235.597 112.32 235.597Z" fill="black"/>
<path d="M92.2215 197.926C92.0438 198.459 91.9088 199.013 91.8185 199.578C91.5974 201.125 91.5359 202.699 91.6355 204.265C91.7336 206.519 91.6355 221.621 91.6355 221.621C91.6355 221.621 89.5382 225.649 88.3689 227.069C87.1996 228.488 90.7552 231.038 90.7552 231.038C91.2855 234.708 88.0719 238.855 88.0719 238.855C84.8053 234.058 80.8546 240.04 80.8546 240.04C80.8546 240.04 78.7069 235.532 78.1713 233.923C77.6357 232.313 80.2686 231.199 81.194 230.546C82.1193 229.892 81.1489 226.038 81.1489 226.038C81.1489 226.038 80.3667 222.661 79.4387 219.58C78.5107 216.499 80.4622 201.162 80.4622 201.162C80.4622 201.162 80.5629 198.438 80.8042 197.488C80.9259 196.803 80.9502 196.097 80.8758 195.402C80.8599 195.167 80.8413 194.971 80.8281 194.839C80.8148 194.707 80.8042 194.645 80.8042 194.645L80.8413 194.568L82.1671 191.568C82.1671 191.568 92.8579 196.036 92.2215 197.926Z" fill="#36F5D3"/>
<path d="M112.32 235.243C112.32 235.243 109.933 235.182 108.661 236.531C107.388 237.879 101.237 236.827 101.502 236.531C101.767 236.234 101.746 234.042 101.746 234.042C98.1369 228.06 101.215 225.633 101.215 225.633C101.215 225.633 99.6032 216.216 99.3115 212.723C99.1074 210.282 98.8555 203.724 98.7202 199.98C98.6619 198.37 98.6274 197.263 98.6274 197.263L101.576 196.542L101.955 196.448L109.066 194.716C109.066 194.716 109.263 196.326 109.395 197.643C109.461 198.205 109.498 198.771 109.506 199.339C109.459 199.983 109.506 201.999 109.506 201.999L109.748 208.042C109.59 208.675 109.509 209.334 109.506 209.996C109.554 210.765 110.48 221.782 110.48 221.782C110.48 221.782 112.089 228.356 111.54 228.83C110.991 229.303 112.32 235.243 112.32 235.243Z" fill="#36F5D3"/>
<path opacity="0.1" d="M100.513 77.7081C100.327 78.2812 100.298 79.276 100.348 80.3899C98.8846 81.4601 97.2021 82.0072 95.4939 81.9685C93.7857 81.9298 92.1212 81.3067 90.6915 80.171C90.6128 78.5889 90.456 77.0139 90.2222 75.4545C90.2222 75.4545 101.149 75.7475 100.513 77.7081Z" fill="black"/>
<path d="M104.736 70.5931C104.738 71.7532 104.588 72.9064 104.291 74.0089C103.627 76.4794 102.264 78.5853 100.445 79.9542C98.6257 81.3232 96.4664 81.8671 94.3487 81.49C92.231 81.1128 90.2913 79.8387 88.8724 77.893C87.4535 75.9473 86.6468 73.4552 86.5948 70.8571C86.5948 70.7669 86.5948 70.6832 86.5948 70.5931C86.5742 69.1307 86.7937 67.6779 87.2404 66.3196C87.687 64.9612 88.352 63.7245 89.1964 62.6814C90.0409 61.6384 91.048 60.81 92.1589 60.2445C93.2698 59.679 94.4623 59.3878 95.6669 59.3878C96.8715 59.3878 98.064 59.679 99.1749 60.2445C100.286 60.81 101.293 61.6384 102.137 62.6814C102.982 63.7245 103.647 64.9612 104.093 66.3196C104.54 67.6779 104.76 69.1307 104.739 70.5931H104.736Z" fill="#CF6F80"/>
<path opacity="0.1" d="M97.1001 94.7712C93.6001 93.1197 89.0979 87.6627 90.2221 85.1129C90.4718 84.4694 90.6202 83.775 90.6596 83.0653L95.4509 87.8462L98.4152 90.7984L100.669 83.8315C100.86 85.2931 101.051 86.4071 101.051 86.4071C101.051 86.4071 100.383 87.5435 99.9902 87.6047C99.5978 87.6659 102.122 97.1247 97.1001 94.7712Z" fill="black"/>
<path d="M109.49 115.901L105.489 197.514L100.271 197.929L86.7593 150.606L88.9759 94.4235L89.4426 82.5534L95.4509 88.5448L98.4179 91.4971L100.738 84.3273L105.052 88.8925L109.49 115.901Z" fill="#36F5D3"/>
<path opacity="0.1" d="M92.2213 197.926C92.0436 198.459 91.9086 199.013 91.8183 199.578C88.0213 198.866 84.3337 197.467 80.8782 195.428L80.8066 195.383L80.8305 194.864L80.8438 194.594L82.1695 191.593C82.1695 191.593 92.8576 196.036 92.2213 197.926Z" fill="black"/>
<path opacity="0.1" d="M101.637 199.59C100.666 199.791 99.6873 199.926 98.7044 199.996C98.646 198.386 98.6116 197.279 98.6116 197.279L101.56 196.558L101.637 199.59Z" fill="black"/>
<path opacity="0.1" d="M109.379 197.659C107.494 198.254 104.583 198.924 101.976 198.505L101.939 196.464L109.05 194.732C109.05 194.732 109.247 196.326 109.379 197.659Z" fill="black"/>
<path opacity="0.1" d="M101.929 198.879C91.0574 201.133 81.1011 194.671 81.1011 194.671L81.1965 192.482C81.1965 192.482 81.4431 167.663 80.759 165.76C80.0749 163.858 79.542 154.209 79.9291 152.728C80.3162 151.247 78.5159 129.039 78.5159 129.039L78.2242 120.025L67.5493 114.774L72.322 102.694C72.9666 101.001 73.521 99.2587 73.9818 97.4788C74.8117 94.3431 78.6644 91.262 78.6644 91.262C78.6644 91.262 82.6151 88.1842 84.1768 88.3001C85.7385 88.416 87.7855 85.5765 87.7855 85.5765C89.2968 80.8986 90.665 83.017 90.665 83.017C90.665 83.2391 90.665 83.017 90.5907 83.7092C90.0604 88.8442 99.1657 105.07 99.2956 105.357L100.163 131.003L101.04 163.458L101.929 198.879Z" fill="black"/>
<path d="M101.637 198.879C90.7658 201.133 80.8068 194.671 80.8068 194.671L80.9049 192.482C80.9049 192.482 81.1515 167.663 80.4648 165.76C79.778 163.858 79.2477 154.209 79.6375 152.728C80.0273 151.247 78.2243 129.039 78.2243 129.039L77.9299 120.025L67.2498 114.754L72.0224 102.675C72.6657 100.981 73.2201 99.2387 73.6823 97.4595C74.5095 94.3237 78.3648 91.2427 78.3648 91.2427C78.3648 91.2427 82.3155 88.1649 83.8746 88.2808C85.4337 88.3967 87.4833 85.5571 87.4833 85.5571C88.9973 80.8793 90.665 82.9977 90.665 82.9977C90.665 83.2198 90.506 83.3196 90.5908 83.6899C91.7575 88.6704 98.8741 105.051 99.004 105.338L99.8816 130.984L100.759 163.439L101.637 198.879Z" fill="white"/>
<path opacity="0.1" d="M98.7071 106.068C97.5378 105.476 91.3439 96.8896 91.3439 96.8896V94.9354C91.1185 94.2915 89.7795 94.6843 88.6924 95.135L89.159 83.2649L89.6893 83.7993C90.8507 88.7766 98.5718 105.782 98.7071 106.068Z" fill="black"/>
<path d="M99.0012 105.357C97.8292 104.764 91.6354 96.1781 91.6354 96.1781V94.2239C91.41 93.58 90.071 93.9728 88.9839 94.4235L89.4532 82.5534L89.9835 83.0878C91.1475 88.0651 98.8713 105.074 99.0012 105.357Z" fill="white"/>
<path opacity="0.1" d="M81.101 148.179C81.2468 148.179 88.6604 147.232 88.6604 147.232C88.6604 147.232 93.1493 157.95 92.855 160.558C92.5607 163.165 92.0278 165.474 90.2221 165.065C88.4164 164.656 80.5044 165.387 80.5044 165.387L81.101 148.179Z" fill="black"/>
<path d="M80.8068 147.467C80.9526 147.467 88.3662 146.521 88.3662 146.521C88.3662 146.521 92.8525 157.242 92.5608 159.846C92.2692 162.451 91.7309 164.762 89.9279 164.353C88.1249 163.945 80.2102 164.675 80.2102 164.675L80.8068 147.467Z" fill="white"/>
<path d="M86.3935 142.435C86.3935 142.435 93.1972 146.875 93.343 148.23C93.4889 149.586 89.8802 147.638 89.1006 147.403C88.5876 147.253 88.0653 147.154 87.5389 147.107L82.3394 147.277L86.3935 142.435Z" fill="#CF6F80"/>
<path opacity="0.1" d="M96.8084 106.622C97.2038 106.622 97.5243 106.233 97.5243 105.753C97.5243 105.273 97.2038 104.884 96.8084 104.884C96.413 104.884 96.0925 105.273 96.0925 105.753C96.0925 106.233 96.413 106.622 96.8084 106.622Z" fill="black"/>
<path d="M96.8084 106.268C97.2038 106.268 97.5243 105.879 97.5243 105.399C97.5243 104.919 97.2038 104.529 96.8084 104.529C96.413 104.529 96.0925 104.919 96.0925 105.399C96.0925 105.879 96.413 106.268 96.8084 106.268Z" fill="#3F3D56"/>
<path opacity="0.1" d="M98.1263 144.251C98.5217 144.251 98.8422 143.862 98.8422 143.382C98.8422 142.902 98.5217 142.513 98.1263 142.513C97.7309 142.513 97.4104 142.902 97.4104 143.382C97.4104 143.862 97.7309 144.251 98.1263 144.251Z" fill="black"/>
<path d="M98.1263 143.894C98.5217 143.894 98.8422 143.505 98.8422 143.025C98.8422 142.544 98.5217 142.155 98.1263 142.155C97.7309 142.155 97.4104 142.544 97.4104 143.025C97.4104 143.505 97.7309 143.894 98.1263 143.894Z" fill="#3F3D56"/>
<path opacity="0.1" d="M97.5218 125.437C97.9172 125.437 98.2377 125.047 98.2377 124.567C98.2377 124.087 97.9172 123.698 97.5218 123.698C97.1264 123.698 96.8059 124.087 96.8059 124.567C96.8059 125.047 97.1264 125.437 97.5218 125.437Z" fill="black"/>
<path d="M97.5218 125.082C97.9172 125.082 98.2377 124.693 98.2377 124.213C98.2377 123.733 97.9172 123.344 97.5218 123.344C97.1264 123.344 96.8059 123.733 96.8059 124.213C96.8059 124.693 97.1264 125.082 97.5218 125.082Z" fill="#3F3D56"/>
<path d="M114.025 146.926C114.025 146.926 114.513 147.815 114.025 148.23C113.537 148.646 114.072 149.65 114.072 149.65C114.072 149.65 112.855 150.516 113.391 151.295C113.927 152.074 113.587 155.593 113.587 155.593L112.124 158.536C112.124 158.536 112.211 160.432 112.216 162.995C112.216 166.993 112.023 172.615 110.952 175.177L111.1 196.204C111.1 196.204 105.975 198.476 101.685 197.784L101.048 164.044C101.048 164.044 101.976 144.911 102.318 141.241C102.519 139.336 102.6 137.414 102.562 135.494C102.562 135.494 102.416 129.751 101.926 127.085C101.926 127.085 101.396 115.537 101.343 112.34C101.319 110.811 101.385 106.348 101.459 102.105C101.542 97.4659 101.634 93.0907 101.634 93.0907L100.667 83.7929C100.667 83.7929 101.634 83.6738 101.926 84.147C102.057 84.2952 102.199 84.4278 102.35 84.543C104.021 85.9145 109.923 90.132 109.923 90.132C109.923 90.132 113.189 91.7095 113.972 93.9696C114.754 96.2297 115.297 97.833 115.677 98.4768C116.056 99.1207 116.263 102.147 116.263 102.147C116.263 102.147 117.387 107.717 118.264 108.66C119.142 109.603 119.784 115.604 119.784 115.604L112.028 123.009C112.028 123.009 111.347 135.327 111.201 135.803C111.055 136.28 114.025 146.926 114.025 146.926Z" fill="white"/>
<path d="M114.319 146.926C114.319 146.926 114.804 147.815 114.319 148.23C113.834 148.646 114.364 149.65 114.364 149.65C114.364 149.65 113.155 150.526 113.685 151.305C114.215 152.084 113.881 155.603 113.881 155.603L112.418 158.546C112.418 158.546 112.505 160.442 112.513 163.004C112.513 167.003 112.32 172.624 111.248 175.187L111.394 196.213C111.394 196.213 106.261 198.486 101.976 197.794L101.342 164.054C101.342 164.054 102.27 144.921 102.612 141.251C102.813 139.345 102.894 137.424 102.854 135.504C102.854 135.504 102.708 129.76 102.22 127.095C102.22 127.095 101.69 115.546 101.634 112.349C101.61 110.82 101.679 106.358 101.751 102.115C101.833 97.4756 101.926 93.1003 101.926 93.1003L100.648 83.677C100.648 83.677 101.926 83.677 102.22 84.1567C102.349 84.3066 102.492 84.4394 102.644 84.5527C104.315 85.9242 110.22 90.1416 110.22 90.1416C110.22 90.1416 113.484 91.7192 114.266 93.9792C115.048 96.2393 115.591 97.8426 115.973 98.4865C116.355 99.1304 116.557 102.157 116.557 102.157C116.557 102.157 117.681 107.726 118.559 108.67C119.436 109.613 120.07 115.601 120.07 115.601L112.314 123.006C112.314 123.006 111.633 135.324 111.484 135.8C111.336 136.277 114.319 146.926 114.319 146.926Z" fill="white"/>
<path opacity="0.1" d="M105.031 95.8337L105.731 98.3126L102.045 102.82C102.127 98.1839 102.22 93.8054 102.22 93.8054L100.942 84.382C100.942 84.382 102.22 84.382 102.514 84.8617C102.644 85.0113 102.786 85.143 102.939 85.2545L106.073 96.2329L105.031 95.8337Z" fill="black"/>
<path d="M104.736 95.1222L105.439 97.6011L101.753 102.108C101.836 97.4692 101.928 93.0939 101.928 93.0939L100.648 83.6705C100.648 83.6705 101.928 83.6705 102.22 84.1502C102.35 84.2993 102.492 84.4319 102.644 84.5462L105.781 95.5214L104.736 95.1222Z" fill="white"/>
<path opacity="0.1" d="M104.736 70.5931C104.738 71.7532 104.588 72.9064 104.291 74.0089C104.241 74.0184 104.19 74.0156 104.14 74.0007C104.091 73.9858 104.045 73.959 104.004 73.922C103.936 71.0245 102.761 68.3041 101.316 65.9893C100.91 65.2904 100.418 64.6714 99.8576 64.1542C99.2907 63.6372 98.5855 63.395 97.8796 63.4749C97.0841 63.6069 96.3815 64.2636 95.5781 64.3473C94.5175 64.4536 93.5682 63.5618 92.5156 63.5167C92.0877 63.5217 91.6655 63.6374 91.2774 63.8561C90.8892 64.0748 90.5439 64.3916 90.2645 64.7852C89.7115 65.5795 89.3006 66.5049 89.0581 67.5024C88.6412 69.015 88.4141 70.5953 88.3846 72.1899C88.3713 73.0914 88.2997 74.2214 87.6104 74.5498C87.6623 73.8868 87.6002 73.218 87.4281 72.5857C87.2561 71.9534 86.9777 71.3713 86.6107 70.8764L86.5948 70.8571C86.5948 70.7669 86.5948 70.6832 86.5948 70.5931C86.5742 69.1307 86.7937 67.6779 87.2404 66.3196C87.687 64.9612 88.352 63.7245 89.1964 62.6814C90.0409 61.6384 91.048 60.81 92.1589 60.2445C93.2698 59.679 94.4623 59.3878 95.6669 59.3878C96.8715 59.3878 98.064 59.679 99.1749 60.2445C100.286 60.81 101.293 61.6384 102.137 62.6814C102.982 63.7245 103.647 64.9612 104.093 66.3196C104.54 67.6779 104.76 69.1307 104.739 70.5931H104.736Z" fill="black"/>
<path d="M99.4228 53.1018C98.045 52.3148 96.4779 52.166 95.016 52.6832C94.2816 52.9472 93.5895 53.3754 92.8445 53.5911C91.2536 54.0579 89.3975 53.5525 88.032 54.6825C87.2737 55.3264 86.8177 56.3438 86.3934 57.3321L85.3328 59.7854C84.7548 61.1279 84.1715 62.4929 83.9302 63.9707C83.6889 65.4484 83.8347 67.1032 84.6063 68.2912C85.1684 69.1572 85.9983 69.7013 86.6082 70.5158C86.9735 71.0113 87.2507 71.593 87.4222 72.2245C87.5938 72.8561 87.656 73.5239 87.6051 74.186C88.2972 73.8641 88.3635 72.7308 88.3794 71.8294C88.4089 70.2347 88.636 68.6545 89.0529 67.1418C89.2949 66.144 89.7058 65.2185 90.2593 64.4246C90.5389 64.0313 90.8842 63.7148 91.2724 63.4961C91.6605 63.2774 92.0825 63.1615 92.5104 63.1561C93.571 63.2012 94.5229 64.0898 95.5729 63.9835C96.3683 63.9031 97.0736 63.2431 97.8744 63.1143C98.5804 63.0332 99.2859 63.2755 99.8524 63.7936C100.413 64.3101 100.904 64.9291 101.308 65.6287C102.756 67.9435 103.93 70.6575 103.999 73.5614C104.299 73.8287 104.731 73.481 104.88 73.0689C105.028 72.6568 105.033 72.1738 105.222 71.7811C105.439 71.3271 105.855 71.0857 106.181 70.7444C107.009 69.8784 107.216 68.42 107.184 67.0968C107.152 65.7736 106.94 64.431 107.147 63.1304C107.271 62.332 107.552 61.585 107.706 60.7963C107.86 60.0075 107.878 59.1222 107.515 58.4429C106.985 57.4448 105.869 57.2484 104.895 57.1551C103.79 57.0392 102.801 57.1873 102.096 56.0572C101.764 55.4675 101.392 54.9139 100.982 54.4024C100.841 54.235 99.4228 53.1726 99.4228 53.1018Z" fill="#512E4E"/>
<path opacity="0.1" d="M70.6038 120.994L67.833 114.774L66.9553 124.371C66.9553 124.371 67.4432 128.634 67.3451 129.287C67.247 129.941 69.3443 135.8 69.3443 135.8C69.3443 135.8 76.2726 150.783 79.1018 151.556L88.6604 143.263L86.1256 139.354C86.1256 139.354 85.2479 138.939 85.0279 139.354C85.0279 139.354 80.3215 129.522 79.8336 128.811C79.3457 128.099 79.4412 126.679 79.4412 126.679C79.4412 126.679 78.7094 125.733 78.9533 124.844C79.1972 123.956 77.5401 120.875 77.5401 120.875L79.0514 119.159L70.6038 120.994Z" fill="black"/>
<path d="M67.9788 114.065L67.247 114.774L66.3694 124.371C66.3694 124.371 66.8573 128.634 66.7592 129.287C66.661 129.941 68.761 135.8 68.761 135.8C68.761 135.8 75.6867 150.783 78.5159 151.556L88.0771 143.263L85.5396 139.354C85.5396 139.354 84.662 138.939 84.4419 139.354C84.4419 139.354 79.7355 129.522 79.2477 128.811C78.7598 128.099 78.8579 126.679 78.8579 126.679C78.8579 126.679 78.1261 125.733 78.37 124.844C78.614 123.956 76.9541 120.875 76.9541 120.875L78.4655 119.159L67.9788 114.065Z" fill="white"/>
<path opacity="0.1" d="M113.391 151.662C113.921 152.445 113.587 155.957 113.587 155.957L112.123 158.9C112.123 158.9 112.211 160.799 112.216 163.359L109.756 164.292C109.533 164.377 109.298 164.395 109.068 164.346C108.839 164.298 108.622 164.183 108.437 164.012C108.251 163.841 108.102 163.618 108.002 163.363C107.901 163.108 107.853 162.827 107.86 162.544L108.284 145.928L114.025 148.594C113.537 149.006 114.072 150.017 114.072 150.017C114.072 150.017 112.855 150.88 113.391 151.662Z" fill="black"/>
<path d="M113.685 151.305C114.215 152.087 113.881 155.603 113.881 155.603L112.418 158.546C112.418 158.546 112.505 160.442 112.513 163.004L110.008 163.954C109.79 164.036 109.559 164.054 109.334 164.006C109.11 163.958 108.898 163.846 108.716 163.678C108.535 163.511 108.389 163.293 108.291 163.043C108.192 162.793 108.145 162.518 108.152 162.241L108.578 145.574L114.322 148.24C113.831 148.652 114.367 149.66 114.367 149.66C114.367 149.66 113.155 150.526 113.685 151.305Z" fill="white"/>
<path d="M115.586 143.385C115.586 143.385 115.196 146.408 114.221 146.585C113.245 146.762 112.808 151.476 111.834 151.308C110.861 151.141 111.506 146.926 111.54 146.109C111.575 145.291 110.48 141.904 111.299 141.135C112.118 140.365 114.711 141.135 114.711 141.135L115.586 143.385Z" fill="#CF6F80"/>
<path opacity="0.1" d="M117.663 120.105L119.503 115.598C119.503 115.598 120.234 119.033 120.234 120.868C120.234 122.703 121.258 122.884 121.258 122.884C121.258 122.884 122.379 124.493 121.788 125.665C121.197 126.837 120.958 129.754 120.958 129.754C120.958 129.754 121.152 135.32 120.274 136.09C119.397 136.859 119.214 138.698 119.214 138.698C119.214 138.698 117.602 142.191 117.652 143.021C117.702 143.852 115.409 149.476 115.409 149.476C115.409 149.476 116.53 142.487 109.994 139.467C109.994 139.467 109.944 137.094 110.432 136.444C110.92 135.794 111.681 135.497 111.203 132.21C110.726 128.923 111.066 124.996 111.066 124.207C111.066 123.418 112.529 118.499 112.529 118.499L117.663 120.105Z" fill="black"/>
<path d="M118.458 114.954L120.065 115.598C120.065 115.598 120.799 119.033 120.799 120.868C120.799 122.703 121.823 122.884 121.823 122.884C121.823 122.884 122.944 124.493 122.353 125.665C121.762 126.837 121.526 129.754 121.526 129.754C121.526 129.754 121.719 135.32 120.841 136.09C119.964 136.859 119.768 138.698 119.768 138.698C119.768 138.698 118.158 142.191 118.209 143.021C118.259 143.852 115.963 149.476 115.963 149.476C115.963 149.476 117.087 142.487 110.548 139.467C110.548 139.467 110.501 137.094 110.989 136.444C111.476 135.794 112.237 135.497 111.76 132.21C111.283 128.923 111.622 124.996 111.622 124.207C111.622 123.418 113.086 118.499 113.086 118.499L118.458 114.954Z" fill="white"/>
<path opacity="0.1" d="M82.9678 231.779C82.9678 231.779 85.5291 229.824 87.2102 231.244C88.8912 232.664 82.9678 231.779 82.9678 231.779Z" fill="black"/>
<path opacity="0.1" d="M102.87 225.736C102.87 225.736 105.137 225.381 107.041 227.87C108.944 230.359 102.87 225.736 102.87 225.736Z" fill="black"/>
<g opacity="0.1">
<path d="M106.187 70.0393C105.861 70.3806 105.442 70.6253 105.224 71.0792C105.039 71.4688 105.033 71.9485 104.885 72.367C104.736 72.7855 104.304 73.1268 104.005 72.8628C103.936 69.9653 102.758 67.2449 101.313 64.9268C100.909 64.2273 100.418 63.6082 99.8576 63.0918C99.2901 62.5737 98.5838 62.3315 97.877 62.4124C97.0815 62.5444 96.3815 63.2012 95.5781 63.2817C94.5175 63.3912 93.5657 62.4994 92.513 62.4543C92.0852 62.4595 91.6633 62.5756 91.2755 62.7949C90.8878 63.0143 90.5431 63.3317 90.2646 63.726C89.711 64.5187 89.3001 65.4431 89.0581 66.44C88.6415 67.9527 88.4144 69.5329 88.3847 71.1275C88.3687 72.0258 88.2998 73.1461 87.6157 73.4809C87.6316 73.7188 87.6316 73.9578 87.6157 74.1957C88.3051 73.8737 88.3741 72.7405 88.39 71.839C88.4195 70.2443 88.6465 68.6641 89.0634 67.1515C89.3054 66.1537 89.7163 65.2282 90.2699 64.4343C90.5489 64.041 90.8938 63.7245 91.2815 63.5058C91.6692 63.2871 92.0908 63.1712 92.5183 63.1658C93.5789 63.2109 94.5335 64.0994 95.5834 63.9932C96.3789 63.9127 97.0842 63.2527 97.8823 63.1239C98.5891 63.043 99.2954 63.2852 99.8629 63.8033C100.424 64.3197 100.915 64.9388 101.319 65.6383C102.764 67.9531 103.941 70.6671 104.01 73.5711C104.309 73.8383 104.742 73.4906 104.89 73.0785C105.039 72.6664 105.044 72.1835 105.23 71.7907C105.447 71.3368 105.866 71.0953 106.192 70.7541C107.019 69.888 107.226 68.4296 107.194 67.1064C107.194 67.0646 107.194 67.0227 107.194 66.9841C107.144 68.1302 106.892 69.2989 106.187 70.0393Z" fill="black"/>
<path d="M86.6136 69.8108C86.0037 68.9962 85.1712 68.4522 84.6117 67.5893C84.1406 66.8255 83.8716 65.9061 83.8401 64.9526C83.7567 66.1441 84.0307 67.3321 84.6117 68.2976C85.1712 69.1637 86.0037 69.7077 86.6136 70.5223C87.1991 71.319 87.5506 72.3289 87.6132 73.394C87.6538 72.7458 87.5862 72.0943 87.4144 71.4786C87.2426 70.8629 86.9703 70.2956 86.6136 69.8108Z" fill="black"/>
<path d="M107.712 60.0912C107.555 60.88 107.277 61.6301 107.149 62.4253C107.074 62.9567 107.046 63.4964 107.067 64.0351C107.076 63.7282 107.104 63.4226 107.149 63.1207C107.277 62.3223 107.555 61.5754 107.712 60.7866C107.803 60.3516 107.832 59.9009 107.799 59.4538C107.783 59.6685 107.753 59.8816 107.712 60.0912Z" fill="black"/>
</g>
<path opacity="0.1" d="M35.1933 244.869C49.4622 244.869 61.0294 242.613 61.0294 239.83C61.0294 237.048 49.4622 234.792 35.1933 234.792C20.9244 234.792 9.35718 237.048 9.35718 239.83C9.35718 242.613 20.9244 244.869 35.1933 244.869Z" fill="#36F5D3"/>
<path d="M36.0258 143.311H34.3633V188.76H36.0258V143.311Z" fill="#535461"/>
<path d="M46.4727 188.622L46.3693 190.669L46.2208 193.567L46.1598 194.771L46.014 197.668L45.9504 198.872L45.8019 201.77L44.1261 234.631C44.0533 236.045 43.5395 237.372 42.6893 238.342C41.8391 239.312 40.7164 239.852 39.5497 239.853H30.8369C29.6704 239.852 28.548 239.312 27.6983 238.342C26.8485 237.372 26.3352 236.045 26.2631 234.631L24.5953 201.747L24.4468 198.85L24.3858 197.646L24.2373 194.748L24.1763 193.544L24.0279 190.647L23.9218 188.599C23.9034 188.205 23.9515 187.811 24.0631 187.44C24.1748 187.069 24.3476 186.73 24.5711 186.443C24.7945 186.157 25.0639 185.928 25.3626 185.773C25.6613 185.617 25.9831 185.537 26.3081 185.537H44.1288C44.4527 185.541 44.7725 185.625 45.0686 185.784C45.3647 185.943 45.6308 186.175 45.8504 186.464C46.0701 186.753 46.2386 187.093 46.3456 187.464C46.4527 187.836 46.4959 188.229 46.4727 188.622Z" fill="#3F3D56"/>
<path d="M46.3691 190.669L46.2206 193.557H24.1656L24.0171 190.669H46.3691Z" fill="#9D9CB5"/>
<path d="M46.1597 194.761L46.0138 197.652H24.375L24.2266 194.761H46.1597Z" fill="#9D9CB5"/>
<path d="M45.9502 198.86L45.8044 201.747H24.5845L24.436 198.86H45.9502Z" fill="#9D9CB5"/>
<path d="M21.4797 160.345C31.1603 168.851 35.2012 182.154 35.2012 182.154C35.2012 182.154 23.5346 181.668 13.8514 173.162C4.16817 164.656 0.135254 151.356 0.135254 151.356C0.135254 151.356 11.7965 151.839 21.4797 160.345Z" fill="#36F5D3"/>
<path d="M0.127197 151.356C0.127197 151.356 12.2392 159.518 16.1236 166.275C20.0081 173.033 35.2011 182.154 35.2011 182.154" stroke="#535461" stroke-width="2" stroke-miterlimit="10"/>
<path d="M27.7292 143.211C32.9977 147.838 35.2011 155.078 35.2011 155.078C35.2011 155.078 28.8507 154.814 23.5796 150.188C18.3084 145.561 16.1104 138.318 16.1104 138.318C16.1104 138.318 22.458 138.582 27.7292 143.211Z" fill="#36F5D3"/>
<path d="M16.1104 138.318C16.1104 138.318 22.702 142.76 24.8152 146.437C26.9284 150.114 35.2011 155.078 35.2011 155.078" stroke="#535461" stroke-width="2" stroke-miterlimit="10"/>
<path d="M42.8506 154.711C36.7973 162.789 35.5166 173.345 35.5166 173.345C35.5166 173.345 44.0517 170.802 50.0998 162.721C56.1478 154.64 57.4338 144.087 57.4338 144.087C57.4338 144.087 48.904 146.634 42.8506 154.711Z" fill="#36F5D3"/>
<path d="M57.4391 144.09C57.4391 144.09 49.5536 152.371 47.5491 158.075C45.5445 163.78 35.5166 173.345 35.5166 173.345" stroke="#535461" stroke-width="2" stroke-miterlimit="10"/>
<path d="M265.061 151.868C265.061 151.868 260.684 125.424 262.359 122.133C262.359 122.133 262.42 119.075 262.32 115.176C262.32 115.028 262.32 114.88 262.32 114.729C262.614 114.967 262.922 115.182 263.24 115.373C264.784 116.336 266.556 116.614 268.251 116.158L266.925 114.365C266.607 113.937 266.276 113.473 266.207 112.906C266.138 112.34 266.329 111.834 266.493 111.329C267.753 107.466 267.819 102.607 265.393 99.6584C263.343 97.1794 262.845 93.9793 260.62 91.716C258.995 90.058 258.101 87.6273 257.258 85.2771C256.545 83.2907 255.826 81.2881 255.418 79.1826C255.1 77.5375 254.972 75.8344 254.535 74.2279C254.097 72.6214 253.278 71.0599 251.997 70.342C251.541 70.0876 251.035 69.9428 250.619 69.6047C250.072 69.1572 249.744 68.4296 249.349 67.7922C247.341 64.5727 240.62 66.469 237.438 67.7761C236.573 68.1052 235.772 68.6441 235.084 69.3601L235.113 69.3021C235.137 69.2538 235.166 69.2055 235.192 69.1572C234.844 69.4992 234.543 69.9068 234.301 70.3645C233.837 71.2563 233.644 72.2962 233.257 73.262C232.79 74.4049 230.194 77.5954 231.31 78.88C231.389 78.9663 231.478 79.0359 231.576 79.086C231.995 79.2978 232.456 79.3538 232.901 79.247L232.854 79.3854C232.472 80.5188 232.277 81.7316 232.278 82.9558C232.278 88.2454 235.871 92.5337 240.307 92.5337C241.141 92.5347 241.97 92.3794 242.765 92.0733C242.783 92.1957 242.799 92.318 242.818 92.4404C242.818 92.4887 242.831 92.5369 242.837 92.5852L242.696 92.8235C242.689 92.8088 242.681 92.7948 242.672 92.7816L238.509 99.8451C237.873 100.389 234.209 103.609 234.002 106.023C233.784 108.666 233.567 111.76 233.567 111.76L233.538 112.424C233.356 112.608 233.143 112.743 232.914 112.818C232.685 112.893 232.446 112.906 232.212 112.858C230.913 112.601 230.913 118.653 230.913 118.653C230.913 118.653 230.048 119.619 229.454 118.782C228.861 117.945 227.291 120.781 227.291 120.781L217.454 121.296L217.228 121.312L216.698 119.32C216.641 119.109 216.518 118.935 216.356 118.834C216.193 118.734 216.005 118.715 215.831 118.782C215.79 118.798 215.75 118.819 215.712 118.843L215.675 118.869L215.606 118.927L215.571 118.965C215.552 118.986 215.535 119.009 215.518 119.033L215.486 119.078L215.47 119.097C215.409 119.2 215.369 119.319 215.352 119.444C215.336 119.57 215.343 119.698 215.375 119.819L215.831 121.528C213.933 121.992 211.992 123.299 213.575 126.898L205.551 125.099L208.147 127.745L221.548 131.103C221.37 131.489 221.487 132.049 222.041 132.838C224.427 136.241 228.776 137.165 230.526 137.403C230.988 138.659 231.565 139.847 232.246 140.945L232.095 144.335C232.095 144.335 227.665 170.174 226.853 171.485C227.263 170.921 227.638 170.322 227.975 169.691C226.689 175 224.891 182.267 224.419 183.355C223.661 185.093 222.958 192.128 223.823 192.578C224.088 192.717 224.846 192.649 225.928 192.549V193.132L225.88 215.214C225.88 215.214 226.098 228.759 225.501 230.05C224.904 231.341 224.745 234.048 224.745 234.048C224.745 234.048 222.359 239.389 220.469 241.537C220.456 241.553 220.441 241.569 220.426 241.582L220.368 241.08C220.368 241.08 218.095 244.563 213.068 244.367C213.068 244.367 210.043 246.756 214.529 246.884C219.016 247.013 224.745 246.691 224.745 246.691C224.745 246.691 228.747 239.286 232.098 240.252V245.864H233.124V240.162C233.6 239.782 234.007 239.288 234.321 238.711C234.635 238.133 234.85 237.485 234.951 236.804C235.039 236.103 234.974 235.385 234.764 234.723C234.554 234.061 234.205 233.476 233.753 233.028C233.549 232.804 233.386 232.532 233.273 232.229C233.16 231.925 233.101 231.596 233.098 231.263L233.06 231.302C233.06 231.189 233.037 231.074 233.026 230.954C232.732 228.057 232.363 222.078 233.665 217.655C235.449 211.589 235.99 203.141 234.691 198.113C234.272 196.505 233.928 194.87 233.66 193.216C233.628 193.007 233.599 192.807 233.572 192.62C234.46 192.766 235.34 192.981 236.205 193.264C239.215 194.272 245.798 194.459 251.419 194.404C251.433 194.591 251.449 194.787 251.467 194.983C251.567 196.348 251.777 197.698 252.093 199.014C252.798 201.59 253.122 212.945 253.122 212.945C253.122 212.945 254.031 222.281 253.535 226.08C253.27 228.192 253.005 230.314 252.854 232.445V232.487C252.854 232.487 251.364 237.638 250.274 240.436C250.247 240.507 250.218 240.577 250.192 240.645C249.901 240.677 249.615 240.754 249.341 240.874C249.341 240.874 247.88 244.415 246.424 245.001C244.968 245.587 245.451 247.515 248.747 246.807C252.042 246.099 257.019 245.519 257.019 245.519L257.234 241.907L258.247 240.368L257.982 243.971L259.061 243.713L258.918 239.331L260.575 236.814C260.575 236.814 262.577 234.65 259.602 230.394V230.488C259.57 230.426 259.541 230.362 259.506 230.301V230.282C259.013 229.354 258.621 227.625 259.339 224.557C260.639 219.013 261.394 213.981 261.394 213.981C261.394 213.981 264.295 200.502 260.808 194.124H260.962C260.605 193.226 260.352 192.273 260.212 191.291C260.194 191.175 260.178 191.056 260.164 190.933C262.744 190.753 265.276 190.186 267.342 188.963C267.334 188.95 266.09 156.962 265.061 151.868ZM232.307 129.558V129.622L231.777 129.654L232.307 129.558ZM230.489 129.863C230.401 129.887 230.32 129.934 230.25 130.002C230.022 130.393 229.879 130.849 229.834 131.325L229.006 131.1C229.006 131.1 228.426 130.948 227.59 130.778L227.195 130.295C228.282 130.185 229.412 130.024 230.489 129.863Z" fill="url(#paint1_linear_3_27542)"/>
<path d="M257.86 239.377L257.544 243.938L258.602 243.681L258.443 238.733L257.86 239.377Z" fill="#1D2366"/>
<path d="M233.723 217.716C232.448 222.127 232.808 228.079 233.095 230.971C233.201 232.039 233.299 232.69 233.299 232.69C233.299 232.69 231.393 237.963 231.233 238.163C231.074 238.362 225.623 242.403 225.623 242.403L221.813 245.104C221.813 245.104 217.947 243.047 219.8 242.338C220.179 242.154 220.52 241.872 220.8 241.511C222.656 239.37 224.987 234.048 224.987 234.048C224.987 234.048 225.146 231.347 225.729 230.063C226.312 228.778 226.1 215.279 226.1 215.279L226.145 193.274V190.405L233.397 190.47C233.443 191.444 233.547 192.412 233.71 193.367C233.97 195.016 234.308 196.646 234.72 198.248C235.998 203.267 235.468 211.673 233.723 217.716Z" fill="#FFB0B1"/>
<path opacity="0.1" d="M233.299 232.69C233.299 232.69 231.393 237.963 231.233 238.163C231.074 238.362 225.623 242.403 225.623 242.403L221.813 245.104C221.813 245.104 217.947 243.047 219.8 242.338C220.179 242.154 220.52 241.872 220.8 241.511L220.964 242.918L222.234 242.854L233.105 230.977C233.201 232.039 233.299 232.69 233.299 232.69Z" fill="black"/>
<path d="M233.166 231.276L222.234 243.233L220.964 243.298L220.699 241.044C220.699 241.044 218.477 244.515 213.54 244.322C213.54 244.322 210.576 246.701 214.969 246.83C219.363 246.958 224.973 246.636 224.973 246.636C224.973 246.636 228.892 239.232 232.172 240.197V245.79H233.18V240.146C233.648 239.763 234.048 239.269 234.355 238.694C234.662 238.118 234.87 237.473 234.967 236.798C235.054 236.102 234.992 235.39 234.788 234.732C234.583 234.073 234.242 233.49 233.798 233.037C233.599 232.812 233.441 232.539 233.332 232.236C233.224 231.933 233.167 231.607 233.166 231.276Z" fill="#1D2366"/>
<path d="M258.867 224.593C258.162 227.651 258.547 229.374 259.029 230.298V230.317C259.648 231.458 260.079 232.734 260.297 234.074L260.339 234.364L255.365 243.169L252.666 244.457C252.666 244.457 248.325 242.657 249.118 242.142C249.317 242.016 249.627 241.347 249.982 240.423C251.043 237.638 252.507 232.5 252.507 232.5V232.458C252.66 230.336 252.904 228.221 253.175 226.116C253.66 222.326 252.769 213.025 252.769 213.025C252.769 213.025 252.451 201.715 251.762 199.143C251.45 197.835 251.243 196.494 251.144 195.138C251.001 193.528 250.969 192.202 250.969 192.202C250.969 192.202 253.827 187.373 259.066 192.588C259.485 193.004 259.854 193.49 260.161 194.03C263.781 200.283 260.867 214.055 260.867 214.055C260.867 214.055 260.138 219.065 258.867 224.593Z" fill="#FFB0B1"/>
<path opacity="0.1" d="M260.347 234.364L255.373 243.169L252.673 244.457C252.673 244.457 248.333 242.657 249.126 242.142C249.325 242.016 249.635 241.347 249.99 240.423C251.828 240.403 252.78 242.528 252.78 242.528L255.108 242.078C255.108 242.078 258.178 234.75 258.867 234.303C259.557 233.855 258.973 230.958 258.973 230.958V230.22C258.992 230.246 259.008 230.275 259.029 230.301V230.32C259.648 231.461 260.078 232.737 260.296 234.077L260.347 234.364Z" fill="black"/>
<path d="M252.939 242.718C252.939 242.718 251.613 239.763 249.073 240.854C249.073 240.854 247.644 244.396 246.214 244.969C244.785 245.542 245.263 247.473 248.492 246.768C251.722 246.063 256.59 245.481 256.59 245.481L256.802 241.878L260.084 236.801C260.084 236.801 262.041 234.647 259.13 230.407V231.144C259.13 231.144 259.713 234.042 259.024 234.489C258.334 234.937 255.275 242.268 255.275 242.268L252.939 242.718Z" fill="#1D2366"/>
<path opacity="0.1" d="M233.405 190.463C233.451 191.437 233.556 192.406 233.718 193.361C230.733 192.83 227.962 193.094 226.146 193.267V190.399L233.405 190.463Z" fill="black"/>
<path opacity="0.1" d="M260.456 194.832C260.456 194.832 256.213 195.083 251.154 195.135C251.011 193.525 250.979 192.199 250.979 192.199C250.979 192.199 253.838 187.369 259.077 192.585C259.496 193.001 259.865 193.486 260.172 194.027C260.254 194.302 260.349 194.57 260.456 194.832Z" fill="black"/>
<path d="M260.456 194.253C260.456 194.253 241.874 195.344 236.21 193.415C230.547 191.487 224.934 193.158 224.088 192.71C223.242 192.263 223.929 185.254 224.671 183.519C225.414 181.784 229.486 164.234 229.486 164.234L233.405 139.425L237.533 138.044L237.825 137.944L245.019 135.536L250.29 133.769C250.29 133.769 260.771 183.454 259.872 187.118C259.546 188.521 259.493 189.997 259.718 191.429C259.856 192.407 260.104 193.357 260.456 194.253Z" fill="#1D2366"/>
<path d="M219.745 122.459C219.745 122.459 216.033 127.288 218.843 129.979C221.654 132.671 223.502 130.237 223.502 130.237L219.745 122.459Z" fill="#C7DAF5"/>
<path opacity="0.1" d="M219.745 122.459C219.745 122.459 216.033 127.288 218.843 129.979C221.654 132.671 223.502 130.237 223.502 130.237L219.745 122.459Z" fill="black"/>
<path d="M249.736 90.7083C249.736 90.7083 249.301 91.2105 248.646 91.951C247.713 93.0102 246.331 94.5588 245.106 95.8562C243.409 97.6494 242.009 98.9662 242.51 97.8426C243.011 96.719 242.916 94.7616 242.667 92.9297C242.648 92.8074 242.632 92.685 242.614 92.5659C242.407 91.2205 242.134 89.8917 241.794 88.5867C241.794 88.5867 244.536 84.2855 246.053 82.5888C246.617 81.9449 247.013 81.6809 247.036 82.1284C247.063 82.7305 247.434 84.0601 247.896 85.4702C247.909 85.5153 247.922 85.5571 247.938 85.6022C248.246 86.5681 248.593 87.5597 248.898 88.416C249.364 89.7296 249.736 90.7083 249.736 90.7083Z" fill="#FFB0B1"/>
<path opacity="0.1" d="M247.938 85.6022C247.68 87.2848 247.055 88.8525 246.128 90.1415C245.201 91.4305 244.005 92.3934 242.667 92.9297C242.456 91.4601 242.165 90.0091 241.794 88.5867C241.794 88.5867 246.957 80.4897 247.036 82.1284C247.055 82.7498 247.458 84.1277 247.938 85.6022Z" fill="black"/>
<path opacity="0.1" d="M242.153 95.0932L242.821 93.9503C242.821 93.9503 243.263 97.2277 244.892 95.7822C246.52 94.3366 246.599 106.661 246.599 106.661L244.852 138.382L232.225 137.464L232.583 122.137L234.012 114.41L237.547 103.177L239.65 99.4652L242.153 95.0932Z" fill="black"/>
<path d="M246.599 106.857L245.008 135.539L244.841 138.578L237.801 138.067L237.536 138.047L232.233 137.661L232.591 122.33L234.02 114.603L237.555 103.37L239.657 99.6584L242.16 95.2703L242.829 94.1306C242.829 94.1306 243.271 97.408 244.899 95.9624L244.934 95.9335C246.525 94.7101 246.599 106.857 246.599 106.857Z" fill="#1D2366"/>
<path d="M234.198 111.918C234.198 111.918 233.564 113.528 232.292 113.267C231.019 113.006 231.022 119.062 231.022 119.062C231.022 119.062 230.176 120.028 229.592 119.191C229.009 118.354 227.471 121.184 227.471 121.184L217.836 121.699C217.836 121.699 222.123 124.078 221.283 131.277C221.283 131.277 235.839 130.182 236.317 128.511C236.794 126.84 234.198 111.918 234.198 111.918Z" fill="white"/>
<path opacity="0.03" d="M234.198 111.918C234.198 111.918 233.564 113.528 232.292 113.267C231.019 113.006 231.022 119.062 231.022 119.062C231.022 119.062 230.176 120.028 229.592 119.191C229.009 118.354 227.471 121.184 227.471 121.184L217.836 121.699C217.836 121.699 222.123 124.078 221.283 131.277C221.283 131.277 235.839 130.182 236.317 128.511C236.794 126.84 234.198 111.918 234.198 111.918Z" fill="black"/>
<path d="M206.196 125.482L208.736 128.115L229.645 133.45L227.052 130.237L206.196 125.482Z" fill="white"/>
<path d="M242.192 96.1073C241.845 96.7512 240.851 100.048 240.021 102.926C239.329 105.325 238.751 107.433 238.751 107.433C238.751 107.433 237.401 118.103 236.712 120.031C236.022 121.96 236.396 129.48 236.396 129.48L233.827 148.053C233.827 148.053 232.663 157.631 230.865 163.352C229.091 168.983 227.116 171.623 227.055 171.707C227.85 170.4 232.186 144.663 232.186 144.663L233.617 112.205C233.617 112.205 233.827 109.12 234.039 106.484C234.251 103.847 238.546 100.248 238.546 100.248L242.688 93.0971C243.104 93.7732 242.826 94.9515 242.192 96.1073Z" fill="white"/>
<path d="M231.393 137.822C231.393 137.822 225.294 137.5 222.34 133.192C219.387 128.885 229.168 131.473 229.168 131.473L231.711 132.181L231.393 137.822Z" fill="#FFB0B1"/>
<path opacity="0.1" d="M259.872 187.121C259.546 188.524 259.493 190 259.718 191.432C253.066 192.005 245.949 189.823 245.949 189.823C244.624 191.304 241.132 193.486 241.132 193.486L239.228 164.833C238.011 160.97 237.533 140.729 237.533 140.729C237.533 140.729 237.642 139.67 237.799 138.083C237.799 138.044 237.799 138.002 237.812 137.964C238.286 133.53 239.228 125.208 239.689 124.084C240.325 122.539 237.732 118.428 237.732 118.428L238.912 106.21L239.055 104.735C241.542 103.387 243.449 99.0789 243.449 99.0789L244.913 95.9657C246.503 94.7262 246.586 106.873 246.586 106.873L244.995 135.555L250.266 133.788C250.266 133.788 260.771 183.458 259.872 187.121Z" fill="black"/>
<path d="M266.7 189.101C259.448 193.473 246.268 189.423 246.268 189.423C244.942 190.904 241.45 193.087 241.45 193.087L239.543 164.434C238.329 160.571 237.852 140.33 237.852 140.33C237.852 140.33 239.384 125.227 240.021 123.685C240.206 123.234 240.116 122.565 239.896 121.844C238.814 118.411 238.416 114.717 238.735 111.062L239.244 105.811L239.384 104.339C241.874 102.987 243.781 98.6797 243.781 98.6797L245.106 95.8594L247.546 90.6632L248.702 88.2035L248.898 88.4192L250.396 90.0676C250.396 90.0676 251.032 90.7115 251.987 91.6773C254.063 93.8022 257.65 97.5432 259.501 99.8322C261.129 101.848 261.644 109.687 261.792 115.588C261.89 119.474 261.832 122.52 261.832 122.52C260.191 125.8 264.483 152.139 264.483 152.139C265.483 157.229 266.7 189.101 266.7 189.101Z" fill="white"/>
<path opacity="0.03" d="M252.78 98.6153C252.78 98.6153 247.803 110.118 248.381 114.49C248.959 118.862 250.603 123.811 249.81 124.967C249.537 125.404 249.185 125.76 248.781 126.005C248.377 126.25 247.931 126.379 247.479 126.38C246.684 126.444 244.563 128.244 244.563 128.437C244.563 128.63 242.603 128.63 240.85 129.532C239.098 130.433 236.51 130.945 236.51 130.945C236.51 130.945 231.472 130.752 231.003 131.331C230.534 131.911 230.051 135.378 231.056 138.144C232.061 140.909 233.177 142.973 234.02 143.35C234.863 143.726 240.214 141.55 244.555 141.035C248.895 140.52 253.607 136.344 253.607 136.344C253.607 136.344 258.796 134.09 259.705 130.301C260.615 126.512 258.594 105.685 258.594 105.685C258.594 105.685 257.067 95.9785 252.78 98.6153Z" fill="black"/>
<path opacity="0.03" d="M252.143 97.6494C252.143 97.6494 247.166 109.156 247.75 113.525C248.333 117.893 249.972 122.845 249.176 124.004C248.905 124.442 248.553 124.798 248.149 125.043C247.745 125.289 247.3 125.417 246.848 125.417C246.053 125.482 243.932 127.281 243.932 127.475C243.932 127.668 241.972 127.668 240.219 128.566C238.467 129.464 235.879 129.979 235.879 129.979C235.879 129.979 230.841 129.786 230.374 130.366C229.908 130.945 229.42 134.416 230.427 137.178C231.435 139.94 232.549 142.007 233.392 142.384C234.235 142.761 239.586 140.584 243.926 140.072C248.267 139.56 252.978 135.378 252.978 135.378C252.978 135.378 258.165 133.125 259.064 129.339C259.962 125.552 257.953 104.719 257.953 104.719C257.953 104.719 256.431 95.0159 252.143 97.6494Z" fill="black"/>
<path d="M252.623 98.0358C252.623 98.0358 247.646 109.542 248.23 113.911C248.813 118.28 250.452 123.231 249.659 124.387C249.387 124.826 249.035 125.183 248.631 125.429C248.226 125.675 247.78 125.803 247.328 125.804C246.533 125.868 244.411 127.668 244.411 127.858C244.411 128.048 242.455 128.051 240.699 128.952C238.944 129.854 236.359 130.366 236.359 130.366C236.359 130.366 231.321 130.172 230.852 130.752C230.382 131.331 229.9 134.802 230.905 137.564C231.91 140.327 233.026 142.393 233.869 142.77C234.712 143.147 240.063 140.97 244.403 140.455C248.744 139.94 253.456 135.765 253.456 135.765C253.456 135.765 258.645 133.511 259.554 129.722C260.464 125.932 258.456 105.106 258.456 105.106C258.456 105.106 256.908 95.4151 252.623 98.0358Z" fill="white"/>
<path opacity="0.1" d="M252.514 128.898C252.514 128.898 248.537 127.932 249.921 129.541C251.305 131.151 251.297 132.561 252.992 132.497C254.686 132.432 252.514 128.898 252.514 128.898Z" fill="black"/>
<path opacity="0.1" d="M259.236 163.532C259.236 163.532 257.438 165.01 260.877 168.416C264.316 171.823 259.236 163.532 259.236 163.532Z" fill="black"/>
<path opacity="0.1" d="M255.805 175.679C255.805 175.873 255.169 182.762 257.55 184.485C259.931 186.207 255.805 175.679 255.805 175.679Z" fill="black"/>
<path d="M218 121.683C216.08 121.763 211.933 122.475 214.084 127.346C215.985 131.657 219.18 128.775 220.978 126.589C220.539 124.551 219.473 122.795 218 121.683Z" fill="#FFB0B1"/>
<path d="M221.001 126.551L221.082 126.451L221.001 126.551Z" fill="#FFB0B1"/>
<path opacity="0.1" d="M251.987 91.8737C249.95 93.5639 248.243 94.9902 247.909 95.2864C246.997 96.1073 245.257 100.927 244.136 103.387C243.242 105.366 240.339 105.875 239.244 106.001L239.384 104.529C241.874 103.177 243.78 98.8696 243.78 98.8696L248.702 88.3935L250.396 90.264C250.396 90.264 251.032 90.9079 251.987 91.8737Z" fill="black"/>
<path d="M251.987 91.6806C249.95 93.3708 248.243 94.797 247.909 95.0964C246.997 95.9141 245.257 100.734 244.136 103.193C243.242 105.173 240.339 105.682 239.244 105.808L239.384 104.336C241.874 102.984 243.78 98.6764 243.78 98.6764L248.702 88.2003L250.396 90.0644C250.396 90.0644 251.032 90.7018 251.987 91.6806Z" fill="#DCE7FF"/>
<path d="M248.068 83.4774C248.069 85.41 247.586 87.2974 246.684 88.8893C245.618 90.7715 244.032 92.1274 242.213 92.711C240.394 93.2947 238.463 93.0673 236.771 92.0702C235.078 91.0731 233.736 89.3723 232.988 87.2765C232.24 85.1807 232.135 82.8287 232.693 80.6472C233.251 78.4658 234.434 76.5994 236.029 75.3868C237.623 74.1742 239.522 73.6956 241.382 74.038C243.242 74.3804 244.94 75.521 246.166 77.2529C247.393 78.9848 248.068 81.1932 248.068 83.4774Z" fill="#FFB0B1"/>
<path opacity="0.1" d="M261.792 115.591C260.715 114.787 259.838 113.643 259.255 112.282C258.812 111.219 258.517 109.993 257.762 109.239C257.08 108.563 256.171 108.399 255.322 108.097C252.533 107.095 250.194 104.005 250.107 100.476C250.065 98.8149 250.491 97.1568 250.298 95.5117C250.188 94.5806 249.883 93.6994 249.412 92.9522C249.179 92.5949 248.922 92.2601 248.646 91.951C248.275 91.526 247.885 91.1139 247.546 90.6632C247.332 90.3841 247.145 90.0763 246.989 89.7457C246.863 89.4751 246.761 89.1891 246.684 88.8925C246.154 86.9222 246.636 84.5849 246.053 82.592L246.021 82.4825C245.801 81.7743 245.353 81.066 244.73 81.0113C244.107 80.9565 243.574 81.5843 242.98 81.8644C241.736 82.4504 240.395 81.4523 239.358 80.435C238.321 79.4176 237.152 78.2554 235.834 78.4808C234.962 78.6321 234.272 79.3532 233.469 79.7267C233.288 79.812 233.1 79.8777 232.909 79.9231C233.589 77.8643 234.839 76.1572 236.442 75.0952C238.046 74.0332 239.905 73.6826 241.698 74.1035C243.492 74.5245 245.109 75.6907 246.271 77.4019C247.434 79.1131 248.069 81.2624 248.068 83.4806C248.069 84.1504 248.011 84.8184 247.896 85.4734C247.909 85.5185 247.922 85.5604 247.938 85.6054C248.246 86.5713 248.593 87.5629 248.898 88.4192L250.396 90.0676C250.396 90.0676 251.032 90.7115 251.987 91.6773C254.063 93.8022 257.65 97.5432 259.501 99.8322C261.129 101.854 261.638 109.69 261.792 115.591Z" fill="black"/>
<path d="M233.376 73.8448C233.755 72.9079 233.943 71.8583 234.397 70.9698C235.062 69.682 236.224 68.8578 237.417 68.3588C240.532 67.0549 247.116 65.1619 249.083 68.3588C249.471 69.0027 249.791 69.7174 250.327 70.1617C250.735 70.4997 251.228 70.6446 251.677 70.8989C252.931 71.6137 253.731 73.1719 254.158 74.7623C254.585 76.3527 254.713 78.059 255.025 79.6977C255.426 81.8 256.128 83.7929 256.828 85.7728C257.653 88.1102 258.528 90.5344 260.119 92.186C262.29 94.4396 262.77 97.6301 264.786 100.103C267.172 103.039 267.095 107.884 265.865 111.731C265.703 112.237 265.52 112.765 265.584 113.302C265.647 113.84 265.976 114.329 266.286 114.758L267.591 116.544C264.504 117.449 261.012 115.492 259.575 112.057C259.133 110.994 258.838 109.771 258.08 109.014C257.401 108.338 256.489 108.177 255.643 107.874C252.854 106.87 250.515 103.776 250.428 100.248C250.385 98.5895 250.812 96.9315 250.619 95.2896C250.511 94.3522 250.205 93.4648 249.73 92.714C249.001 91.5582 247.901 90.7823 247.307 89.4945C246.302 87.3407 247.066 84.543 246.342 82.2314C246.119 81.5232 245.674 80.8149 245.05 80.7602C244.427 80.7054 243.894 81.3332 243.298 81.6133C242.057 82.1993 240.715 81.2044 239.679 80.1839C238.642 79.1633 237.473 78.0043 236.152 78.2329C235.28 78.381 234.593 79.1021 233.79 79.4788C233.196 79.7557 231.992 80.0036 231.472 79.3951C230.375 78.1685 232.917 74.9909 233.376 73.8448Z" fill="#591D4B"/>
<path opacity="0.1" d="M260.312 110.994C259.867 109.932 259.575 108.708 258.817 107.955C258.138 107.279 257.226 107.115 256.378 106.812C253.591 105.811 251.252 102.717 251.162 99.1883C251.12 97.5303 251.547 95.8691 251.356 94.2272C251.245 93.2958 250.939 92.4146 250.468 91.6677C249.736 90.5119 248.635 89.736 248.044 88.4482C247.039 86.2976 247.803 83.4999 247.076 81.1851C246.856 80.4801 246.408 79.7718 245.788 79.7138C245.167 79.6559 244.629 80.2901 244.035 80.5702C242.794 81.1562 241.45 80.1581 240.416 79.1408C239.382 78.1234 238.207 76.9612 236.889 77.1866C236.017 77.3379 235.328 78.059 234.527 78.4325C233.933 78.7094 232.726 78.9605 232.207 78.352C231.114 77.0642 233.657 73.893 234.113 72.7534C234.492 71.8133 234.681 70.7669 235.137 69.8784C235.16 69.8301 235.187 69.7818 235.214 69.7335C234.872 70.0766 234.578 70.483 234.341 70.9376C233.888 71.8262 233.7 72.8693 233.32 73.8126C232.862 74.9522 230.319 78.1331 231.414 79.4112C231.944 80.0229 233.137 79.7718 233.731 79.4949C234.527 79.1182 235.221 78.3971 236.094 78.249C237.42 78.0204 238.586 79.1826 239.62 80.2C240.654 81.2173 242.007 82.2153 243.242 81.6294C243.836 81.3493 244.356 80.7183 244.992 80.7762C245.629 80.8342 246.053 81.5393 246.283 82.2475C247.007 84.5591 246.244 87.3568 247.249 89.5106C247.843 90.7759 248.943 91.5679 249.672 92.7301C250.147 93.4809 250.453 94.3683 250.56 95.3057C250.754 96.9476 250.327 98.6056 250.369 100.264C250.457 103.805 252.796 106.886 255.585 107.891C256.425 108.193 257.343 108.354 258.022 109.03C258.783 109.787 259.082 111.01 259.517 112.073C260.954 115.508 264.446 117.465 267.532 116.561L266.917 115.717C264.242 115.765 261.535 113.917 260.312 110.994Z" fill="black"/>
<path opacity="0.1" d="M242.033 96.3005C241.686 96.9444 240.691 100.241 239.862 103.119C239.085 102.752 238.379 100.412 238.379 100.412L242.521 93.2581C242.945 93.9664 242.667 95.1415 242.033 96.3005Z" fill="black"/>
<path d="M242.192 96.1073C241.845 96.7512 240.85 100.048 240.021 102.926C239.244 102.562 238.538 100.219 238.538 100.219L242.68 93.0681C243.104 93.7732 242.826 94.9515 242.192 96.1073Z" fill="#DCE7FF"/>
<path d="M218.111 128.997L215.815 120.205C215.788 120.102 215.778 119.994 215.785 119.886C215.793 119.778 215.818 119.673 215.859 119.577C215.899 119.481 215.956 119.396 216.024 119.326C216.092 119.257 216.171 119.204 216.255 119.172C216.426 119.107 216.611 119.127 216.77 119.227C216.929 119.327 217.049 119.499 217.104 119.706L219.4 128.489L219.172 130.327L218.111 128.997Z" fill="#BE8B87"/>
<path opacity="0.1" d="M216.033 119.432C216.204 119.367 216.39 119.386 216.549 119.486C216.709 119.586 216.829 119.759 216.884 119.967L219.18 128.749L219.008 130.127L219.175 130.34L219.403 128.502L217.093 119.719C217.038 119.512 216.918 119.34 216.76 119.24C216.601 119.139 216.416 119.12 216.245 119.184C216.101 119.241 215.977 119.354 215.892 119.506C215.937 119.477 215.984 119.452 216.033 119.432Z" fill="white"/>
<path d="M218.111 128.997L219.4 128.502L219.212 130.008L219.172 130.34L218.795 129.863L218.111 128.997Z" fill="#EFC8C4"/>
<path d="M218.795 129.863C218.818 129.829 218.846 129.8 218.878 129.78C218.896 129.765 218.918 129.758 218.94 129.758C218.962 129.758 218.984 129.765 219.002 129.78C219.02 129.806 219.035 129.835 219.047 129.867C219.065 129.902 219.089 129.932 219.117 129.955C219.146 129.978 219.178 129.993 219.212 129.999L219.172 130.321L218.795 129.863Z" fill="#727A9C"/>
<path d="M215.802 123.328C215.802 123.328 220.408 123.296 219.323 125.675C218.239 128.054 216.544 128.341 216.544 128.341L215.802 123.328Z" fill="#FFB0B1"/>
<path d="M187.158 16.5545H186.959C179.047 16.5545 172.05 21.638 168.025 29.1393C164 21.638 157.003 16.5545 149.091 16.5545H148.892C142.954 16.6232 137.278 19.5344 133.099 24.6555C128.919 29.7766 126.572 36.6938 126.569 43.9038C126.569 52.8571 129.798 65.5611 136.096 76.0147C148.094 95.9335 168.025 113.36 168.025 113.36C168.025 113.36 187.956 95.9367 199.951 76.0147C206.251 65.5611 209.478 52.8571 209.478 43.9038C209.475 36.6943 207.129 29.7776 202.949 24.6566C198.77 19.5356 193.095 16.624 187.158 16.5545ZM184.313 77.5471C183.412 77.543 182.533 77.2081 181.791 76.5864C181.05 75.9647 180.481 75.0853 180.158 74.0637H175.428C175.116 74.0613 174.813 73.9409 174.561 73.7193C174.308 73.4976 174.119 73.1858 174.02 72.8274L172.567 67.5121L167.969 87.0188C167.88 87.3943 167.692 87.7244 167.435 87.9595C167.178 88.1946 166.865 88.3221 166.543 88.3227H166.45C166.114 88.3029 165.794 88.1438 165.543 87.872C165.292 87.6001 165.125 87.2318 165.071 86.8288L160.333 52.2261L156.87 72.7018C156.791 73.0908 156.606 73.4363 156.346 73.6831C156.086 73.93 155.766 74.0639 155.436 74.0637H148.772C148.573 74.0739 148.373 74.035 148.186 73.9493C147.999 73.8636 147.828 73.7328 147.684 73.5648C147.54 73.3968 147.425 73.1951 147.346 72.9719C147.268 72.7486 147.228 72.5083 147.228 72.2656C147.228 72.0229 147.268 71.7826 147.346 71.5594C147.425 71.3361 147.54 71.1344 147.684 70.9664C147.828 70.7984 147.999 70.6676 148.186 70.5819C148.373 70.4962 148.573 70.4573 148.772 70.4675H154.269L159.174 42.9379C159.255 42.5309 159.449 42.1705 159.724 41.9183C159.999 41.6661 160.338 41.5378 160.683 41.5553C161.027 41.5727 161.356 41.735 161.613 42.0142C161.87 42.2934 162.039 42.6723 162.091 43.086L166.93 78.3842L171.05 60.9315C171.136 60.5639 171.317 60.2399 171.567 60.0078C171.817 59.7757 172.122 59.648 172.437 59.6437H172.466C172.778 59.6438 173.081 59.7634 173.334 59.9854C173.586 60.2074 173.774 60.5205 173.871 60.88L176.499 70.4772H180.1C180.356 69.5328 180.822 68.6927 181.446 68.0495C182.07 67.4063 182.829 66.9851 183.638 66.8324C184.447 66.6797 185.275 66.8014 186.031 67.184C186.787 67.5667 187.441 68.1955 187.921 69.0009C188.401 69.8064 188.688 70.7572 188.752 71.7485C188.815 72.7398 188.651 73.733 188.278 74.6184C187.906 75.5038 187.339 76.2471 186.641 76.7662C185.943 77.2853 185.14 77.56 184.321 77.56L184.313 77.5471Z" fill="#36F5D3"/>
</g>
<defs>
<linearGradient id="paint0_linear_3_27542" x1="94.4805" y1="249.466" x2="94.4805" y2="51.36" gradientUnits="userSpaceOnUse">
<stop stop-color="#808080" stop-opacity="0.25"/>
<stop offset="0.54" stop-color="#808080" stop-opacity="0.12"/>
<stop offset="1" stop-color="#808080" stop-opacity="0.1"/>
</linearGradient>
<linearGradient id="paint1_linear_3_27542" x1="236.892" y1="246.962" x2="236.892" y2="66.0279" gradientUnits="userSpaceOnUse">
<stop stop-color="#808080" stop-opacity="0.25"/>
<stop offset="0.54" stop-color="#808080" stop-opacity="0.12"/>
<stop offset="1" stop-color="#808080" stop-opacity="0.1"/>
</linearGradient>
<clipPath id="clip0_3_27542">
<rect width="293" height="252" fill="white"/>
</clipPath>
</defs>
</svg>
