<svg width="293" height="252" viewBox="0 0 293 252" fill="none" xmlns="http://www.w3.org/2000/svg">
<g clip-path="url(#clip0_3_27479)">
<path d="M89.6793 116.865H51.9639V170.501H89.6793V116.865Z" fill="#CCCCCC"/>
<path d="M32.7634 251.173H13.5628L11.5056 230.242H34.8206L32.7634 251.173Z" fill="#E6E6E6"/>
<path d="M71.319 236.012L70.6711 247.277C70.6418 247.787 70.6985 248.299 70.8375 248.779C70.9765 249.259 71.1946 249.695 71.4771 250.059C71.7596 250.423 72.1 250.706 72.4754 250.888C72.8509 251.071 73.2527 251.15 73.654 251.119L78.2038 250.768C78.4146 250.752 78.6201 250.677 78.8055 250.548C78.9909 250.42 79.1517 250.241 79.2766 250.024C79.4015 249.807 79.4873 249.558 79.528 249.295C79.5687 249.031 79.5632 248.76 79.512 248.499L76.9864 235.651L71.319 236.012Z" fill="#E6E6E6"/>
<path d="M109.376 242.674C114.731 244.267 118.556 246.531 121.069 249.596C121.963 250.679 123.134 251.317 124.368 251.395C125.944 251.5 127.233 251.275 128.201 250.725H128.201C128.449 250.586 128.664 250.365 128.822 250.085C128.98 249.805 129.077 249.477 129.101 249.133C129.131 248.785 129.086 248.432 128.972 248.113C128.858 247.793 128.679 247.518 128.454 247.316L115.754 235.824L110.36 238.569L109.101 240.169C108.965 240.342 108.862 240.553 108.801 240.786C108.74 241.018 108.722 241.265 108.748 241.508C108.775 241.751 108.846 241.982 108.954 242.185C109.063 242.387 109.207 242.554 109.376 242.674H109.376Z" fill="#E6E6E6"/>
<path d="M92.8967 58.7354L56.5962 58.3079C56.6875 51.5835 57.9176 44.9804 60.6066 39.0715C62.3726 35.1908 62.3345 30.9674 61.9089 27.4093C61.2521 21.9183 62.7794 16.3003 66.1732 12.805C68.7667 10.1291 72.04 8.7517 75.3767 8.93213L76.0815 8.96948C78.3775 9.09083 80.6127 9.94382 82.582 11.4501C84.5512 12.9565 86.1913 15.0678 87.3518 17.5904C88.5312 20.2833 89.0069 23.3835 88.71 26.4428C88.4799 29.3214 89.0305 32.2293 90.3182 35.1649C92.54 41.611 93.0211 49.8597 92.8967 58.7354Z" fill="#2F2E41"/>
<path d="M117.184 236.423L110.059 238.787L75.3666 142.663L77.5349 236.423H70.4105C62.7977 192.312 49.0531 141.402 55.2325 125.329L92.0934 122.572L117.184 236.423Z" fill="#36F5D3"/>
<path d="M75.0568 42.5996C80.36 42.5996 84.6592 37.1319 84.6592 30.3871C84.6592 23.6424 80.36 18.1746 75.0568 18.1746C69.7535 18.1746 65.4543 23.6424 65.4543 30.3871C65.4543 37.1319 69.7535 42.5996 75.0568 42.5996Z" fill="#FFB9B9"/>
<path d="M83.4203 52.8423L67.6228 51.6605C69.171 47.1412 69.7894 42.7893 69.1716 38.6601H80.9423C80.9156 41.8305 82.1561 47.3148 83.4203 52.8423Z" fill="#FFB9B9"/>
<path d="M93.3323 126.117L58.6399 129.269L62.2019 51.0696L68.2422 48.9028L75.0567 50.8725L81.8712 46.5389L86.2078 48.509L93.3323 126.117Z" fill="#36F5D3"/>
<path d="M64.5251 182.452L40.8289 175.558C47.875 145.841 60.569 77.8574 56.4715 53.6302L68.8617 46.5391L64.5251 182.452Z" fill="#E6E6E6"/>
<path d="M53.0642 96.5709L44.0813 89.4797L51.7421 60.944C52.5966 57.9995 54.2331 55.5272 56.3689 53.9546L58.9496 52.0544L57.4008 80.8128L53.0642 96.5709Z" fill="#E6E6E6"/>
<path d="M113.931 175.952C106.452 181.455 87.7569 184.523 79.5483 180.679C78.9442 153.83 77.7597 77.8822 81.5617 45.7512L95.1909 52.8423L93.9519 74.1157C87.436 92.3139 106.357 155.698 113.931 175.952Z" fill="#E6E6E6"/>
<path d="M112.847 93.0255L104.484 89.4798L93.3325 73.3276L95.1912 52.8422L113.776 85.9342L112.847 93.0255Z" fill="#E6E6E6"/>
<path d="M86.6362 108.359C86.773 109.123 87.1424 109.787 87.6634 110.204C88.1843 110.622 88.8143 110.76 89.4152 110.588L96.5146 108.544L95.4886 102.78L88.389 104.825C87.7881 104.998 87.2658 105.468 86.9371 106.13C86.6084 106.793 86.5002 107.595 86.6362 108.359Z" fill="#FFB9B9"/>
<path d="M83.4202 27.2355C78.0866 24.4462 72.819 24.2444 67.6226 26.8415L65.4543 16.9928H85.2787L83.4202 27.2355Z" fill="#2F2E41"/>
<path d="M93.0227 101.692L97.0495 111.147C103.823 108.745 109.692 101.17 115.325 92.2374L113.776 85.9342L104.174 89.0858L93.0227 101.692Z" fill="#E6E6E6"/>
<path d="M90.0801 82.1917H88.8411C88.8411 59.9042 85.2329 44.3724 81.7167 44.3724L81.407 42.7966C84.5603 42.7966 86.5707 49.2608 87.7019 54.6838C89.2356 62.0355 90.0801 71.8047 90.0801 82.1917Z" fill="#3F3D56"/>
<path d="M61.5825 76.6763H60.3435C60.3435 56.2646 63.9766 43.5845 69.3264 43.5845L69.0167 45.1603C65.3162 45.1603 61.5825 54.9054 61.5825 76.6763Z" fill="#3F3D56"/>
<path d="M89.4606 86.5251C91.1713 86.5251 92.5581 84.7613 92.5581 82.5856C92.5581 80.4099 91.1713 78.6461 89.4606 78.6461C87.7499 78.6461 86.363 80.4099 86.363 82.5856C86.363 84.7613 87.7499 86.5251 89.4606 86.5251Z" fill="#3F3D56"/>
<path d="M56.6265 86.1312H55.3875C55.3875 80.4833 57.8886 75.8884 60.9631 75.8884V77.4643C58.5718 77.4643 56.6265 81.3522 56.6265 86.1312Z" fill="#3F3D56"/>
<path d="M66.5385 86.1312H65.2995C65.2995 81.3522 63.3541 77.4643 60.9629 77.4643V75.8884C64.0373 75.8884 66.5385 80.4833 66.5385 86.1312Z" fill="#3F3D56"/>
<path d="M65.9192 88.1009C66.6035 88.1009 67.1582 87.3954 67.1582 86.5251C67.1582 85.6548 66.6035 84.9493 65.9192 84.9493C65.2349 84.9493 64.6802 85.6548 64.6802 86.5251C64.6802 87.3954 65.2349 88.1009 65.9192 88.1009Z" fill="#3F3D56"/>
<path d="M56.0068 88.1009C56.6911 88.1009 57.2459 87.3954 57.2459 86.5251C57.2459 85.6548 56.6911 84.9493 56.0068 84.9493C55.3225 84.9493 54.7678 85.6548 54.7678 86.5251C54.7678 87.3954 55.3225 88.1009 56.0068 88.1009Z" fill="#3F3D56"/>
<path d="M40.519 72.0347L48.2497 73.7903L65.919 105.743L56.532 102.934L40.519 72.0347Z" fill="#36F5D3"/>
<path d="M39.1479 71.6435C39.0301 71.6457 38.9149 71.6882 38.8144 71.7664C38.7139 71.8447 38.6319 71.9558 38.5767 72.0882C38.5216 72.2206 38.4954 72.3695 38.501 72.5191C38.5065 72.6688 38.5436 72.8138 38.6084 72.939L55.1248 104.81C55.2169 104.988 55.3593 105.115 55.5226 105.163L63.2071 107.463C63.3367 107.502 63.4725 107.489 63.5965 107.428C63.7204 107.366 63.8267 107.258 63.9013 107.118C63.9758 106.978 64.0151 106.812 64.0139 106.643C64.0127 106.473 63.971 106.308 63.8944 106.17L45.7604 73.3772C45.7112 73.2879 45.6487 73.2117 45.5764 73.1531C45.504 73.0945 45.4233 73.0547 45.3389 73.0358L39.2717 71.6577C39.2309 71.6484 39.1894 71.6436 39.1479 71.6435Z" fill="#3F3D56"/>
<path d="M49.4509 94.4309L49.91 100.311L57.1535 99.3968C57.7666 99.3194 58.3305 98.9354 58.721 98.3293C59.1115 97.7232 59.2968 96.9446 59.2359 96.1648C59.175 95.385 58.8731 94.6679 58.3965 94.1712C57.92 93.6746 57.3078 93.439 56.6946 93.5164L49.4509 94.4309Z" fill="#FFB9B9"/>
<path d="M43.1523 93.7497C43.1629 95.7548 43.7961 97.6734 44.9139 99.0873C46.0318 100.501 47.5438 101.296 49.1204 101.298H50.3115L51.1786 92.1079L43.999 88.8207L43.1523 93.7497Z" fill="#E6E6E6"/>
<path d="M293 0H151.738V94.6258H293V0Z" fill="#E6E6E6"/>
<path d="M155.853 89.3931H288.886V5.23277H155.853V89.3931Z" fill="white"/>
<path d="M213.454 17.4426H166.139V77.6193H213.454V17.4426Z" fill="#3F3D56"/>
<path d="M202.14 44.9146C202.897 44.9146 203.511 44.1336 203.511 43.1703C203.511 42.207 202.897 41.4261 202.14 41.4261C201.383 41.4261 200.769 42.207 200.769 43.1703C200.769 44.1336 201.383 44.9146 202.14 44.9146Z" fill="#36F5D3"/>
<path d="M196.997 38.8097C197.754 38.8097 198.368 38.0287 198.368 37.0654C198.368 36.1021 197.754 35.3212 196.997 35.3212C196.24 35.3212 195.625 36.1021 195.625 37.0654C195.625 38.0287 196.24 38.8097 196.997 38.8097Z" fill="#36F5D3"/>
<path d="M196.311 43.1703C195.806 43.1704 195.312 43.3487 194.882 43.6853C194.504 42.9615 194.059 42.2975 193.557 41.7074C193.563 41.6143 193.568 41.5211 193.568 41.4261C193.569 40.7416 193.411 40.0721 193.114 39.5011C192.817 38.9302 192.395 38.4829 191.899 38.2152C191.404 37.9475 190.858 37.8712 190.328 37.9958C189.799 38.1203 189.311 38.4403 188.923 38.9157C188.189 38.7831 187.444 38.7749 186.708 38.8911C186.708 38.8638 186.711 38.8372 186.711 38.8097C186.711 38.2258 186.597 37.651 186.377 37.1381C186.158 36.6252 185.841 36.1905 185.455 35.874C185.069 35.5574 184.627 35.3691 184.169 35.3262C183.711 35.2834 183.252 35.3874 182.834 35.6287C182.416 35.87 182.052 36.241 181.776 36.7075C181.5 37.174 181.321 37.7212 181.254 38.299C181.187 38.8767 181.236 39.4665 181.395 40.0142C181.554 40.5619 181.819 41.0501 182.165 41.434C181.705 41.9342 181.289 42.4946 180.922 43.1057C180.583 42.7474 180.182 42.498 179.752 42.3787C179.321 42.2594 178.875 42.2737 178.45 42.4204C178.024 42.567 177.633 42.8417 177.309 43.2213C176.985 43.6008 176.738 44.0739 176.588 44.6007C176.438 45.1275 176.391 45.6925 176.449 46.2477C176.507 46.803 176.669 47.3323 176.923 47.7908C177.176 48.2494 177.512 48.6236 177.902 48.882C178.293 49.1404 178.727 49.2753 179.168 49.2752L179.176 49.2747C179.172 49.4197 179.168 49.5648 179.168 49.7113C179.168 50.589 179.251 51.4635 179.416 52.3159C178.601 52.706 177.877 53.3531 177.312 54.1966C176.747 55.04 176.361 56.0521 176.188 57.1378C176.015 58.2235 176.062 59.3473 176.324 60.4036C176.586 61.46 177.055 62.4143 177.687 63.177C178.318 63.9397 179.092 64.4858 179.935 64.764C180.778 65.0422 181.663 65.0434 182.507 64.7675C183.35 64.4916 184.125 63.9477 184.758 63.1867C185.391 62.4258 185.861 61.4728 186.125 60.4172C188.033 60.8836 190.009 60.5108 191.729 59.36C191.904 59.8857 192.179 60.3485 192.528 60.7079C192.877 61.0672 193.29 61.3121 193.73 61.421C194.171 61.5299 194.626 61.4995 195.056 61.3325C195.485 61.1655 195.876 60.867 196.193 60.4631C196.511 60.0593 196.746 59.5625 196.877 59.0163C197.008 58.4702 197.032 57.8914 196.947 57.3308C196.861 56.7701 196.668 56.2448 196.386 55.8009C196.103 55.357 195.739 55.0081 195.326 54.7848C195.92 53.3511 196.254 51.7662 196.302 50.1468L196.311 50.1474C197.039 50.1474 197.736 49.7798 198.251 49.1256C198.765 48.4714 199.054 47.5841 199.054 46.6588C199.054 45.7336 198.765 44.8463 198.251 44.1921C197.736 43.5379 197.039 43.1703 196.311 43.1703V43.1703Z" fill="#36F5D3"/>
<path d="M195.625 16.1344H181.911V18.7507H195.625V16.1344Z" fill="#E6E6E6"/>
<path d="M273.799 17.4426H226.483V77.6193H273.799V17.4426Z" fill="#3F3D56"/>
<path d="M259.124 58.2581C259.465 58.2581 259.742 57.9067 259.742 57.4732C259.742 57.0397 259.465 56.6883 259.124 56.6883C258.784 56.6883 258.507 57.0397 258.507 57.4732C258.507 57.9067 258.784 58.2581 259.124 58.2581Z" fill="#36F5D3"/>
<path d="M256.811 55.5109C257.151 55.5109 257.428 55.1595 257.428 54.726C257.428 54.2925 257.151 53.9411 256.811 53.9411C256.47 53.9411 256.193 54.2925 256.193 54.726C256.193 55.1595 256.47 55.5109 256.811 55.5109Z" fill="#36F5D3"/>
<path d="M256.502 57.4732C256.275 57.4732 256.052 57.5535 255.859 57.7049C255.689 57.3792 255.488 57.0804 255.263 56.8149C255.265 56.773 255.268 56.731 255.268 56.6883C255.268 56.3803 255.197 56.079 255.063 55.8221C254.93 55.5651 254.739 55.3639 254.517 55.2434C254.294 55.1229 254.048 55.0886 253.81 55.1446C253.572 55.2007 253.352 55.3447 253.177 55.5586C252.847 55.499 252.512 55.4952 252.18 55.5476C252.181 55.5353 252.182 55.5233 252.182 55.5109C252.182 55.2482 252.13 54.9895 252.032 54.7587C251.933 54.5279 251.79 54.3323 251.617 54.1898C251.443 54.0474 251.244 53.9626 251.038 53.9434C250.832 53.9241 250.625 53.9709 250.437 54.0795C250.249 54.1881 250.086 54.355 249.961 54.5649C249.837 54.7749 249.756 55.0211 249.726 55.2811C249.696 55.5411 249.718 55.8065 249.79 56.0529C249.861 56.2994 249.98 56.5191 250.136 56.6918C249.929 56.917 249.742 57.1691 249.577 57.4441C249.424 57.2829 249.244 57.1707 249.05 57.117C248.856 57.0633 248.655 57.0697 248.464 57.1357C248.273 57.2017 248.097 57.3254 247.951 57.4961C247.805 57.6669 247.694 57.8798 247.627 58.1169C247.559 58.354 247.538 58.6082 247.564 58.858C247.59 59.1079 247.663 59.3461 247.777 59.5524C247.891 59.7588 248.042 59.9272 248.218 60.0435C248.394 60.1597 248.589 60.2204 248.787 60.2204L248.791 60.2201C248.789 60.2854 248.787 60.3507 248.787 60.4166C248.787 60.8116 248.825 61.2051 248.899 61.5887C248.532 61.7643 248.206 62.0555 247.952 62.435C247.698 62.8146 247.524 63.27 247.446 63.7586C247.369 64.2471 247.39 64.7528 247.508 65.2282C247.626 65.7035 247.837 66.133 248.121 66.4762C248.405 66.8194 248.753 67.0651 249.133 67.1903C249.512 67.3155 249.91 67.3161 250.29 67.1919C250.67 67.0678 251.018 66.823 251.303 66.4806C251.588 66.1382 251.8 65.7093 251.918 65.2343C252.777 65.4442 253.666 65.2764 254.44 64.7586C254.519 64.9951 254.642 65.2034 254.799 65.3651C254.956 65.5268 255.142 65.637 255.341 65.686C255.539 65.735 255.744 65.7213 255.937 65.6462C256.13 65.571 256.306 65.4367 256.449 65.255C256.592 65.0732 256.697 64.8497 256.757 64.6039C256.816 64.3581 256.826 64.0977 256.788 63.8454C256.749 63.5931 256.663 63.3567 256.536 63.157C256.408 62.9572 256.245 62.8002 256.059 62.6997C256.326 62.0545 256.476 61.3414 256.498 60.6126L256.502 60.6129C256.829 60.6129 257.143 60.4475 257.375 60.1531C257.606 59.8587 257.736 59.4594 257.736 59.043C257.736 58.6267 257.606 58.2274 257.375 57.933C257.143 57.6386 256.829 57.4732 256.502 57.4732V57.4732Z" fill="#36F5D3"/>
<path d="M263.967 43.3629C264.308 43.3629 264.584 43.0115 264.584 42.578C264.584 42.1445 264.308 41.7931 263.967 41.7931C263.626 41.7931 263.35 42.1445 263.35 42.578C263.35 43.0115 263.626 43.3629 263.967 43.3629Z" fill="#36F5D3"/>
<path d="M265.418 39.785C265.759 39.785 266.036 39.4336 266.036 39.0001C266.036 38.5666 265.759 38.2152 265.418 38.2152C265.078 38.2152 264.801 38.5666 264.801 39.0001C264.801 39.4336 265.078 39.785 265.418 39.785Z" fill="#36F5D3"/>
<path d="M263.256 39.367C263.194 39.089 263.073 38.8383 262.906 38.6426C263.106 38.3458 263.278 38.0198 263.418 37.6714C263.45 37.6632 263.483 37.6548 263.515 37.6432C263.748 37.5599 263.957 37.3912 264.115 37.158C264.274 36.9249 264.374 36.6377 264.405 36.3321C264.436 36.0266 264.395 35.7164 264.288 35.44C264.181 35.1637 264.013 34.9335 263.804 34.7782C263.759 34.3574 263.671 33.946 263.542 33.5546C263.551 33.5515 263.56 33.5498 263.57 33.5464C263.769 33.4755 263.95 33.3422 264.098 33.1588C264.246 32.9753 264.356 32.7476 264.416 32.4965C264.477 32.2453 264.487 31.9788 264.446 31.7213C264.405 31.4639 264.313 31.2237 264.18 31.0228C264.047 30.8219 263.876 30.6668 263.684 30.5716C263.491 30.4764 263.283 30.4443 263.078 30.478C262.873 30.5118 262.678 30.6104 262.511 30.7649C262.344 30.9193 262.21 31.1247 262.121 31.3621C261.895 31.1701 261.653 31.009 261.401 30.8814C261.481 30.6512 261.517 30.3996 261.505 30.148C261.493 29.8964 261.434 29.6521 261.332 29.4358C261.231 29.2195 261.089 29.0376 260.92 28.9054C260.752 28.7732 260.56 28.6947 260.363 28.6764C260.165 28.6582 259.967 28.7007 259.785 28.8005C259.603 28.9003 259.442 29.0544 259.317 29.2497C259.192 29.445 259.105 29.6759 259.065 29.9227C259.025 30.1695 259.032 30.425 259.085 30.6676L259.087 30.6724C259.037 30.6876 258.987 30.703 258.937 30.7208C258.638 30.828 258.35 30.9805 258.08 31.1752C257.848 30.7737 257.539 30.4539 257.183 30.2457C256.827 30.0375 256.435 29.9478 256.044 29.9851C255.653 30.0223 255.276 30.1852 254.948 30.4585C254.621 30.7318 254.353 31.1066 254.17 31.5476C253.987 31.9886 253.896 32.4814 253.904 32.9798C253.912 33.4782 254.019 33.9658 254.216 34.3968C254.413 34.8279 254.693 35.1882 255.029 35.4441C255.366 35.7 255.748 35.843 256.139 35.8596C256.213 36.9676 256.581 38.0107 257.183 38.8175C257.025 38.9783 256.901 39.1859 256.821 39.422C256.741 39.6581 256.708 39.9155 256.725 40.1716C256.742 40.4277 256.808 40.6748 256.917 40.8909C257.026 41.1071 257.176 41.2859 257.352 41.4116C257.528 41.5372 257.726 41.6059 257.928 41.6117C258.13 41.6174 258.33 41.5599 258.511 41.4444C258.691 41.3288 258.846 41.1587 258.963 40.9489C259.08 40.7391 259.154 40.496 259.18 40.2411C259.741 40.3934 260.321 40.3839 260.879 40.2132L260.88 40.2181C260.923 40.4166 260.998 40.6023 261.098 40.7644C261.198 40.9265 261.323 41.0618 261.464 41.1628C261.605 41.2637 261.761 41.3281 261.922 41.3525C262.083 41.3769 262.246 41.3606 262.402 41.3047C262.559 41.2488 262.704 41.1543 262.832 41.0267C262.959 40.899 263.066 40.7407 263.145 40.5607C263.224 40.3808 263.275 40.1827 263.294 39.9779C263.313 39.7731 263.3 39.5655 263.256 39.367V39.367Z" fill="#36F5D3"/>
<path d="M240.063 32.6967C240.404 32.6967 240.68 32.3453 240.68 31.9118C240.68 31.4783 240.404 31.1269 240.063 31.1269C239.722 31.1269 239.446 31.4783 239.446 31.9118C239.446 32.3453 239.722 32.6967 240.063 32.6967Z" fill="#36F5D3"/>
<path d="M236.907 33.0183C237.248 33.0183 237.524 32.6668 237.524 32.2333C237.524 31.7998 237.248 31.4484 236.907 31.4484C236.566 31.4484 236.29 31.7998 236.29 32.2333C236.29 32.6668 236.566 33.0183 236.907 33.0183Z" fill="#36F5D3"/>
<path d="M238.295 34.3754C238.142 34.5887 238.038 34.8519 237.996 35.1357C237.692 35.076 237.383 35.0626 237.077 35.0956C237.054 35.0649 237.032 35.0344 237.007 35.0056C236.828 34.7977 236.605 34.6614 236.366 34.6136C236.127 34.5658 235.882 34.6086 235.661 34.7368C235.441 34.8649 235.255 35.0727 235.127 35.3341C234.999 35.5956 234.935 35.8992 234.941 36.2071C234.684 36.4773 234.456 36.7897 234.263 37.1362C234.256 37.1277 234.25 37.1185 234.242 37.1101C234.09 36.9327 233.905 36.8068 233.705 36.7439C233.504 36.681 233.294 36.6832 233.094 36.7502C232.895 36.8172 232.711 36.947 232.561 37.1275C232.411 37.308 232.299 37.5336 232.235 37.7835C232.171 38.0334 232.158 38.2997 232.196 38.558C232.234 38.8162 232.323 39.0581 232.453 39.2616C232.584 39.465 232.753 39.6235 232.944 39.7224C233.136 39.8214 233.344 39.8576 233.549 39.8279C233.54 40.1737 233.56 40.5198 233.609 40.8603C233.412 40.8947 233.225 40.9887 233.064 41.1344C232.902 41.2801 232.77 41.4732 232.679 41.6974C232.589 41.9216 232.542 42.1702 232.543 42.4223C232.544 42.6744 232.592 42.9225 232.685 43.1456C232.777 43.3688 232.91 43.5604 233.073 43.7043C233.235 43.8481 233.423 43.94 233.62 43.9722C233.816 44.0044 234.016 43.9759 234.202 43.8891C234.388 43.8023 234.555 43.6598 234.689 43.4736L234.691 43.4698C234.728 43.5157 234.764 43.5615 234.803 43.6059C235.032 43.8722 235.286 44.1023 235.558 44.2913C235.413 44.7542 235.363 45.2565 235.412 45.7511C235.461 46.2457 235.608 46.7162 235.839 47.1187C236.07 47.5212 236.378 47.8423 236.734 48.052C237.089 48.2617 237.481 48.353 237.872 48.3174C238.263 48.2818 238.64 48.1205 238.969 47.8486C239.297 47.5766 239.566 47.203 239.75 46.7628C239.934 46.3225 240.027 45.8301 240.02 45.3317C240.013 44.8333 239.907 44.3452 239.711 43.9133C240.412 43.2484 240.914 42.3001 241.135 41.2243C241.326 41.3096 241.53 41.334 241.729 41.2955C241.929 41.257 242.119 41.1568 242.281 41.0035C242.443 40.8502 242.573 40.6486 242.66 40.4165C242.746 40.1843 242.787 39.9286 242.778 39.6719C242.769 39.4151 242.71 39.1652 242.607 38.944C242.504 38.7228 242.36 38.5371 242.188 38.4032C242.015 38.2693 241.82 38.1913 241.618 38.176C241.416 38.1608 241.215 38.2087 241.031 38.3157C240.836 37.6296 240.523 37.0077 240.115 36.4958L240.118 36.4923C240.227 36.3401 240.312 36.1619 240.368 35.968C240.423 35.774 240.448 35.5681 240.441 35.3619C240.433 35.1558 240.394 34.9535 240.325 34.7666C240.257 34.5798 240.16 34.412 240.04 34.2729C239.92 34.1337 239.78 34.026 239.627 33.9559C239.475 33.8857 239.313 33.8545 239.151 33.864C238.988 33.8736 238.829 33.9236 238.683 34.0114C238.536 34.0991 238.404 34.2228 238.295 34.3754Z" fill="#36F5D3"/>
<path d="M255.97 16.1344H242.255V18.7507H255.97V16.1344Z" fill="#E6E6E6"/>
<path d="M8.63227 222.498C13.5763 230.919 23.8391 231.806 23.8391 231.806C23.8391 231.806 26.0861 219.039 21.1421 210.618C16.1981 202.197 5.93523 201.311 5.93523 201.311C5.93523 201.311 3.68824 214.078 8.63227 222.498Z" fill="#E6E6E6"/>
<path d="M33.8182 225.664C30.5558 231.221 23.7837 231.806 23.7837 231.806C23.7837 231.806 22.301 223.381 25.5634 217.825C28.8258 212.268 35.598 211.683 35.598 211.683C35.598 211.683 37.0807 220.107 33.8182 225.664Z" fill="#E6E6E6"/>
<path d="M178.139 251.023H0V252H178.139V251.023Z" fill="#3F3D56"/>
</g>
<defs>
<clipPath id="clip0_3_27479">
<rect width="293" height="252" fill="white"/>
</clipPath>
</defs>
</svg>
